<svg width="27" height="28" viewBox="0 0 27 28" fill="none" xmlns="http://www.w3.org/2000/svg">
<path d="M0 1.97236C0 1.66617 0.121641 1.37252 0.338164 1.15601C0.554688 0.939504 0.848356 0.817871 1.15457 0.817871H2.01356C3.47601 0.817871 4.35348 1.80149 4.8538 2.71584C5.18785 3.32541 5.42954 4.03196 5.61889 4.67231L5.77283 4.66616H25.0125C26.2902 4.66616 27.2139 5.88837 26.8629 7.11828L24.0488 16.9837C23.7965 17.8686 23.2628 18.6472 22.5283 19.2016C21.7939 19.756 20.8988 20.056 19.9786 20.0562H10.8221C9.89462 20.0563 8.99276 19.7517 8.25519 19.1894C7.5176 18.6271 6.98512 17.8381 6.73959 16.9437L5.56963 12.6767L3.62995 6.13774L3.62842 6.12542C3.38827 5.25263 3.16351 4.43526 2.82792 3.82569C2.50618 3.23305 2.24756 3.12684 2.0151 3.12684H1.15457C0.848356 3.12684 0.554688 3.00521 0.338164 2.7887C0.121641 2.57219 0 2.27854 0 1.97236ZM10.0062 27.7559C10.8228 27.7559 11.6059 27.4315 12.1833 26.8542C12.7607 26.2768 13.0851 25.4937 13.0851 24.6772C13.0851 23.8607 12.7607 23.0777 12.1833 22.5003C11.6059 21.923 10.8228 21.5986 10.0062 21.5986C9.18968 21.5986 8.40656 21.923 7.82917 22.5003C7.25177 23.0777 6.9274 23.8607 6.9274 24.6772C6.9274 25.4937 7.25177 26.2768 7.82917 26.8542C8.40656 27.4315 9.18968 27.7559 10.0062 27.7559ZM20.7822 27.7559C21.5987 27.7559 22.3819 27.4315 22.9593 26.8542C23.5367 26.2768 23.861 25.4937 23.861 24.6772C23.861 23.8607 23.5367 23.0777 22.9593 22.5003C22.3819 21.923 21.5987 21.5986 20.7822 21.5986C19.9656 21.5986 19.1825 21.923 18.6051 22.5003C18.0277 23.0777 17.7033 23.8607 17.7033 24.6772C17.7033 25.4937 18.0277 26.2768 18.6051 26.8542C19.1825 27.4315 19.9656 27.7559 20.7822 27.7559Z" fill="black"/>
</svg>
