<svg width="19" height="22" viewBox="0 0 19 22" fill="none" xmlns="http://www.w3.org/2000/svg">
<path d="M18.5483 15.3902C18.4697 15.2955 18.3925 15.2008 18.3167 15.1094C17.2749 13.8492 16.6446 13.0887 16.6446 9.52124C16.6446 7.67432 16.2027 6.15889 15.3318 5.02232C14.6896 4.18268 13.8216 3.54573 12.6774 3.075C12.6627 3.06681 12.6496 3.05606 12.6386 3.04327C12.2271 1.66518 11.1009 0.742188 9.83081 0.742188C8.5607 0.742188 7.43502 1.66518 7.02349 3.04185C7.01252 3.05419 6.99955 3.0646 6.98513 3.07263C4.31514 4.17179 3.01755 6.2806 3.01755 9.51982C3.01755 13.0887 2.38818 13.8492 1.34537 15.108C1.2696 15.1994 1.19241 15.2922 1.1138 15.3888C0.910731 15.6337 0.782071 15.9316 0.743045 16.2474C0.70402 16.5631 0.756261 16.8834 0.893587 17.1704C1.18578 17.786 1.80853 18.1682 2.51936 18.1682H17.1475C17.855 18.1682 18.4735 17.7865 18.7666 17.1737C18.9045 16.8866 18.9573 16.5661 18.9186 16.25C18.8799 15.9339 18.7514 15.6355 18.5483 15.3902ZM9.83081 21.9582C10.5151 21.9576 11.1866 21.7718 11.7739 21.4206C12.3612 21.0693 12.8424 20.5657 13.1666 19.963C13.1819 19.9341 13.1895 19.9018 13.1885 19.8691C13.1876 19.8365 13.1783 19.8046 13.1614 19.7766C13.1445 19.7486 13.1207 19.7255 13.0923 19.7095C13.0638 19.6934 13.0317 19.685 12.999 19.685H6.66357C6.63086 19.6849 6.59868 19.6933 6.57016 19.7093C6.54163 19.7253 6.51775 19.7484 6.50082 19.7764C6.48389 19.8044 6.4745 19.8363 6.47356 19.869C6.47262 19.9017 6.48016 19.9341 6.49546 19.963C6.81963 20.5656 7.30083 21.0692 7.88804 21.4205C8.47525 21.7717 9.14657 21.9575 9.83081 21.9582Z" fill="black"/>
</svg>
