<svg width="19" height="19" viewBox="0 0 19 19" fill="none" xmlns="http://www.w3.org/2000/svg">
<path fill-rule="evenodd" clip-rule="evenodd" d="M0.770508 5.07128C0.770508 3.93073 1.22359 2.83689 2.03009 2.03039C2.83658 1.2239 3.93042 0.770813 5.07098 0.770813H9.62467C9.8595 0.770813 10.0847 0.864098 10.2508 1.03015C10.4168 1.19619 10.5101 1.4214 10.5101 1.65623C10.5101 1.89106 10.4168 2.11627 10.2508 2.28231C10.0847 2.44836 9.8595 2.54165 9.62467 2.54165H5.07098C4.40008 2.54165 3.75665 2.80816 3.28225 3.28256C2.80786 3.75696 2.54134 4.40038 2.54134 5.07128V14.1787C2.54134 14.8496 2.80786 15.493 3.28225 15.9674C3.75665 16.4418 4.40008 16.7083 5.07098 16.7083H14.1784C14.8493 16.7083 15.4927 16.4418 15.9671 15.9674C16.4415 15.493 16.708 14.8496 16.708 14.1787V9.62498C16.708 9.39015 16.8013 9.16494 16.9673 8.9989C17.1334 8.83285 17.3586 8.73956 17.5934 8.73956C17.8283 8.73956 18.0535 8.83285 18.2195 8.9989C18.3856 9.16494 18.4788 9.39015 18.4788 9.62498V14.1787C18.4788 15.3192 18.0258 16.4131 17.2193 17.2196C16.4128 18.0261 15.3189 18.4791 14.1784 18.4791H5.07098C3.93042 18.4791 2.83658 18.0261 2.03009 17.2196C1.22359 16.4131 0.770508 15.3192 0.770508 14.1787V5.07128Z" fill="#FE4A23"/>
<path fill-rule="evenodd" clip-rule="evenodd" d="M12.4026 10.7043L10.4503 11.8819L9.53563 10.3652L11.488 9.18756L11.4906 9.18579C11.5655 9.14072 11.6345 9.0866 11.696 9.02464L16.132 4.56568C16.1764 4.52089 16.2192 4.47452 16.2604 4.42668C16.5534 4.0849 16.9873 3.40845 16.4622 2.88074C16.0186 2.43449 15.3829 2.85595 14.9712 3.21808C14.8608 3.31544 14.7544 3.41735 14.6524 3.52355L14.6223 3.55365L10.2484 7.94975C10.1445 8.05299 10.0631 8.17658 10.0093 8.31277L9.27974 10.1482C9.2659 10.1828 9.2633 10.2208 9.27229 10.2569C9.28128 10.293 9.30142 10.3254 9.32984 10.3494C9.35826 10.3734 9.39352 10.3878 9.43062 10.3907C9.46772 10.3935 9.50388 10.3846 9.53563 10.3652L10.4503 11.8819C8.85208 12.8452 6.94401 11.2267 7.63464 9.49303L8.3651 7.65845C8.50732 7.29994 8.72124 6.97424 8.99375 6.70131L13.3668 2.30433L13.3925 2.27865C13.5227 2.14584 13.9601 1.69782 14.4904 1.37553C14.7799 1.2011 15.2421 0.970008 15.8132 0.925737C16.4684 0.873497 17.1679 1.0798 17.7169 1.63141C18.1371 2.04649 18.4013 2.59372 18.4651 3.18089C18.5089 3.63856 18.439 4.09997 18.2614 4.52407C18.0046 5.15891 17.5761 5.62553 17.3875 5.81412L12.9516 10.2731C12.7863 10.4389 12.6033 10.5827 12.4026 10.7043ZM16.3454 4.3948C16.3454 4.3948 16.3418 4.39746 16.3339 4.40011L16.3454 4.3948Z" fill="#FE4A23"/>
</svg>
