<svg width="645" height="683" viewBox="0 0 645 683" fill="none" xmlns="http://www.w3.org/2000/svg">
<path d="M456.547 369.761C461.318 369.559 465.818 369.368 470.709 369.16C468.965 375.971 466.888 382.456 465.686 389.056C461.4 412.577 459.227 436.248 461.869 460.007C463.309 472.963 467.431 485.462 475.097 496.897C480.897 505.549 489.088 511.911 500.071 515.696C501.876 516.319 503.685 518.219 504.284 519.851C506.247 525.197 508.003 530.639 509.14 536.15C509.793 539.309 509.731 542.792 508.9 545.919C504.767 561.486 500.217 576.972 495.95 592.514C495.032 595.857 494.675 599.312 494.042 602.815C475.721 605.011 457.455 607.201 438.061 609.525C439.665 607.935 440.701 607.096 441.478 606.109C449.089 596.464 456.664 586.797 464.218 577.12C464.676 576.534 465.059 575.813 465.141 575.125C465.387 573.039 465.467 570.94 465.612 568.846C463.196 568.82 460.748 568.569 458.375 568.826C455.37 569.152 452.429 569.902 449.455 570.452C444.629 571.344 440.428 572.692 436.375 567.774C432.966 563.639 426.533 565.192 420.888 566.542C420.388 564.774 419.984 563.132 419.456 561.519C416.551 552.661 407.526 548.698 397.333 551.63C394.518 552.439 391.5 552.722 388.606 553.353C387.154 553.67 385.632 554.033 384.387 554.705C379.047 557.587 373.635 560.409 368.584 563.631C366.131 565.195 364.427 565.262 361.881 563.984C359.6 562.84 356.886 562.326 354.045 561.433C353.942 559.461 354.014 557.325 353.691 555.234C352.103 544.948 343.188 539.096 331.176 540.731C327.642 541.213 325.859 540.913 324.329 537.771C319.458 527.764 303.996 520.94 287.942 533.618C279.819 527.58 269.923 526.231 259.618 527.548C248.864 528.922 239.182 532.807 231.369 539.343C228.451 541.785 226.539 545.101 224.187 548.029C223.419 548.986 222.711 549.979 221.975 550.955C221.604 549.754 220.743 548.491 220.934 547.358C224.553 525.853 231.866 505.31 243.012 485.735C255.362 464.043 265.036 441.474 271.466 418.011C273.978 408.844 274.654 399.313 276.265 389.333C280.644 389.541 285.386 389.765 289.902 389.979C283.864 409.468 278.808 428.573 271.952 447.197C263.648 469.753 273.785 486.897 292.637 501.026C309.664 513.786 329.973 521.805 352.974 523.614C374.562 525.312 393.146 518.216 410.04 507.823C414.73 504.937 418.269 500.092 420.962 495.555C443.463 457.653 457.161 417.832 456.071 374.927C456.041 373.777 456.042 372.624 456.089 371.474C456.109 371.062 456.302 370.654 456.547 369.761Z" fill="white"/>
<path d="M412.178 129.407C410.893 125.875 408.664 123.623 405.074 121.539C396.982 116.857 388.923 112.148 380.876 107.401C380.854 107.391 380.821 107.373 380.788 107.354C376.791 105.008 372.806 102.654 368.82 100.29C364.802 97.916 360.783 95.5331 356.776 93.1503C352.746 90.7487 348.728 88.3472 344.699 85.9457C343.304 85.1047 341.91 84.273 340.515 83.4414C337.661 81.7406 335.201 79.4232 333.038 77.0684C332.292 76.2648 332.413 74.9005 332.347 73.6483C332.336 73.3866 332.325 73.125 332.281 72.8727C333.818 73.1157 335.63 72.9848 336.837 73.6483C338.55 74.6014 340.263 75.5546 341.965 76.5171C356.973 84.9084 371.949 93.3465 386.947 101.738C391.405 104.242 395.873 106.737 400.342 109.242C401.978 110.157 404.097 110.456 406.007 111.026C401.55 103.541 397.696 95.7387 392.47 88.6649C385.816 79.6755 377.999 71.3028 370.753 62.6218C369.479 61.108 368.502 59.4072 367.382 57.7906C367.92 57.3047 368.447 56.8188 368.974 56.3329C371.543 57.828 374.54 58.9774 376.605 60.865C392.689 75.5265 407.347 91.0852 417.206 109.793C420.061 108.055 423.19 106.373 425.946 104.345C426.747 103.747 427.044 101.99 426.681 101.009C416.284 72.9474 400.485 47.9509 370.72 31.1588C362.968 26.7949 355.019 22.6553 346.916 18.7866C324.255 7.95634 300.419 5.76038 276.11 13.778C268.128 16.4038 261.31 21.5713 253.866 25.4493C252.933 25.9352 251.912 26.2809 250.858 26.5986C251.176 26.7575 251.473 26.9444 251.747 27.15C249.76 27.8228 248.64 28.5143 247.476 28.5517C233.017 29.0749 215.23 38.1018 205.414 46.3623C187.661 61.3042 177.713 79.9652 171.927 100.252C164.011 128.043 162.847 156.058 170.138 184.119C171.071 187.707 172.773 191.342 175.144 194.379C176.297 195.856 179.822 195.987 181.743 196.566C181.084 185.652 179.898 174.962 179.942 164.281C179.986 153.712 179.646 142.891 185.388 133.098C186.047 133.117 186.717 133.136 187.375 133.154C187.54 135.285 187.825 137.415 187.847 139.555C187.935 151.778 187.727 164.01 188.1 176.223C188.276 181.914 189.538 187.567 190.318 193.249C190.955 193.398 191.591 193.548 192.228 193.697C194.852 188.745 198.19 183.988 199.969 178.83C207.654 156.459 214.725 133.939 222.367 111.559C226.067 100.71 230.524 90.0386 234.784 78.9093C239.319 80.3577 239.483 82.834 239.472 85.1981C239.396 97.1404 239.22 109.083 239.088 121.025C239.077 121.436 239.22 121.847 239.33 122.417C243.304 122.903 243.172 120.231 243.425 118.362C244.951 107.363 246.236 96.3461 247.74 85.3476C249.035 75.9377 250.507 66.5371 252.011 57.1459C252.143 56.2955 253.076 55.5293 253.636 54.7256C254.525 55.4171 255.832 55.9685 256.227 56.8282C258.818 62.4536 261.102 68.1818 263.693 73.8072C271.785 91.3935 282.852 107.503 297.981 121.371C301.879 124.94 306.995 127.557 311.596 130.584C306.655 124.912 300.737 119.661 297.103 113.437C289.538 100.476 282.028 87.3567 279.415 72.7606C278.987 70.4058 277.582 68.2005 276.857 65.8737C276.55 64.8925 276.418 63.0796 276.945 62.846C278.087 62.3508 280.14 62.1078 281.029 62.6685C284.521 64.8925 287.836 67.3501 290.988 69.9292C299.266 76.7133 307.643 83.4133 315.548 90.5058C321.466 95.8135 327.867 95.8696 334.62 93.4026C329.767 86.3008 324.859 79.1709 320.072 71.985C319.841 71.6205 320.621 70.7702 321.258 69.4806C323.212 70.9477 324.947 71.985 326.297 73.3025C327.066 74.0594 327.834 74.8164 328.592 75.5826C328.625 75.6106 328.647 75.6387 328.669 75.6667C329.635 76.6292 330.579 77.5917 331.523 78.5635C331.534 78.5635 331.534 78.5729 331.534 78.5729C331.897 78.9466 332.27 79.3204 332.632 79.7035C332.632 79.7035 332.643 79.7036 332.643 79.7129C333.994 81.0959 335.355 82.4695 336.727 83.8338C337.419 84.5253 338.133 85.2261 338.836 85.9083C339.374 86.4316 339.923 86.9549 340.471 87.4688C340.823 87.8052 341.185 88.1416 341.547 88.4687C342.085 88.9733 342.634 89.4779 343.194 89.9732C346.082 92.5429 350.056 94.2716 353.669 96.1873C355.37 97.0843 357.555 97.3273 359.224 98.2524C360.805 99.1308 362.002 100.504 363.374 101.654C362.002 102.682 360.641 103.71 358.225 105.522C368.293 111.54 378.449 117.614 388.616 123.688C388.539 123.969 388.473 124.24 388.407 124.52H379.679C379.02 126.566 378.262 128.856 377.538 131.145C376.78 133.528 375.144 135.472 372.147 134.21C360.256 129.173 353.877 136.574 347.301 141.004C352.494 148.133 357.446 154.684 362.057 161.412C363.462 163.458 364.297 165.935 364.725 168.299C365.417 172.083 364.33 175.56 359.993 177.531C355.469 179.587 350.99 178.559 347.938 175.634C344.413 172.252 341.734 168.196 339 164.281C337.661 162.346 337.035 160.057 336.069 157.889C335.575 158.123 335.267 158.197 335.07 158.366C333.445 159.739 331.842 161.122 330.239 162.505C329.481 160.459 327.746 158.263 328.131 156.375C330.074 146.769 333.961 137.714 341.558 130.211C348.75 123.118 358.148 122.016 368.414 123.772C369.753 123.997 371.192 123.8 372.465 123.015C363.704 121.062 354.789 119.492 346.236 117.016C339.242 114.998 332.435 112.25 326.001 109.139C322.158 107.279 319.095 106.784 315.318 108.709C312.76 110.017 309.96 110.97 306.446 112.409C311.596 119.222 316.526 125.548 321.181 132.023C322.938 134.462 324.178 137.191 325.309 139.892C325.452 140.228 323.278 141.901 322.476 141.76C319.863 141.284 317.316 140.396 314.89 139.406C291.525 129.762 274.881 114.661 264.758 94.3557C261.947 88.721 259.455 82.9741 256.732 77.0964C255.107 92.0476 253.515 106.7 251.912 121.52C253.405 122.109 255.392 122.632 256.984 123.613C257.896 124.183 258.796 125.613 258.565 126.435C258.357 127.23 256.578 128.37 255.678 128.248C249.529 127.454 248.519 131.07 246.433 134.743C242.426 141.789 237.441 148.423 232.852 155.226C248.816 151.909 259.235 160.524 269.896 168.121C273.223 170.495 273.179 173.784 268.513 175.419C271.225 180.148 274.057 184.418 276.154 188.932C278.877 194.828 277.648 199.64 273.541 201.892C269.281 204.238 262.727 203.257 258.006 198.799C249.266 190.548 243.897 181.278 248.036 169.645C240.142 166.131 232.215 167.944 227.527 174.494C226.824 175.476 226.1 176.447 225.397 177.428C222.608 181.391 220.094 181.979 215.45 179.923C213.276 178.961 210.959 178.241 207.742 177.045C204.898 189.221 198.289 199.902 203.998 212.639C215.68 238.691 230.381 263.118 252.175 284.105C272.037 303.243 294.446 319.447 324.365 326.062C357.413 333.36 378.317 326.417 402.856 299.823C417.755 283.676 422.191 264.015 425.1 244.111C430.799 205.051 425.803 166.897 412.178 129.407Z" fill="white"/>
<path d="M490.774 476.403C488.549 473.721 486.446 470.955 484.028 468.405C483.22 467.554 481.605 467.256 480.358 466.706C479.924 467.959 478.645 469.696 479.191 470.385C482.63 474.719 486.072 479.156 490.336 482.873C492.936 485.14 494.899 487.171 495.603 490.336C496.689 495.227 498.28 500.037 499.183 505.069C490.775 499.595 484.383 492.883 480.578 484.561C474.704 471.715 471.437 458.441 471.203 444.576C470.787 419.898 472.316 395.38 478.321 371.175C478.711 369.6 479.947 367.445 481.449 366.917C491.595 363.347 501.869 360.031 512.196 356.853C523.322 353.428 533.717 354.901 543.607 360.413C548.406 363.088 551.46 366.563 553.265 371.092C566.009 403.089 579.715 434.837 591.324 467.129C602.886 499.294 612.827 531.903 622.495 564.527C625.9 576.015 626.199 588.153 628.278 599.948C630.157 610.611 632.366 621.238 634.786 631.823C635.474 634.831 634.774 636.507 631.809 638.257C597.026 658.78 559.062 671.351 516.244 670.688C501.271 670.457 486.274 668.676 471.399 666.917C441.478 663.378 411.779 663.67 382.088 668.621C371.659 670.36 361.024 672.097 350.464 672.188C325.183 672.406 299.837 675.73 274.598 671.655C273.791 671.524 272.988 671.372 272.165 670.554C278.494 670.134 284.836 669.828 291.145 669.259C295.841 668.835 300.603 668.399 305.12 667.32C307.385 666.779 309.171 664.787 311.174 663.452C308.885 662.645 306.623 661.207 304.302 661.134C291.138 660.719 277.917 661.115 264.803 660.255C256.329 659.699 248.008 657.466 239.795 655.33C255.532 655.33 271.272 655.455 287.004 655.232C290.42 655.183 293.811 653.887 297.099 652.187C267.047 651.064 237.546 647.64 207.987 643.786C215.888 638.218 224.696 636.621 234.47 637.746C253.783 639.969 273.191 641.23 292.585 638.91C300.964 637.907 309.978 637.974 316.882 632.626C318.641 631.264 320.187 629.701 321.831 628.231C321.569 627.916 321.308 627.601 321.046 627.287C314.055 628.513 307.089 630.591 300.067 630.731C292.739 630.878 285.251 629.556 278.032 628.139C271.282 626.815 263.02 628.863 257.653 622.517C258.645 622.124 259.068 621.806 259.488 621.811C282.279 622.049 304.013 616.944 325.65 611.853C338.395 608.853 350.664 610.081 363.059 612.388C366.147 612.963 369.561 613.792 371.909 615.446C380.928 621.799 391.598 622.768 402.492 622.593C419.031 622.328 435.636 622.217 452.063 620.785C461.673 619.947 470.848 615.851 480.464 614.661C498.316 612.453 516.316 610.763 534.323 609.94C542.935 609.546 551.695 611.707 560.412 612.521C561.949 612.664 563.607 611.865 565.21 611.5C564.272 610.425 563.599 608.82 562.351 608.368C557.862 606.745 553.058 605.734 548.626 604.019C546.863 603.337 545.028 601.607 544.48 600.037C542.177 593.433 540.631 586.635 538.295 580.04C526.545 546.851 514.708 513.684 502.717 480.558C500.435 474.255 497.487 468.109 494.45 462.033C493.759 460.649 491.422 459.859 489.843 458.797C489.533 460.493 488.73 462.25 489.009 463.872C489.712 467.962 490.902 471.991 491.897 476.045C491.522 476.163 491.149 476.283 490.774 476.403Z" fill="white"/>
<path d="M294.789 390.58C301.849 389.323 309.541 387.903 317.259 386.592C327.108 384.921 336.058 376.854 338.245 367.452C339.99 359.946 339.02 352.562 336.611 345.267C336.022 343.486 335.403 341.712 334.539 339.173C376.149 344.234 400.857 324.043 422.478 297.076C422.222 300.264 421.772 302.585 421.896 304.884C422.516 316.344 422.808 327.839 424.125 339.246C425.75 353.323 435.759 362.679 449.789 369.339C446.163 392.821 443.655 416.497 435 439.173C429.112 454.6 422.142 469.73 416.342 485.179C409.251 504.065 391.848 509.833 371.327 511.86C352.831 513.688 335.372 510.038 318.586 503.71C313.032 501.616 307.691 499.106 302.282 496.739C288.191 490.572 278.247 476.133 280.186 462.685C281.848 451.156 285.108 439.8 287.453 428.336C289.996 415.912 292.299 403.451 294.789 390.58Z" fill="white"/>
<path d="M561.486 364.916C553.954 353.095 541.91 346.731 526.89 343.947C524.409 343.489 522.334 343.489 521.093 340.826C506.128 308.942 494.743 276.124 486.354 242.587C481.469 223.047 477.845 203.274 473.739 183.595C473.487 182.389 473.761 181.025 474.178 179.829C482.709 155.3 475.836 132.891 461.069 111.651C456.6 105.222 449.782 101.503 440.801 100.849C439.319 100.746 437.343 100.111 436.596 99.1578C430.634 91.5046 424.782 83.8888 421.346 74.9555C418.469 67.5172 414.67 60.0884 409.697 53.5192C391.636 29.6159 365.603 13.7489 334.576 4.5165C309.532 -2.94043 284.466 -1.52941 261.728 11.5529C256.93 14.3096 252.999 18.281 249.167 22.0562C248.311 22.8972 248.245 24.3175 248.157 25.7286C242.558 24.7287 234.466 27.0835 230.7 27.7096C214.44 30.4195 202.362 38.7828 191.701 48.9684C178.065 61.9946 168.557 77.0767 163.122 93.7567C154.964 118.791 151.144 144.348 156.491 170.185C158.291 178.923 162.968 187.23 166.394 195.892C156.348 200.985 152.077 206.816 150.375 217.6C145.555 248.231 173.179 279.759 204.8 285.357C208.478 286.011 209.587 287.412 210.267 290.375C210.981 293.533 212.375 296.832 214.505 299.467C220.346 306.643 233.214 309.437 238.583 298.43C238.649 298.28 239.132 298.28 239.989 298.084C239.44 312.017 239.824 325.893 238.1 339.574C236.398 353.17 232.578 366.57 230.03 378.456C229.141 378.961 228.263 379.465 227.395 379.951H570.292C567.569 374.877 564.637 369.859 561.486 364.916ZM233.247 292.458C231.996 294.486 229.679 297.888 228.438 297.701L218.403 287.422C219.655 287.169 220.281 286.945 220.917 286.936C225.232 286.908 229.558 286.917 234.74 286.917C234.235 288.936 234.191 290.898 233.247 292.458ZM324.365 326.061C294.446 319.445 272.037 303.242 252.176 284.104C230.382 263.117 215.68 238.69 203.998 212.638C198.289 199.901 204.898 189.22 207.742 177.044C210.959 178.24 213.276 178.96 215.45 179.922C220.094 181.978 222.608 181.39 225.397 177.427C226.1 176.446 226.824 175.474 227.527 174.493C232.215 167.943 240.142 166.13 248.036 169.643C243.897 181.277 249.266 190.547 258.006 198.798C262.727 203.256 269.282 204.237 273.542 201.891C277.648 199.639 278.877 194.827 276.155 188.931C274.058 184.417 271.225 180.147 268.513 175.418C273.179 173.783 273.223 170.494 269.896 168.12C259.235 160.523 248.816 151.908 232.852 155.225C237.441 148.422 242.426 141.787 246.433 134.742C248.519 131.069 249.53 127.453 255.678 128.247C256.578 128.369 258.357 127.229 258.566 126.434C258.796 125.612 257.896 124.182 256.985 123.612C255.393 122.631 253.405 122.108 251.912 121.519C253.515 106.699 255.107 92.0466 256.732 77.0954C259.455 82.9731 261.947 88.7199 264.758 94.3547C274.881 114.66 291.526 129.761 314.89 139.405C317.316 140.395 319.863 141.283 322.476 141.759C323.278 141.9 325.452 140.227 325.309 139.891C324.178 137.19 322.938 134.461 321.181 132.022C316.526 125.547 311.596 119.22 306.447 112.408C309.96 110.969 312.76 110.016 315.318 108.708C319.095 106.783 322.158 107.278 326.001 109.138C332.435 112.249 339.242 114.997 346.236 117.015C354.789 119.491 363.704 121.061 372.466 123.014C371.192 123.799 369.754 123.996 368.414 123.771C358.148 122.014 348.75 123.117 341.559 130.21C333.961 137.713 330.074 146.768 328.131 156.374C327.747 158.262 329.481 160.458 330.239 162.504C331.842 161.121 333.445 159.738 335.07 158.365C335.267 158.196 335.575 158.122 336.069 157.888C337.035 160.056 337.661 162.345 339 164.28C341.734 168.195 344.413 172.251 347.938 175.633C350.99 178.558 355.469 179.586 359.993 177.53C364.33 175.559 365.417 172.082 364.725 168.298C364.297 165.934 363.462 163.457 362.057 161.411C357.446 154.683 352.494 148.132 347.301 141.003C353.877 136.573 360.256 129.172 372.147 134.209C375.144 135.471 376.78 133.527 377.538 131.144C378.263 128.855 379.02 126.565 379.679 124.519H388.408C388.473 124.238 388.539 123.967 388.616 123.687C378.449 117.613 368.293 111.539 358.225 105.521C360.641 103.709 362.002 102.681 363.375 101.653C362.002 100.503 360.805 99.1297 359.224 98.2514C357.555 97.3263 355.371 97.0833 353.669 96.1862C350.057 94.2706 346.082 92.5418 343.195 89.9721C342.635 89.4768 342.086 88.9723 341.548 88.4677C341.185 88.1406 340.823 87.8042 340.472 87.4678C339.923 86.9538 339.374 86.4305 338.836 85.9072C338.133 85.2251 337.419 84.5242 336.728 83.8327C335.355 82.4685 333.994 81.0948 332.643 79.7118C332.643 79.7025 332.632 79.7025 332.632 79.7025C332.27 79.3194 331.897 78.9456 331.534 78.5718C331.534 78.5718 331.534 78.5625 331.523 78.5625C330.579 77.5906 329.635 76.6281 328.669 75.6656C328.647 75.6376 328.625 75.6096 328.592 75.5816C327.834 74.8153 327.066 74.0584 326.297 73.3015C324.947 71.9839 323.212 70.9467 321.258 69.4796C320.621 70.7691 319.841 71.6195 320.072 71.9839C324.859 79.1698 329.767 86.2997 334.62 93.4016C327.867 95.8685 321.466 95.8124 315.549 90.5048C307.643 83.4123 299.266 76.7122 290.988 69.9281C287.837 67.349 284.521 64.8914 281.029 62.6674C280.14 62.1068 278.087 62.3497 276.945 62.845C276.418 63.0786 276.55 64.8914 276.857 65.8726C277.582 68.1994 278.987 70.4047 279.415 72.7595C282.029 87.3557 289.538 100.475 297.103 113.436C300.737 119.66 306.655 124.911 311.596 130.583C306.996 127.556 301.879 124.939 297.982 121.37C282.852 107.502 271.785 91.3925 263.693 73.8061C261.102 68.1807 258.818 62.4525 256.227 56.8271C255.832 55.9674 254.525 55.4161 253.636 54.7246C253.076 55.5282 252.143 56.2945 252.011 57.1448C250.507 66.5361 249.036 75.9367 247.74 85.3466C246.236 96.3451 244.951 107.362 243.425 118.361C243.173 120.23 243.304 122.902 239.33 122.416C239.22 121.846 239.077 121.435 239.088 121.024C239.22 109.082 239.396 97.1394 239.473 85.1971C239.483 82.8329 239.319 80.3566 234.784 78.9082C230.524 90.0375 226.067 100.709 222.367 111.558C214.725 133.938 207.654 156.458 199.969 178.829C198.19 183.987 194.852 188.744 192.228 193.696C191.591 193.547 190.955 193.397 190.318 193.248C189.538 187.566 188.276 181.913 188.1 176.222C187.727 164.009 187.935 151.777 187.848 139.554C187.826 137.414 187.54 135.284 187.376 133.153C186.717 133.134 186.047 133.116 185.388 133.097C179.646 142.89 179.986 153.711 179.942 164.28C179.899 174.961 181.084 185.651 181.743 196.565C179.822 195.986 176.297 195.855 175.144 194.378C172.773 191.341 171.071 187.706 170.138 184.118C162.848 156.057 164.011 128.042 171.927 100.251C177.714 79.9641 187.661 61.3031 205.415 46.3613C215.23 38.1007 233.017 29.0739 247.477 28.5506C248.64 28.5132 249.76 27.8217 251.747 27.1489C251.473 26.9433 251.177 26.7565 250.858 26.5976C251.912 26.2799 252.933 25.9341 253.866 25.4482C261.31 21.5703 268.129 16.4027 276.111 13.7769C300.419 5.75932 324.255 7.95529 346.917 18.7856C355.019 22.6542 362.968 26.7938 370.72 31.1577C400.485 47.9498 416.284 72.9464 426.682 101.008C427.044 101.989 426.747 103.746 425.946 104.344C423.19 106.372 420.061 108.054 417.206 109.792C407.347 91.0841 392.69 75.5255 376.605 60.8639C374.541 58.9763 371.543 57.827 368.974 56.3318C368.447 56.8178 367.92 57.3037 367.382 57.7896C368.502 59.4062 369.479 61.1069 370.753 62.6207C377.999 71.3018 385.816 79.6745 392.47 88.6639C397.696 95.7377 401.55 103.54 406.008 111.025C404.097 110.455 401.978 110.156 400.342 109.24C395.874 106.736 391.405 104.241 386.947 101.737C371.949 93.3455 356.974 84.9074 341.965 76.516C340.263 75.5535 338.55 74.6004 336.838 73.6472C335.63 72.9838 333.818 73.1146 332.281 72.8717C332.325 73.124 332.336 73.3856 332.347 73.6472C332.413 74.8994 332.292 76.2637 333.039 77.0673C335.202 79.4221 337.661 81.7396 340.516 83.4403C341.91 84.272 343.304 85.1036 344.699 85.9446C348.728 88.3462 352.747 90.7477 356.776 93.1492C360.783 95.5321 364.802 97.915 368.82 100.288C372.806 102.653 376.791 104.998 380.788 107.353C380.821 107.372 380.854 107.39 380.876 107.4C388.924 112.147 396.982 116.856 405.074 121.538C408.664 123.622 410.893 125.874 412.178 129.406C425.803 166.896 430.799 205.05 425.101 244.11C422.191 264.014 417.755 283.675 402.856 299.822C378.318 326.416 357.413 333.359 324.365 326.061Z" fill="white"/>
<path d="M642.92 638.411C642.031 642.093 641.196 646.092 634.707 645.083C633.873 644.952 632.709 645.971 631.809 646.578C588.045 676.135 538.44 686.825 483.346 680.153C462.847 677.667 442.492 674.359 421.664 674.21C426.165 670.388 431.084 667.22 436.332 664.566C481.743 641.653 552.318 657.455 595.204 627.618C601.286 623.385 606.677 618.217 609.641 612.022C615.702 599.323 610.75 584.942 605.349 572.027C591.229 538.275 574.266 505.448 557.105 472.733C546.499 452.52 534.543 431.084 512.178 419.787C500.342 413.806 484.806 412.517 471.752 415.778C468.107 416.694 464.659 417.955 461.541 419.581C456.271 422.3 451.934 426.029 449.189 430.748C448.355 432.159 447.674 433.654 447.147 435.242C445.05 430.495 442.909 425.767 440.702 421.057C429.119 396.276 416.021 372.008 401.462 348.385C397.081 341.274 389.835 333.228 381.359 332.509C379.602 332.35 377.79 332.518 375.946 333.069C380.667 326.397 385.201 319.595 389.428 312.661C401.802 292.421 411.596 271.087 415.691 248.623C422.388 211.834 413.319 173.876 396.016 139.685C393.425 134.554 390.647 129.499 387.705 124.518C387.287 123.799 386.859 123.089 386.431 122.379C382.577 115.949 378.46 109.642 374.145 103.428C371.148 99.1013 368.041 94.8309 364.857 90.6072C364.286 89.8503 363.704 89.1027 363.1 88.3458C352.878 75.5158 338.385 62.882 331.282 48.9119C325.441 37.4182 323.673 24.0742 325.99 11.3657C326.517 8.46886 327.263 5.60944 328.218 2.81543C330.337 3.32003 332.457 3.8807 334.576 4.51612C365.603 13.7485 391.635 29.6155 409.696 53.5188C414.67 60.088 418.469 67.5169 421.345 74.9551C424.782 83.8885 430.634 91.5043 436.596 99.1574C437.342 100.111 439.319 100.746 440.801 100.849C449.782 101.503 456.6 105.222 461.069 111.651C475.836 132.891 482.709 155.299 474.178 179.829C473.761 181.025 473.486 182.389 473.739 183.594C477.845 203.274 481.468 223.047 486.354 242.586C494.742 276.124 506.128 308.942 521.093 340.825C522.334 343.489 524.409 343.488 526.89 343.946C541.91 346.731 553.954 353.095 561.486 364.915C564.637 369.859 567.569 374.877 570.292 379.951C585.739 408.676 595.017 439.242 605.217 469.574C616.086 501.878 622.158 535.023 630.557 567.766C634.048 581.391 638.561 594.828 642.239 608.415C644.929 618.32 645.324 628.394 642.92 638.411Z" fill="#ED2E3F"/>
<path d="M425.946 104.345C423.19 106.373 420.061 108.055 417.206 109.793C407.347 91.0852 392.689 75.5265 376.605 60.865C374.54 58.9774 371.543 57.828 368.974 56.3329C368.447 56.8188 367.92 57.3047 367.382 57.7906C368.502 59.4072 369.479 61.108 370.753 62.6218C377.999 71.3028 385.816 79.6755 392.47 88.6649C397.696 95.7387 401.55 103.541 406.007 111.026C404.097 110.456 401.978 110.157 400.342 109.242C395.873 106.737 391.405 104.242 386.947 101.738C378.68 97.0937 370.412 92.4588 362.145 87.8146C354.338 83.432 346.642 78.3673 338.287 74.8444C336.739 74.1996 335.092 73.6389 333.368 73.5922C331.644 73.5455 329.822 74.0968 328.811 75.2836C328.735 75.377 328.658 75.4798 328.592 75.5826C327.834 74.8163 327.066 74.0594 326.297 73.3025C324.947 71.985 323.212 70.9477 321.258 69.4806C320.621 70.7702 319.841 71.6205 320.072 71.985C324.859 79.1709 329.767 86.3008 334.62 93.4026C327.867 95.8696 321.466 95.8135 315.548 90.5058C307.643 83.4133 299.266 76.7133 290.988 69.9292C287.836 67.3501 284.521 64.8925 281.029 62.6685C280.14 62.1078 278.087 62.3508 276.945 62.846C276.418 63.0796 276.55 64.8925 276.857 65.8737C277.582 68.2004 278.987 70.4057 279.415 72.7606C282.028 87.3567 289.538 100.476 297.103 113.437C300.737 119.661 306.655 124.912 311.596 130.584C306.995 127.557 301.879 124.94 297.981 121.371C282.852 107.503 271.785 91.3935 263.693 73.8071C261.102 68.1817 258.818 62.4535 256.227 56.8282C255.832 55.9685 254.525 55.4171 253.636 54.7256C253.076 55.5293 252.143 56.2955 252.011 57.1459C250.507 66.5371 249.035 75.9377 247.74 85.3476C246.236 96.3461 244.951 107.363 243.425 118.362C243.172 120.231 243.304 122.903 239.33 122.417C239.22 121.847 239.077 121.436 239.088 121.025C239.22 109.083 239.396 97.1404 239.472 85.1981C239.483 82.834 239.319 80.3576 234.784 78.9092C230.524 90.0386 226.067 100.71 222.367 111.559C214.725 133.939 207.654 156.459 199.969 178.83C198.19 183.988 194.852 188.745 192.228 193.697C191.591 193.548 190.955 193.398 190.318 193.249C189.538 187.567 188.276 181.914 188.1 176.223C187.727 164.01 187.935 151.778 187.847 139.555C187.825 137.415 187.54 135.285 187.375 133.154C186.717 133.135 186.047 133.117 185.388 133.098C179.646 142.891 179.986 153.712 179.942 164.281C179.898 174.962 181.084 185.652 181.743 196.566C179.822 195.987 176.297 195.856 175.144 194.379C172.773 191.342 171.071 187.707 170.138 184.119C162.847 156.058 164.011 128.043 171.927 100.252C177.713 79.9652 187.661 61.3042 205.414 46.3623C215.23 38.1018 233.017 29.0749 247.476 28.5516C248.64 28.5143 249.76 27.8228 251.747 27.15C251.473 26.9444 251.176 26.7575 250.858 26.5986C251.912 26.2809 252.933 25.9352 253.866 25.4493C261.31 21.5713 268.128 16.4038 276.11 13.778C300.419 5.76038 324.255 7.95634 346.916 18.7866C355.019 22.6553 362.968 26.7949 370.72 31.1588C400.485 47.9509 416.284 72.9474 426.681 101.009C427.044 101.99 426.747 103.747 425.946 104.345Z" fill="black"/>
<path d="M366.499 241.807C359.867 254.749 349.498 262.7 336.69 268.637C330.005 271.735 322.777 273.368 315.207 271.929C312.629 271.439 308.925 269.874 308.371 268.177C307.29 264.866 311.377 264.375 314.283 263.71C332.565 259.525 346.53 250.315 357.174 237.175C359.061 234.846 359.026 232.808 358.042 230.009C355.649 223.194 353.941 216.186 352.432 209.182C352.132 207.792 353.95 206.073 354.791 204.505C355.768 205.82 356.87 207.08 357.703 208.459C363.162 217.494 368.047 226.817 374.16 235.516C378.443 241.609 385.375 244.969 394.399 243.679C395.338 243.544 397.114 244.068 397.322 244.612C397.672 245.528 397.501 247.315 396.804 247.667C394.131 249.017 391.25 250.615 388.287 250.894C381.113 251.567 374.545 249.795 369.316 245.326C368.159 244.339 367.426 242.989 366.499 241.807Z" fill="black"/>
<path d="M295.532 197.179C293.625 187.077 291.843 177.602 290.038 168.13C289.796 166.858 289.142 165.59 289.215 164.343C289.273 163.338 289.865 161.866 290.726 161.524C291.587 161.182 293.581 161.655 294.2 162.343C296.442 164.834 298.787 167.391 300.248 170.236C308.07 185.461 309.735 201.235 305.373 217.455C304.469 220.814 303.518 224.17 302.827 227.562C301.911 232.061 303.529 233.98 308.875 233.687C312.431 233.493 315.933 232.144 319.377 231.111C321.1 230.594 322.549 229.402 324.277 228.913C327.504 228.001 329.141 229.485 328.286 232.317C326.235 239.11 311.391 245.766 301.864 244.166C292.29 242.558 287.436 235.796 289.336 226.449C291.339 216.578 293.503 206.728 295.532 197.179Z" fill="black"/>
<path d="M235.463 210.854C237.021 208.487 238.582 205.61 240.754 203.118C241.433 202.34 244.078 202.05 245.239 202.539C246.404 203.029 247.621 204.855 247.458 205.95C246.83 210.181 245.919 214.414 244.595 218.525C243.795 221.009 239.994 221.17 238.33 218.683C236.983 216.672 236.625 214.182 235.463 210.854Z" fill="black"/>
<path d="M390.157 175.778C385.041 175.02 381.459 174.782 378.134 173.87C376.527 173.43 374.331 171.727 374.324 170.587C374.315 169.126 375.844 167.082 377.409 166.299C381.588 164.21 391.495 168.135 392.332 172.225C392.578 173.429 390.704 174.945 390.157 175.778Z" fill="black"/>
<path d="M221.502 207.492C224.28 204.153 226.522 200.636 229.704 197.917C231.962 195.988 235.579 196.176 237.704 198.676C240 201.377 237.1 202.583 235.03 204.089C232.638 205.83 230.65 207.968 228.32 209.777C227.341 210.537 225.533 211.587 224.812 211.283C223.605 210.775 222.967 209.287 221.502 207.492Z" fill="black"/>
<path d="M249.641 212.292C250.143 210.466 250.101 209.132 250.839 208.296C251.827 207.178 253.418 206.444 254.751 205.546C255.465 206.71 256.575 207.82 256.809 209.05C257.319 211.726 257.491 214.461 257.565 217.175C257.588 218.024 256.959 219.553 256.449 219.61C255.302 219.738 253.399 219.452 252.951 218.78C251.493 216.593 250.55 214.157 249.641 212.292Z" fill="black"/>
<path d="M357.292 268.829C355.554 273.96 347.882 279.639 343.779 279.634C342.789 279.633 341.292 279.061 340.954 278.406C340.624 277.764 341.158 276.212 341.859 275.868C346.553 273.567 351.393 271.482 357.292 268.829Z" fill="black"/>
<path d="M391.394 158.103C387.985 158.712 384.594 159.421 381.156 159.865C380.217 159.987 378.848 159.528 378.22 158.925C377.778 158.501 377.973 156.81 378.37 156.667C380.999 155.723 383.731 154.558 386.484 154.447C388.364 154.371 390.333 155.887 392.263 156.691C391.975 157.163 391.685 157.633 391.394 158.103Z" fill="black"/>
<path d="M387.825 144.24C388.751 144.793 390.255 145.692 391.759 146.591C390.535 147.5 389.362 148.467 388.066 149.295C387.416 149.71 386.545 150.092 385.769 150.101C383.732 150.124 380.277 150.46 379.904 149.734C378.49 146.988 381.198 145.737 383.832 144.886C384.755 144.588 385.797 144.556 387.825 144.24Z" fill="black"/>
<path d="M125.645 335.303C125.505 336.303 125.33 337.301 125.233 338.303C124.44 346.551 118.786 349.37 110.471 345.135C105.296 342.499 100.557 339.143 96.0027 335.742C86.5428 328.677 76.6779 322.173 64.8466 318.245C61.5747 317.159 58.0327 316.437 54.5457 316.147C52.9229 316.013 51.1367 317.309 49.4239 317.957C50.4889 319.237 51.2256 321.024 52.6781 321.707C58.7311 324.553 65.3933 326.568 71.0872 329.831C77.9142 333.743 83.8793 338.727 90.4076 343.038C96.3793 346.983 102.504 350.779 108.784 354.356C110.48 355.322 112.979 355.297 115.128 355.649C117.176 355.983 120.543 355.679 121.066 356.594C122.641 359.346 123.659 362.532 123.848 365.595C124.014 368.265 121.29 369.83 118.246 369.299C113.154 368.411 107.769 367.693 103.242 365.696C89.5951 359.675 76.3089 353.064 62.8658 346.706C59.0274 344.89 55.2088 343.021 51.2222 341.471C50.188 341.069 48.5586 341.777 47.2016 341.976C47.4618 343.031 47.3619 344.323 48.0602 345.087C49.2833 346.425 50.9258 347.516 52.5145 348.578C68.0009 358.932 84.4217 367.985 102.629 374.54C103.054 374.694 103.391 375.023 104.201 375.551C97.2258 377.505 90.6118 376.905 84.044 375.86C77.5662 374.828 71.164 373.445 64.6785 372.456C63.0964 372.215 61.3156 372.913 59.627 373.18C60.2649 374.674 60.3824 376.72 61.6274 377.572C69.1055 382.683 78.1656 384.731 87.385 385.899C91.8031 386.458 93.4806 387.679 94.9475 391.513C105.621 419.398 116.102 447.368 128.178 474.822C136.372 493.45 147.023 511.298 156.679 529.455C157.586 531.16 159.242 532.578 160.55 534.129C161.27 533.976 161.989 533.823 162.707 533.67C162.509 531.185 162.901 528.533 162.006 526.247C159.123 518.879 155.818 511.631 152.577 504.368C149.035 496.431 145.255 488.569 141.896 480.577C141.287 479.126 141.468 476.715 142.523 475.584C160.5 456.312 178.361 436.95 196.954 418.113C204.512 410.455 213.367 403.617 222.322 397.092C235.469 387.513 251.414 387.668 268.689 388.901C265.758 399.543 263.213 409.772 260.106 419.876C251.981 446.295 238.953 471.128 225.998 496.001C221.701 504.252 218.75 513.008 215.14 521.519C214.695 522.569 214.115 523.614 213.373 524.529C204.248 535.761 194.906 546.87 186.027 558.24C183.197 561.862 178.245 564.911 179.674 570.306C179.794 570.757 178.807 571.485 178.227 571.997C166.511 582.363 154.81 592.742 142.997 603.026C142.058 603.844 140.352 604.285 138.942 604.409C120.247 606.062 105.176 600.616 95.334 586.832C90.5404 580.12 86.6537 572.8 83.5016 565.402C72.4508 539.468 65.8644 512.604 61.1641 485.341C56.0609 455.745 50.6041 426.191 44.9695 396.665C43.3841 388.357 39.257 380.482 39.3547 371.81C39.3876 368.921 38.2204 365.671 36.4473 363.182C30.5799 354.946 31.2836 346.099 32.2279 337.181C33.0173 329.732 32.6528 321.934 35.2396 314.945C39.3634 303.801 38.4224 292.285 40.9598 281.114C43.8956 268.189 50.4998 265.08 64.2921 270.917C81.5572 278.224 96.5099 288.531 109.351 300.66C115.201 306.185 119.086 313.294 123.358 319.919C125.333 322.982 127.383 327.351 123.115 329.587C121.441 330.463 116.221 327.745 113.591 325.739C106.548 320.367 100.207 314.335 93.2633 308.863C84.9377 302.303 75.1781 297.726 64.0714 295.558C61.3595 295.028 58.384 295.479 55.5294 295.479C55.3987 295.926 55.2682 296.372 55.1375 296.82C56.085 297.428 56.9315 298.358 57.9932 298.599C78.1326 303.165 92.2839 314.781 105.513 327.556C107.842 329.805 110.443 331.949 113.307 333.674C116.984 335.889 121.153 337.088 125.718 335.384L125.645 335.303Z" fill="white"/>
<path d="M441.74 217.889C451.689 232.408 459.536 234.566 469.911 225.824C477.484 267.118 488.4 307.445 512.398 344.607C492.484 350.1 474.723 359.363 454.062 361.649C450.767 362.014 448.297 361.84 446.923 359.206C444.077 353.752 440.312 348.419 438.914 342.686C433.929 322.228 434.621 301.457 436.102 280.741C437.56 260.353 439.441 239.987 441.152 219.613C441.185 219.214 441.412 218.827 441.74 217.889Z" fill="black"/>
<path d="M452.722 577.96C445.015 586.775 437.26 595.56 429.621 604.417C425.813 608.832 421.255 611.416 414.42 611.54C408.044 611.656 401.716 613.099 395.328 613.558C392.988 613.727 390.162 613.255 388.189 612.211C367.481 601.252 345.118 599.864 321.83 603.571C302.24 606.689 282.667 609.884 263.088 613.05C262.425 613.157 261.771 613.313 261.113 613.443C251.036 615.429 249.169 618.25 252.359 626.694C252.606 627.347 252.896 627.987 252.673 628.955C225.16 614.132 205.589 593.212 188.497 569.154C198.413 571.156 207.146 573.28 216.038 574.654C272.209 583.337 328.712 589.401 385.945 587.217C401.041 586.641 416.064 584.03 431.029 581.884C438.039 580.879 444.829 578.759 451.719 577.145C452.053 577.416 452.388 577.687 452.722 577.96Z" fill="white"/>
<path d="M244.347 376.802C254.096 351.998 253.311 325.92 251.369 298.909C254.414 301.319 256.889 303.174 259.228 305.145C276.44 319.653 296.204 330.566 319.588 336.486C320.89 336.816 322.627 338.067 322.817 339.074C324.676 348.944 325.263 358.835 321.348 368.494C317.867 377.08 306.095 383.008 295.421 381.901C278.525 380.151 261.611 378.52 244.347 376.802Z" fill="black"/>
<path d="M207.334 244.326C211.651 250.922 215.967 257.519 219.522 262.951C215.72 267.121 212.384 270.782 208.573 274.962C197.98 272.842 187.716 268.228 179.701 260.795C169.024 250.892 160.468 239.752 160.178 225.696C160.065 220.203 161.014 214.514 162.77 209.224C164.629 203.621 169.136 201.693 176.001 201.868C184.644 202.089 190.127 205.544 192.93 212.422C194.756 216.902 196.707 221.345 198.585 225.809C198.624 225.901 198.466 226.054 198.302 226.36C193.556 223.745 188.942 220.974 184.057 218.608C181.631 217.433 178.747 216.587 175.991 216.393C174.437 216.284 171.842 217.53 171.354 218.672C170.933 219.658 172.423 221.829 173.765 222.668C180.704 227.006 187.822 231.141 194.976 235.222C197.571 236.701 197.712 238.378 197.734 240.959C197.772 245.408 198.853 249.961 200.423 254.224C200.891 255.493 204.452 255.938 206.595 256.76C206.734 255.088 207.053 253.411 206.971 251.747C206.853 249.342 206.442 246.947 206.157 244.548C206.547 244.474 206.941 244.4 207.334 244.326Z" fill="white"/>
<path d="M445.089 202.501C445.317 200.076 445.539 197.65 445.776 195.226C445.922 193.735 446.091 192.244 446.25 190.754C444.395 190.754 442.54 190.754 440.266 190.754C438.804 182.192 437.289 173.318 435.774 164.444C436.156 164.273 436.537 164.102 436.919 163.931C439.105 167.183 441.062 170.573 443.575 173.63C444.826 175.153 447.1 176.068 448.912 177.258C449.56 175.464 451.057 173.539 450.708 171.9C449.121 164.461 447.112 157.075 437.23 154.033C436.499 153.808 435.646 152.365 435.84 151.697C438.181 143.644 440.502 135.578 443.342 127.649C444.001 125.808 446.697 124.539 448.25 122.868C448.993 122.067 449.957 120.598 449.579 120.043C448.95 119.118 447.15 117.997 446.151 118.18C443.774 118.614 440.724 119.242 439.471 120.725C436.09 124.727 433.289 129.126 430.707 133.557C429.563 135.519 429.505 137.94 428.953 140.152C428.439 140.223 427.925 140.293 427.41 140.362C426.459 135.784 425.667 131.176 424.47 126.645C424.061 125.101 422.97 123.431 421.597 122.38C418.114 119.71 418.412 117.64 422.251 115.617C423.83 114.786 425.284 113.778 426.887 112.984C437.916 107.52 446.561 109.199 451.983 119.055C456.894 127.984 461.437 137.286 464.101 146.836C469.598 166.549 463.3 184.402 449.224 200.451C448.429 201.357 447.833 202.391 447.143 203.365C446.458 203.076 445.773 202.788 445.089 202.501Z" fill="#ED2E3F"/>
<path d="M125.709 335.38C126.972 334.687 128.234 333.994 129 333.574C149.913 345.726 170.672 357.71 191.308 369.844C195.576 372.354 199.392 375.422 203.014 377.953C195.899 387.926 189.64 390.519 177.315 387.71C170.335 386.119 162.874 383.565 157.604 379.562C147.599 371.962 139.024 363.001 129.831 354.625C127.758 352.737 127.669 350.934 128.765 348.434C131.488 342.226 130.37 338.507 125.649 335.311C125.642 335.302 125.709 335.38 125.709 335.38ZM187.53 384.881C188.467 384.816 189.509 385.007 190.103 384.653C191.759 383.665 193.23 382.451 194.773 381.326C193.285 380.512 191.887 379.526 190.292 378.916C185.081 376.926 179.273 375.726 174.644 373.039C163.109 366.343 152.142 358.941 140.822 351.97C139.316 351.043 137.078 350.973 135.179 350.507C135.398 352.088 135.088 353.919 135.923 355.21C140.997 363.046 148.577 368.933 157.028 374.071C166.245 379.674 176.476 383.198 187.53 384.881Z" fill="white"/>
<path d="M273.84 572.545C265.24 571.53 256.518 571.974 249.462 569.27C241.811 566.336 236.241 560.064 233.319 552.882C232.942 551.958 233.843 550.308 234.735 549.416C240.065 544.091 246.278 539.776 254.498 537.727C254.643 540.477 254.054 543.322 255.144 545.579C256.027 547.408 258.93 548.531 260.937 549.967C262.343 548.232 264.72 546.576 264.923 544.746C265.215 542.109 263.928 539.345 263.204 536.144C265.394 536.322 268.378 536.257 271.17 536.851C278.364 538.379 280.169 540.515 279.082 546.679C277.604 555.055 275.718 563.378 273.84 572.545ZM265.346 563.103C265.419 558.883 263.647 556.453 260.425 556.461C256.518 556.47 255.211 558.716 255.157 561.61C255.091 565.173 258.156 568.827 261.12 568.638C265.439 568.364 265.108 565.402 265.346 563.103ZM240.35 551.415C243.129 553.818 245.006 555.439 246.881 557.06C248.19 555.667 250.344 554.383 250.618 552.855C251.077 550.298 250.181 547.311 246.209 547.426C244.605 547.473 243.08 549.473 240.35 551.415ZM264.294 552.062C267.322 554.612 269.118 556.125 270.916 557.638C272.357 556.325 275.054 554.93 274.947 553.717C274.786 551.886 273.052 549.663 271.2 548.66C270.378 548.215 267.632 550.346 264.294 552.062Z" fill="white"/>
<path d="M8.36971 227.723C10.7918 226.113 13.2357 224.768 15.2779 223.073C20.1967 218.989 20.8652 218.734 25.1691 223.101C36.6524 234.75 47.891 246.575 59.2019 258.305C54.3512 259.039 49.8541 259.796 45.3218 260.343C44.3655 260.458 42.9481 260.066 42.3036 259.469C31.3517 249.313 20.4887 239.089 8.36971 227.723Z" fill="white"/>
<path d="M315.167 575.362C304.115 574.734 294.476 574.187 285.011 573.649C286.812 567.447 288.546 561.944 289.961 556.381C290.575 553.963 292.111 553.405 294.635 553.679C301.77 554.455 307.679 556.896 310.488 562.888C312.214 566.571 313.352 570.454 315.167 575.362ZM303.38 566.687C300.69 564.439 299.11 562.014 297.005 561.62C293.818 561.024 292.411 563.551 292.499 566.061C292.597 568.837 293.325 572.088 297.308 571.907C299.133 571.826 300.788 569.029 303.38 566.687Z" fill="white"/>
<path d="M317.056 553.593C322.33 551.218 328.767 549.303 335.858 550.214C340.948 550.867 341.923 554.607 343.019 558.152C343.987 561.285 342.552 562.818 339.398 564.617C335.166 567.031 331.809 570.545 328.02 573.536C327.028 574.319 325.824 574.909 324.717 575.588C324.135 574.58 323.352 573.621 323.007 572.557C321.063 566.567 319.225 560.55 317.056 553.593ZM335.619 558.276C333.149 556.684 331.643 555.713 330.138 554.742C328.864 556.353 326.823 557.886 326.58 559.602C326.409 560.8 328.702 562.251 329.894 563.589C331.533 562.068 333.173 560.547 335.619 558.276Z" fill="white"/>
<path d="M232.703 155.253C224.25 159.013 218.626 164.559 217.845 173.07C215.054 173.07 212.751 173.07 209.614 173.07C210.336 171.079 210.892 169.371 211.575 167.699C214.349 160.907 217.314 154.168 219.907 147.326C221.644 142.743 225.565 140.107 230.919 137.049C229.976 141.672 229.125 145.401 228.479 149.157C227.968 152.117 228.539 154.687 232.78 155.328C232.784 155.33 232.703 155.253 232.703 155.253Z" fill="white"/>
<path d="M401.363 575.646C397.22 576.767 394.53 575.103 394.378 570.411C394.35 569.578 393.939 568.721 393.541 567.936C392.187 565.267 389.571 562.699 394.849 560.642C401.537 558.035 407.119 557.967 409.319 561.912C411.181 565.251 411.45 569.268 412.096 573.026C412.189 573.572 410.552 574.739 409.535 574.934C407.246 575.371 404.846 575.377 401.363 575.646Z" fill="white"/>
<path d="M318.444 544.206C317.061 545.3 315.948 546.13 314.907 547.021C313.848 547.927 312.86 548.894 312.448 549.274C305.498 547.966 299.071 546.755 291.93 545.412C291.828 544.203 291.497 542.107 291.552 540.021C291.573 539.197 292.203 538.093 292.979 537.621C298.032 534.549 306.498 535.004 311.255 538.537C313.645 540.311 315.915 542.205 318.444 544.206Z" fill="white"/>
<path d="M212.933 537.072C213.047 538.178 213.027 538.75 213.175 539.288C215.094 546.276 214.554 552.305 205.597 555.841C203.681 556.598 202.461 558.776 201.126 560.42C199.075 562.944 199.15 562.989 195.067 561.715C200.892 553.679 206.7 545.67 212.933 537.072Z" fill="white"/>
<path d="M235.403 568.045C225.578 566.606 217.035 565.355 208.493 564.103C208.349 563.637 208.204 563.171 208.06 562.705C211.852 561.121 215.505 559.18 219.477 558.055C223.195 557.002 226.599 557.687 228.793 561.207C230.171 563.415 232.559 565.167 235.403 568.045Z" fill="white"/>
<path d="M370.312 569.451C381.057 565.72 386.722 567.798 388.181 575.396C378.077 578.426 374.09 577.1 370.312 569.451Z" fill="white"/>
<path d="M291.692 84.1426C297.426 89.3746 303.158 94.6066 309.325 100.235C307.38 101.407 305.151 102.749 301.674 104.843C298.242 97.6575 295.02 90.9136 291.799 84.1697L291.692 84.1426Z" fill="white"/>
<path d="M217.141 277.231C218.655 273.192 219.887 269.908 221.41 265.846C222.798 267.401 223.437 268.045 223.982 268.741C226.583 272.056 229.159 275.385 232.398 279.549C227.005 278.73 222.662 278.069 217.141 277.231Z" fill="white"/>
<path d="M362.442 576.109C353.738 576.109 345.587 576.109 336.942 576.109C344.104 570.134 354.154 570.196 362.442 576.109Z" fill="white"/>
<path d="M227.966 126.596C229.245 122.963 230.511 119.326 231.812 115.699C232.085 114.938 232.487 114.21 233.259 113.589C232.145 118.134 235.693 123.793 227.966 126.596Z" fill="white"/>
<path d="M420.93 572.924C423.986 572.5 427.043 572.075 430.098 571.651C430.186 572.138 430.274 572.626 430.363 573.113C427.265 573.437 424.165 573.76 421.067 574.084C421.021 573.699 420.975 573.311 420.93 572.924Z" fill="white"/>
<path d="M467.775 194.973C467.775 196.958 467.775 198.725 467.769 200.494C464.28 198.174 464.28 198.173 467.775 194.973Z" fill="white"/>
<path d="M238.727 133.834C238.581 134.044 238.429 134.252 238.279 134.458C238.135 134.186 237.903 133.92 237.883 133.641C237.872 133.498 238.237 133.333 238.431 133.178C238.529 133.397 238.626 133.614 238.727 133.834Z" fill="white"/>
<path d="M311.847 130.866L311.85 131.112C311.85 131.112 311.935 130.81 311.942 130.806C311.95 130.803 311.847 130.866 311.847 130.866Z" fill="white"/>
<path d="M291.793 84.1678L291.474 84.2113C291.474 84.2113 291.675 84.1508 291.682 84.146C291.688 84.1404 291.793 84.1678 291.793 84.1678Z" fill="white"/>
<path d="M406.083 111.156L406.228 111.191L406.183 111.072L406.083 111.156Z" fill="white"/>
<path d="M353.468 110.114L353.461 110.294C353.461 110.294 353.544 110.053 353.551 110.047C353.557 110.042 353.468 110.114 353.468 110.114Z" fill="white"/>
<path d="M187.533 384.881C176.478 383.198 166.248 379.675 157.034 374.072C148.583 368.933 141.002 363.047 135.929 355.211C135.093 353.918 135.403 352.089 135.185 350.508C137.083 350.974 139.321 351.043 140.828 351.971C152.149 358.942 163.115 366.344 174.65 373.04C179.279 375.727 185.087 376.927 190.298 378.917C191.893 379.526 193.291 380.513 194.779 381.327C193.235 382.452 191.765 383.665 190.109 384.653C189.514 385.007 188.471 384.817 187.533 384.881Z" fill="black"/>
<path d="M265.348 563.104C265.111 565.403 265.443 568.365 261.123 568.639C258.159 568.827 255.094 565.174 255.16 561.611C255.213 558.717 256.522 556.472 260.428 556.462C263.65 556.455 265.422 558.884 265.348 563.104Z" fill="black"/>
<path d="M240.35 551.414C243.08 549.472 244.605 547.472 246.209 547.426C250.181 547.311 251.077 550.299 250.618 552.855C250.344 554.383 248.19 555.666 246.881 557.06C245.005 555.438 243.129 553.817 240.35 551.414Z" fill="black"/>
<path d="M264.295 552.062C267.633 550.347 270.379 548.216 271.201 548.661C273.053 549.663 274.787 551.887 274.948 553.717C275.056 554.932 272.358 556.325 270.917 557.638C269.119 556.125 267.323 554.612 264.295 552.062Z" fill="black"/>
<path d="M303.381 566.684C300.79 569.027 299.134 571.823 297.309 571.906C293.327 572.086 292.598 568.834 292.501 566.06C292.413 563.548 293.819 561.021 297.006 561.618C299.111 562.012 300.691 564.437 303.381 566.684Z" fill="black"/>
<path d="M335.621 558.275C333.173 560.546 331.535 562.067 329.896 563.589C328.704 562.251 326.412 560.799 326.581 559.601C326.825 557.885 328.866 556.352 330.14 554.741C331.645 555.712 333.151 556.683 335.621 558.275Z" fill="black"/>
<path d="M51.2212 341.47C50.1892 341.068 48.5532 341.778 47.2028 341.974C47.4663 343.03 47.3565 344.32 48.0592 345.086C49.2889 346.422 50.9247 347.516 52.5167 348.581C54.7895 350.104 57.0842 351.599 59.4118 353.057V345.067C56.7219 343.797 54.01 342.554 51.2212 341.47ZM54.5479 316.146C52.9229 316.015 51.1334 317.305 49.4206 317.959C50.4856 319.239 51.2212 321.024 52.6815 321.706C54.8663 322.743 57.1391 323.659 59.4118 324.566V316.828C57.7978 316.511 56.1619 316.277 54.5479 316.146ZM642.24 608.415C638.562 594.828 634.05 581.39 630.558 567.766C622.159 535.023 616.087 501.878 605.218 469.574C595.018 439.241 585.74 408.676 570.293 379.951C567.57 374.876 564.638 369.858 561.487 364.915C553.955 353.094 541.911 346.731 526.891 343.946C524.41 343.488 522.335 343.488 521.094 340.825C506.129 308.942 494.743 276.124 486.355 242.586C481.469 223.047 477.846 203.274 473.74 183.594C473.487 182.389 473.762 181.024 474.179 179.828C482.71 155.299 475.837 132.891 461.07 111.651C456.601 105.222 449.783 101.503 440.802 100.849C439.32 100.746 437.343 100.11 436.597 99.1572C430.635 91.504 424.783 83.8882 421.346 74.9548C418.47 67.5166 414.671 60.0877 409.697 53.5185C391.636 29.6153 365.604 13.7483 334.577 4.51587C332.458 3.88044 330.338 3.31978 328.219 2.81517C305.306 -2.62334 282.545 -0.427382 261.729 11.5523C256.931 14.3089 253 18.2803 249.168 22.0555C248.312 22.8965 248.246 24.3169 248.158 25.7279C242.559 24.7281 234.467 27.0829 230.701 27.709C214.44 30.4189 202.363 38.7822 191.702 48.9677C178.066 61.994 168.558 77.0761 163.123 93.756C154.965 118.79 151.144 144.347 156.491 170.185C158.292 178.922 162.969 187.229 166.395 195.892C156.349 200.984 152.078 206.815 150.376 217.599C145.556 248.23 173.18 279.759 204.801 285.356C208.479 286.01 209.588 287.412 210.268 290.374C210.982 293.532 212.376 296.831 214.506 299.466C220.347 306.643 233.215 309.437 238.584 298.429C238.65 298.279 239.133 298.279 239.989 298.083C239.44 312.016 239.825 325.892 238.101 339.573C236.399 353.169 232.578 366.569 230.031 378.455C229.142 378.96 228.263 379.465 227.396 379.951C219.085 384.576 211.41 388.389 204.68 393.164C196.939 398.668 189.451 404.751 183.369 411.563C168.327 428.393 154.164 445.773 139.638 462.93C138.628 464.135 137.596 465.322 135.96 467.247C130.229 452.782 125.057 439.26 119.502 425.86C113.957 412.479 108.028 399.219 102.484 386.408C106.568 384.342 110.861 382.174 115.264 379.951C120.71 377.203 126.342 374.362 132.029 371.484C133.05 372.886 134.423 374.858 135.905 376.773C136.74 377.857 137.596 378.913 138.496 379.951C143.766 386.062 150.134 391.257 158.292 394.519C173.092 400.434 187.453 402.452 201.606 391.949C207.128 387.856 210.345 383.987 210.96 379.951C211.575 375.96 209.653 371.793 204.899 367.046C201.649 363.785 197.96 360.607 193.799 358.271C183.358 352.431 172.609 346.974 161.849 341.563C153.121 337.171 144.074 333.228 135.433 328.724C133.49 327.715 132.249 325.35 131.316 323.397C129.021 318.622 127.802 313.399 124.893 308.951C117.021 296.934 106.206 286.832 94.5897 277.338C90.5054 273.993 86.9919 270.321 83.5115 266.443C75.7381 257.799 67.6463 249.37 59.4118 241.026C53.7355 235.26 47.9933 229.551 42.2401 223.841C38.6718 220.29 34.0824 217.309 29.4491 214.739C22.4552 210.862 17.5145 211.544 11.8821 216.739C8.57732 219.786 6.00818 223.421 2.71437 226.476C-0.491604 229.457 0.0574287 232.27 2.50583 235.026C5.15185 237.998 8.02839 240.848 11.0916 243.521C19.8092 251.118 28.6805 258.584 37.5629 266.172C31.7877 274.554 31.129 283.506 31.1509 292.691C31.1729 298.532 30.569 304.447 29.3613 310.184C27.6595 318.249 24.9586 326.154 23.0262 334.181C20.1276 346.226 19.2493 357.851 27.7474 369.148C31.7988 374.521 34.0385 381.362 35.1145 387.791C40.67 420.954 45.6546 454.193 50.7051 487.422C54.8224 514.474 61.5529 541.013 72.104 566.775C75.4198 574.896 79.3614 582.941 84.1593 590.492C94.4909 606.751 115.966 614.834 137.201 610.676C142.119 609.714 147.258 607.751 151.133 605.041C162.42 597.145 173.114 588.642 183.984 580.419C183.973 580.409 183.962 580.39 183.962 580.381C184.027 580.418 184.302 580.764 184.478 581.129C191.548 595.865 203.296 607.162 218.777 616.012C224.849 619.488 229.965 624.16 235.751 628.477C231.041 628.477 227.045 628.262 223.092 628.515C213.979 629.094 206.382 632.019 201.99 639.336C199.959 642.709 200.025 646.11 204.098 648.035C209.62 650.643 213.386 654.829 218.13 657.997C223.718 661.734 230.8 663.856 237.245 666.668C238.727 667.323 240.615 667.612 241.669 668.584C250.617 676.826 262.223 681.19 274.695 682.414C286.641 683.591 298.927 682.704 311.037 682.264C325.211 681.75 339.418 681.162 353.516 679.844C374.783 677.844 395.841 674.518 417.361 674.219C418.799 674.2 420.237 674.191 421.665 674.209C442.493 674.359 462.848 677.667 483.347 680.153C538.441 686.825 588.046 676.134 631.81 646.578C632.71 645.97 633.874 644.952 634.708 645.083C641.197 646.092 642.032 642.092 642.921 638.411C645.325 628.393 644.93 618.32 642.24 608.415ZM512.398 344.61C492.482 350.104 474.728 359.365 454.065 361.645C450.771 362.009 448.301 361.841 446.928 359.206C444.074 353.748 440.308 348.422 438.913 342.685C433.929 322.229 434.62 301.457 436.103 280.74C437.563 260.35 439.44 239.988 441.153 219.608C441.186 219.215 441.417 218.823 441.746 217.889C451.693 232.41 459.544 234.569 469.908 225.822C477.484 267.115 488.397 307.446 512.398 344.61ZM467.8 379.951C466.988 382.987 466.241 386.006 465.692 389.052C463.837 399.2 462.376 409.376 461.542 419.581C460.422 433.018 460.367 446.493 461.871 460.005C463.31 472.966 467.438 485.46 475.101 496.897C480.898 505.55 489.089 511.914 500.068 515.698C501.88 516.315 503.692 518.221 504.284 519.847C506.25 525.202 508.007 530.64 509.148 536.153C509.796 539.312 509.73 542.788 508.907 545.919C504.768 561.486 500.222 576.97 495.951 592.51C495.04 595.856 494.678 599.313 494.041 602.817C475.727 605.013 457.458 607.2 438.068 609.527C439.671 607.938 440.703 607.097 441.483 606.107C449.091 596.463 456.667 586.801 464.221 577.12C464.682 576.531 465.066 575.812 465.143 575.129C465.385 573.036 465.472 570.943 465.615 568.85C463.2 568.822 460.751 568.57 458.38 568.822C455.371 569.149 452.429 569.906 449.454 570.448C444.634 571.345 440.429 572.691 436.377 567.775C432.974 563.636 426.54 565.187 420.896 566.542C420.391 564.776 419.985 563.131 419.458 561.524C416.56 552.665 407.534 548.694 397.335 551.628C394.524 552.441 391.504 552.721 388.606 553.357C387.157 553.674 385.631 554.03 384.39 554.702C379.054 557.59 373.641 560.412 368.591 563.626C366.131 565.196 364.429 565.262 361.882 563.981C359.609 562.841 356.887 562.328 354.054 561.43C353.944 559.459 354.021 557.328 353.692 555.235C352.111 544.947 343.195 539.097 331.184 540.732C327.649 541.209 325.859 540.91 324.333 537.77C319.458 527.762 303.999 520.941 287.947 533.621C279.823 527.575 269.93 526.23 259.62 527.547C248.872 528.921 239.188 532.808 231.371 539.34C228.45 541.788 226.54 545.096 224.19 548.03C223.421 548.984 222.719 549.974 221.983 550.955C221.61 549.75 220.754 548.488 220.94 547.358C224.563 525.856 231.876 505.307 243.02 485.73C255.371 464.042 265.044 441.475 271.467 418.011C273.982 408.844 274.662 399.312 276.276 389.332C280.646 389.538 285.389 389.762 289.912 389.977C283.874 409.47 278.812 428.57 271.961 447.194C263.65 469.751 273.795 486.899 292.646 501.027C309.675 513.783 329.976 521.81 352.978 523.613C374.563 525.314 393.151 518.212 410.049 507.821C414.737 504.934 418.272 500.093 420.973 495.552C433.402 474.601 443.151 453.071 449.19 430.747C453.67 414.273 456.118 397.369 456.14 379.951C456.14 378.278 456.118 376.605 456.074 374.923C456.052 373.774 456.052 372.624 456.096 371.475C456.107 371.064 456.305 370.653 456.546 369.756C461.322 369.559 465.824 369.363 470.71 369.158C469.765 372.83 468.733 376.4 467.8 379.951ZM515.121 557.851C522.126 573.055 528.736 587.38 535.521 602.126H503.725M430.36 573.111C427.264 573.438 424.168 573.765 421.072 574.083C421.028 573.7 420.973 573.317 420.929 572.924C423.992 572.504 427.045 572.074 430.097 571.653C430.185 572.139 430.273 572.625 430.36 573.111ZM412.091 573.027C412.19 573.569 410.554 574.737 409.533 574.933C407.249 575.372 404.844 575.372 401.364 575.643C397.225 576.765 394.535 575.101 394.381 570.411C394.348 569.579 393.942 568.719 393.536 567.934C392.185 565.262 389.572 562.701 394.842 560.636C401.54 558.038 407.117 557.964 409.313 561.907C411.18 565.252 411.454 569.27 412.091 573.027ZM388.178 575.4C378.077 578.428 374.091 577.101 370.314 569.448C381.052 565.72 386.728 567.794 388.178 575.4ZM314.912 547.021C313.847 547.928 312.859 548.89 312.453 549.273C305.503 547.965 299.069 546.75 291.933 545.414C291.834 544.199 291.494 542.106 291.548 540.022C291.57 539.2 292.207 538.088 292.976 537.621C298.037 534.546 306.502 535.004 311.256 538.536C313.65 540.312 315.912 542.209 318.448 544.208C317.065 545.302 315.945 546.133 314.912 547.021ZM315.165 575.363C304.12 574.728 294.48 574.186 285.016 573.644C286.816 567.439 288.551 561.944 289.967 556.375C290.582 553.955 292.119 553.403 294.634 553.674C301.77 554.45 307.677 556.889 310.488 562.888C312.212 566.57 313.353 570.448 315.165 575.363ZM335.861 550.217C340.956 550.862 341.922 554.609 343.02 558.151C343.986 561.281 342.559 562.813 339.397 564.617C335.169 567.028 331.81 570.541 328.022 573.532C327.034 574.316 325.826 574.905 324.717 575.587C324.135 574.578 323.356 573.616 323.004 572.56C321.061 566.561 319.227 560.552 317.054 553.59C322.335 551.217 328.769 549.301 335.861 550.217ZM362.442 576.111H336.937C344.107 570.13 354.153 570.196 362.442 576.111ZM219.48 558.048C223.202 557.001 226.606 557.683 228.801 561.206C230.174 563.411 232.556 565.168 235.411 568.037C225.585 566.598 217.043 565.355 208.501 564.103C208.347 563.636 208.204 563.169 208.061 562.701C211.86 561.113 215.505 559.178 219.48 558.048ZM205.602 555.842C203.681 556.599 202.462 558.777 201.122 560.421C199.08 562.944 199.146 562.991 195.062 561.711C200.892 553.674 206.7 545.666 212.936 537.069C213.046 538.181 213.024 538.751 213.178 539.284C215.099 546.274 214.55 552.301 205.602 555.842ZM233.325 552.88C232.941 551.955 233.841 550.31 234.741 549.413C240.066 544.087 246.28 539.779 254.504 537.723C254.647 540.48 254.054 543.321 255.141 545.582C256.03 547.404 258.929 548.535 260.938 549.965C262.343 548.236 264.726 546.573 264.924 544.75C265.22 542.106 263.924 539.349 263.2 536.144C265.396 536.322 268.382 536.256 271.171 536.854C278.362 538.377 280.174 540.517 279.087 546.675C277.605 555.057 275.716 563.374 273.839 572.541C265.242 571.532 256.524 571.971 249.465 569.27C241.812 566.336 236.245 560.066 233.325 552.88ZM251.375 298.915C254.416 301.316 256.887 303.176 259.225 305.148C276.441 319.65 296.204 330.565 319.59 336.489C320.896 336.816 322.631 338.068 322.818 339.078C324.673 348.945 325.266 358.841 321.346 368.494C321.215 368.812 321.083 369.12 320.929 369.419C320.786 369.709 320.644 369.999 320.479 370.279C320.468 370.307 320.457 370.335 320.435 370.363C320.27 370.653 320.095 370.933 319.908 371.213C319.732 371.484 319.546 371.755 319.359 372.017C319.348 372.036 319.337 372.054 319.315 372.073C319.118 372.335 318.92 372.606 318.7 372.858C318.25 373.419 317.745 373.961 317.207 374.484C316.977 374.708 316.746 374.923 316.516 375.138C316.186 375.428 315.846 375.717 315.494 375.988C315.22 376.213 314.945 376.418 314.671 376.624C314.056 377.072 313.43 377.493 312.772 377.885C312.398 378.119 312.025 378.334 311.641 378.53C311.004 378.876 310.356 379.194 309.686 379.493C309.335 379.651 308.973 379.801 308.61 379.951C308.226 380.1 307.842 380.25 307.458 380.38C307.37 380.418 307.271 380.455 307.183 380.483C306.81 380.605 306.436 380.726 306.052 380.838C305.624 380.969 305.185 381.091 304.757 381.193C304.757 381.193 304.757 381.193 304.746 381.193C304.295 381.305 303.856 381.408 303.406 381.492C303.011 381.576 302.616 381.642 302.22 381.698C302.133 381.717 302.034 381.735 301.946 381.745C301.562 381.801 301.188 381.847 300.804 381.885C300.749 381.894 300.694 381.904 300.628 381.904C300.233 381.941 299.827 381.978 299.421 381.988C299.366 381.997 299.322 382.006 299.278 381.997C298.861 382.025 298.432 382.034 298.015 382.034C297.148 382.034 296.28 381.988 295.424 381.904C288.99 381.24 282.556 380.586 276.111 379.951C265.604 378.895 255.042 377.867 244.348 376.801C254.098 352.001 253.318 325.921 251.375 298.915ZM336.608 345.264C336.026 343.488 335.4 341.713 334.544 339.171C353.099 341.432 368.305 338.666 381.36 332.508C397.576 324.874 410.499 312.007 422.477 297.074C422.225 300.26 421.775 302.587 421.895 304.886C422.521 316.342 422.807 327.836 424.124 339.246C425.749 353.319 435.762 362.682 449.783 369.335C449.234 372.867 448.718 376.409 448.202 379.951C446.182 393.734 444.162 407.517 440.703 421.057C439.133 427.15 437.288 433.196 435.005 439.167C429.109 454.595 422.137 469.733 416.34 485.179C409.247 504.064 391.845 509.83 371.324 511.858C352.835 513.689 335.367 510.036 318.591 503.709C313.035 501.616 307.688 499.102 302.286 496.738C288.189 490.571 278.241 476.134 280.185 462.687C281.843 451.156 285.103 439.802 287.453 428.336C290 415.908 292.295 403.452 294.787 390.575C301.847 389.323 309.544 387.903 317.262 386.594C322.181 385.763 326.869 383.333 330.591 379.951C334.357 376.54 337.146 372.157 338.244 367.448C339.989 359.944 339.023 352.562 336.608 345.264ZM453.725 209.46C455.855 207.862 457.655 205.965 460.246 203.619C462.87 209.507 463.848 214.618 462.135 219.972C461.037 223.392 458.94 223.71 455.997 221.524C454.746 220.589 453.505 219.58 452.528 218.431C448.663 213.908 448.883 213.104 453.725 209.46ZM451.99 119.052C456.898 127.985 461.443 137.283 464.1 146.833C469.601 166.55 463.299 184.398 449.223 200.452C448.433 201.358 447.84 202.386 447.148 203.367C446.456 203.078 445.776 202.788 445.095 202.498C445.314 200.078 445.545 197.648 445.776 195.228C445.929 193.733 446.094 192.247 446.248 190.752H440.264C438.804 182.193 437.289 173.315 435.773 164.447C436.158 164.27 436.542 164.102 436.915 163.933C439.111 167.185 441.065 170.568 443.58 173.633C444.831 175.156 447.104 176.063 448.916 177.259C449.563 175.464 451.057 173.54 450.705 171.895C449.124 164.457 447.115 157.074 437.234 154.028C436.498 153.804 435.642 152.365 435.839 151.692C438.178 143.646 440.505 135.573 443.338 127.649C443.997 125.808 446.698 124.537 448.246 122.864C448.993 122.07 449.959 120.593 449.585 120.042C448.949 119.117 447.148 117.996 446.149 118.183C443.777 118.612 440.725 119.239 439.473 120.724C436.092 124.724 433.292 129.125 430.712 133.554C429.57 135.517 429.504 137.937 428.955 140.152C428.439 140.217 427.923 140.292 427.407 140.357C426.463 135.778 425.672 131.171 424.476 126.639C424.058 125.098 422.971 123.434 421.599 122.378C418.119 119.706 418.415 117.641 422.258 115.613C423.828 114.781 425.288 113.772 426.891 112.987C437.914 107.52 446.566 109.193 451.99 119.052ZM171.928 100.25C177.714 79.9635 187.662 61.3025 205.415 46.3606C215.231 38.1001 233.018 29.0733 247.477 28.55C248.641 28.5126 249.761 27.8211 251.748 27.1483C251.474 26.9427 251.177 26.7558 250.859 26.597C251.913 26.2793 252.934 25.9335 253.867 25.4476C261.311 21.5696 268.129 16.4021 276.111 13.7763C293.042 8.18827 309.752 7.56218 325.991 11.3654C333.061 13.01 340.044 15.505 346.917 18.785C355.02 22.6536 362.969 26.7932 370.721 31.1571C400.486 47.9492 416.285 72.9458 426.682 101.007C427.045 101.989 426.748 103.745 425.947 104.343C423.191 106.371 420.062 108.053 417.207 109.791C407.348 91.0835 392.69 75.5249 376.606 60.8633C374.541 58.9757 371.544 57.8263 368.975 56.3312C368.448 56.8171 367.921 57.303 367.383 57.789C368.503 59.4056 369.48 61.1063 370.753 62.6201C378 71.3011 385.817 79.6738 392.471 88.6632C397.697 95.737 401.551 103.54 406.008 111.025C404.098 110.455 401.979 110.156 400.343 109.24C395.874 106.736 391.406 104.241 386.948 101.736C378.999 97.2695 371.05 92.8122 363.101 88.3455C362.783 88.168 362.464 87.9904 362.146 87.8129C355.503 84.0844 348.938 79.8607 341.966 76.5154C340.758 75.9267 339.528 75.366 338.288 74.8427C336.74 74.1979 335.093 73.6373 333.369 73.5905C333.028 73.5812 332.688 73.5999 332.348 73.6466C330.953 73.7868 329.625 74.3288 328.812 75.2819C328.736 75.3753 328.659 75.4781 328.593 75.5809C328.626 75.609 328.648 75.637 328.67 75.665C329.032 75.6463 330.492 74.9922 330.602 75.3193C331.744 73.8709 330.262 76.9172 330.602 77.1882C331.129 77.5993 331.305 78.0946 331.524 78.5618C330.58 77.59 329.636 76.6275 328.67 75.665C328.582 75.665 328.549 75.6463 328.593 75.5809C327.835 74.8147 327.067 74.0578 326.298 73.3009C324.948 71.9833 323.213 70.946 321.259 69.479C320.622 70.7685 319.842 71.6188 320.073 71.9833C324.86 79.1692 329.768 86.2991 334.621 93.4009C327.868 95.8679 321.467 95.8118 315.549 90.5041C307.644 83.4116 299.267 76.7116 290.989 69.9275C287.837 67.3484 284.522 64.8908 281.03 62.6668C280.141 62.1061 278.088 62.3491 276.946 62.8443C276.419 63.078 276.551 64.8908 276.858 65.872C277.583 68.1988 278.988 70.4041 279.416 72.7589C282.029 87.355 289.539 100.475 297.104 113.436C300.738 119.659 306.656 124.911 311.597 130.583C306.996 127.555 301.88 124.939 297.982 121.369C282.853 107.502 271.786 91.3919 263.694 73.8055C261.103 68.1801 258.819 62.4519 256.228 56.8265C255.833 55.9668 254.526 55.4154 253.637 54.724C253.077 55.5276 252.144 56.2938 252.012 57.1442C250.508 66.5354 249.036 75.936 247.741 85.346C246.237 96.3445 244.952 107.362 243.426 118.36C243.173 120.229 243.305 122.902 239.331 122.416C239.221 121.846 239.078 121.434 239.089 121.023C239.221 109.081 239.396 97.1387 239.473 85.1964C239.484 82.8323 239.32 80.356 234.785 78.9076C230.525 90.0369 226.068 100.708 222.368 111.557C214.726 133.937 207.655 156.458 199.97 178.828C198.191 183.987 194.853 188.743 192.229 193.696C191.592 193.546 190.956 193.397 190.319 193.247C189.539 187.566 188.277 181.912 188.101 176.221C187.728 164.008 187.936 151.776 187.848 139.553C187.826 137.414 187.541 135.283 187.376 133.153C186.718 133.134 186.048 133.115 185.389 133.096C179.647 142.889 179.987 153.71 179.943 164.279C179.899 174.96 181.085 185.65 181.744 196.564C179.823 195.985 176.298 195.854 175.145 194.378C172.774 191.341 171.072 187.706 170.139 184.117C162.848 156.056 164.012 128.041 171.928 100.25ZM332.633 79.7019C332.6 79.6832 332.578 79.6738 332.545 79.6552C331.974 79.3842 331.733 78.9823 331.535 78.5712C331.898 78.945 332.271 79.3187 332.633 79.7019ZM309.324 100.232C307.381 101.409 305.152 102.745 301.671 104.839C298.268 97.7087 295.073 91.0181 291.878 84.3274C291.823 84.2807 291.768 84.2246 291.713 84.1779L291.472 84.2059L291.68 84.1499C291.691 84.1592 291.702 84.1685 291.713 84.1779L291.801 84.1685C291.823 84.2246 291.856 84.2713 291.878 84.3274C297.554 89.4949 303.23 94.6718 309.324 100.232ZM238.727 133.835C238.584 134.04 238.43 134.246 238.277 134.461C238.134 134.19 237.903 133.919 237.881 133.638C237.87 133.498 238.233 133.33 238.43 133.181C238.529 133.395 238.628 133.61 238.727 133.835ZM227.967 126.593C229.252 122.958 230.514 119.323 231.821 115.697C232.084 114.94 232.49 114.211 233.259 113.585C232.15 118.136 235.696 123.789 227.967 126.593ZM232.6 155.299C224.212 159.055 218.624 164.597 217.844 173.072H209.621C210.334 171.082 210.894 169.372 211.575 167.699C214.353 160.906 217.317 154.168 219.908 147.328C221.643 142.74 225.562 140.105 230.92 137.049C229.976 141.675 229.131 145.403 228.483 149.16C227.978 152.066 228.527 154.607 232.6 155.299ZM208.577 274.965C197.982 272.844 187.717 268.227 179.702 260.799C169.03 250.893 160.466 239.755 160.18 225.691C160.071 220.206 161.015 214.515 162.772 209.226C164.627 203.619 169.139 201.695 176.002 201.872C184.642 202.087 190.132 205.544 192.932 212.422C194.754 216.898 196.709 221.346 198.586 225.813C198.63 225.897 198.465 226.056 198.301 226.364C193.558 223.748 188.946 220.972 184.061 218.608C181.634 217.431 178.747 216.59 175.991 216.393C174.443 216.281 171.84 217.533 171.357 218.674C170.929 219.655 172.422 221.832 173.762 222.673C180.701 227.009 187.826 231.139 194.974 235.223C197.576 236.699 197.708 238.381 197.741 240.96C197.774 245.408 198.85 249.959 200.42 254.22C200.892 255.491 204.449 255.939 206.59 256.762C206.733 255.089 207.051 253.407 206.974 251.744C206.854 249.342 206.447 246.95 206.162 244.548C206.546 244.474 206.941 244.399 207.337 244.324C211.652 250.921 215.966 257.519 219.524 262.948C215.725 267.125 212.387 270.779 208.577 274.965ZM221.412 265.845C222.796 267.396 223.433 268.041 223.981 268.741C226.584 272.059 229.164 275.385 232.403 279.544C227.001 278.731 222.664 278.067 217.141 277.226C218.657 273.189 219.886 269.91 221.412 265.845ZM233.248 292.458C231.996 294.486 229.68 297.887 228.439 297.7L218.404 287.421C219.656 287.169 220.281 286.945 220.918 286.935C225.233 286.907 229.559 286.917 234.741 286.917C234.236 288.935 234.192 290.897 233.248 292.458ZM203.999 212.637C198.29 199.9 204.899 189.22 207.743 177.044C210.96 178.24 213.277 178.959 215.451 179.922C220.095 181.978 222.609 181.389 225.398 177.427C226.101 176.446 226.825 175.474 227.528 174.493C232.216 167.942 240.143 166.129 248.037 169.643C243.898 181.277 249.267 190.547 258.007 198.798C262.728 203.255 269.282 204.236 273.542 201.891C277.649 199.639 278.878 194.826 276.155 188.93C274.058 184.417 271.226 180.146 268.514 175.418C273.18 173.782 273.224 170.493 269.897 168.12C259.236 160.523 248.817 151.907 232.853 155.224C237.442 148.421 242.427 141.787 246.434 134.741C248.52 131.069 249.53 127.452 255.679 128.247C256.579 128.368 258.358 127.228 258.566 126.434C258.797 125.611 257.897 124.182 256.985 123.612C255.393 122.631 253.406 122.107 251.913 121.519C253.516 106.698 255.108 92.046 256.733 77.0947C259.456 82.9724 261.948 88.7193 264.759 94.3541C274.882 114.66 291.526 129.76 314.891 139.404C317.317 140.394 319.864 141.282 322.477 141.759C323.279 141.899 325.453 140.226 325.31 139.89C324.179 137.189 322.938 134.461 321.182 132.022C316.527 125.546 311.597 119.22 306.447 112.408C309.961 110.969 312.761 110.015 315.319 108.707C319.096 106.782 322.159 107.278 326.002 109.137C332.436 112.249 339.243 114.996 346.237 117.015C354.79 119.491 363.705 121.061 372.466 123.014C371.193 123.799 369.754 123.995 368.415 123.771C358.149 122.014 348.751 123.116 341.559 130.209C333.962 137.713 330.075 146.767 328.132 156.374C327.747 158.261 329.482 160.457 330.24 162.504C331.843 161.121 333.446 159.738 335.071 158.364C335.268 158.196 335.576 158.121 336.07 157.887C337.036 160.055 337.662 162.345 339.001 164.279C341.735 168.194 344.414 172.25 347.938 175.633C350.991 178.558 355.47 179.585 359.994 177.53C364.331 175.558 365.418 172.082 364.726 168.297C364.298 165.933 363.463 163.457 362.058 161.41C357.447 154.682 352.495 148.132 347.302 141.002C353.878 136.573 360.257 129.172 372.148 134.208C375.145 135.47 376.781 133.526 377.539 131.143C378.263 128.854 379.021 126.565 379.68 124.518H388.408C388.474 124.238 388.54 123.967 388.617 123.687C387.892 123.247 387.157 122.817 386.432 122.378C376.99 116.744 367.57 111.109 358.226 105.521C360.642 103.708 362.003 102.68 363.375 101.652C362.003 100.503 360.806 99.1291 359.225 98.2507C357.556 97.3256 355.371 97.0826 353.67 96.1856C350.057 94.27 346.083 92.5412 343.195 89.9715C342.635 89.4762 342.086 88.9716 341.548 88.467C341.186 88.14 340.824 87.8036 340.472 87.4671C339.923 86.9532 339.375 86.4299 338.837 85.9066C338.134 85.2245 337.431 84.533 336.728 83.8321C335.356 82.4678 333.995 81.0942 332.644 79.7112C336.794 81.6829 340.824 83.6265 344.699 85.944C348.729 88.3455 352.747 90.7471 356.777 93.1486C360.784 95.5315 364.803 97.9143 368.821 100.288C370.6 101.344 372.368 102.39 374.146 103.428C376.353 104.745 378.571 106.044 380.789 107.352C380.822 107.371 380.855 107.39 380.877 107.399C388.924 112.137 396.994 116.846 405.075 121.537C408.665 123.621 410.894 125.873 412.179 129.405C425.804 166.896 430.8 205.049 425.101 244.109C422.192 264.013 417.756 283.674 402.857 299.821C398.29 304.774 393.843 309.044 389.429 312.661C370.117 328.509 351.265 332.004 324.366 326.061C294.447 319.445 272.038 303.241 252.176 284.104C230.382 263.116 215.681 238.689 203.999 212.637ZM8.36877 227.719C10.7952 226.112 13.2437 224.766 15.2858 223.065C20.2046 218.982 20.8742 218.73 25.1781 223.093C36.6625 234.746 47.8945 246.576 59.2033 258.304C54.3504 259.032 49.8598 259.789 45.3253 260.341C44.3701 260.453 42.9538 260.06 42.306 259.462C31.3596 249.314 20.49 239.091 8.36877 227.719ZM179.669 570.308C179.79 570.756 178.801 571.485 178.23 571.999C166.504 582.362 154.811 592.744 142.998 603.023C142.053 603.845 140.352 604.284 138.935 604.406C120.249 606.06 105.174 600.612 95.3363 586.829C90.5383 580.119 86.6515 572.803 83.5005 565.402C72.4443 539.471 65.8567 512.605 61.1575 485.338C56.0631 455.744 50.6063 426.187 44.9629 396.668C43.3819 388.361 39.2537 380.483 39.3525 371.811C39.3854 368.924 38.2216 365.672 36.4429 363.177C30.58 354.945 31.2827 346.095 32.2269 337.181C33.0174 329.733 32.6551 321.93 35.2352 314.941C39.3635 303.802 38.4192 292.28 40.9554 281.114C43.5136 269.816 48.8936 266.022 59.4118 269.143C60.927 269.592 62.5518 270.18 64.2866 270.919C81.5571 278.226 96.5111 288.533 109.346 300.662C115.198 306.185 119.085 313.296 123.356 319.921C125.332 322.977 127.374 327.35 123.114 329.584C121.434 330.462 116.219 327.743 113.584 325.734C106.546 320.361 100.2 314.333 93.2611 308.857C84.9278 302.298 75.1782 297.728 64.067 295.551C62.5739 295.261 61.0038 295.271 59.4118 295.336C58.1162 295.383 56.8097 295.476 55.5251 295.476C55.3933 295.925 55.2616 296.373 55.1298 296.812C56.085 297.429 56.9304 298.354 57.9844 298.597C58.4675 298.709 58.9397 298.821 59.4118 298.934C78.8014 303.709 92.6024 315.081 105.503 327.556C107.842 329.798 110.444 331.948 113.298 333.667C116.955 335.872 121.105 337.078 125.65 335.405C125.65 335.377 125.661 335.349 125.661 335.321C125.683 335.34 125.705 335.349 125.727 335.368C126.99 334.686 128.241 333.994 128.999 333.574C149.915 345.731 170.677 357.711 191.307 369.84C195.578 372.353 199.399 375.418 203.022 377.951C202.517 378.652 202.023 379.315 201.529 379.951C194.996 388.267 188.782 390.323 177.319 387.706C170.578 386.174 163.386 383.735 158.16 379.951C157.973 379.829 157.787 379.698 157.611 379.558C147.609 371.961 139.034 363 129.833 354.627C127.758 352.739 127.671 350.936 128.768 348.431C131.48 342.255 130.382 338.545 125.727 335.368C125.727 335.377 125.716 335.377 125.716 335.377C125.694 335.387 125.672 335.396 125.65 335.405C125.497 336.358 125.332 337.33 125.233 338.302C124.443 346.553 118.788 349.366 110.477 345.133C105.295 342.498 100.562 339.143 96.006 335.742C86.5418 328.677 76.6823 322.173 64.8465 318.239C63.1008 317.66 61.2673 317.183 59.4118 316.828C57.7978 316.511 56.1619 316.277 54.5479 316.146C52.9229 316.015 51.1334 317.305 49.4206 317.959C50.4856 319.239 51.2212 321.024 52.6815 321.706C54.8663 322.743 57.1391 323.659 59.4118 324.566C63.4193 326.173 67.4487 327.743 71.0829 329.827C77.912 333.742 83.8848 338.723 90.4065 343.04C96.3793 346.983 102.506 350.777 108.786 354.356C110.477 355.318 112.98 355.3 115.132 355.645C117.174 355.982 120.545 355.683 121.061 356.589C122.642 359.346 123.663 362.532 123.85 365.597C124.014 368.261 121.291 369.83 118.25 369.298C113.156 368.41 107.765 367.69 103.241 365.691C89.5941 359.673 76.3091 353.066 62.8703 346.703C61.7175 346.161 60.5646 345.609 59.4118 345.067C56.7219 343.797 54.01 342.554 51.2212 341.47C50.1892 341.068 48.5532 341.778 47.2028 341.974C47.4663 343.03 47.3565 344.32 48.0592 345.086C49.2889 346.422 50.9247 347.516 52.5167 348.581C54.7895 350.104 57.0842 351.599 59.4118 353.057C72.8615 361.542 87.1017 368.943 102.627 374.54C103.055 374.69 103.395 375.026 104.197 375.549C97.2248 377.502 90.6151 376.904 84.0494 375.858C77.5716 374.83 71.1598 373.447 64.682 372.456C63.1009 372.213 61.3112 372.914 59.6313 373.176C60.2681 374.671 60.378 376.717 61.6297 377.568C62.9252 378.455 64.2647 379.24 65.6481 379.951C72.2467 383.361 79.7565 384.931 87.3872 385.894C91.8009 386.454 93.4808 387.678 94.952 391.51C105.624 419.394 116.098 447.371 128.176 474.825C136.366 493.449 147.027 511.297 156.678 529.453C157.589 531.164 159.236 532.575 160.554 534.126C161.267 533.976 161.992 533.817 162.706 533.668C162.508 531.182 162.903 528.528 162.003 526.248C159.126 518.875 155.822 511.633 152.572 504.363C149.036 496.43 145.259 488.571 141.9 480.572C141.285 479.124 141.472 476.713 142.526 475.582C160.499 456.314 178.362 436.952 196.95 418.114C204.515 410.451 213.364 403.62 222.324 397.088C235.466 387.51 251.419 387.669 268.689 388.903C265.758 399.546 263.211 409.769 260.104 419.87C251.979 446.297 238.957 471.125 226.002 496C221.698 504.251 218.744 513.007 215.143 521.52C214.693 522.567 214.111 523.613 213.375 524.529C204.252 535.761 194.908 546.872 186.026 558.244C183.193 561.86 178.241 564.907 179.669 570.308ZM188.496 569.149C198.41 571.158 207.15 573.279 216.043 574.653C272.214 583.334 328.714 589.399 385.949 587.212C401.046 586.642 416.065 584.025 431.03 581.886C438.046 580.876 444.831 578.755 451.726 577.139C452.056 577.419 452.385 577.69 452.725 577.961C445.018 586.773 437.255 595.557 429.625 604.415C425.815 608.835 421.259 611.414 414.418 611.536C408.05 611.657 401.715 613.096 395.325 613.554C392.987 613.722 390.165 613.255 388.189 612.208C367.482 601.247 345.117 599.864 321.83 603.565C302.242 606.686 282.666 609.882 263.09 613.05C262.431 613.152 261.772 613.311 261.114 613.442C251.035 615.432 249.168 618.245 252.363 626.693C252.605 627.347 252.901 627.982 252.671 628.954C225.167 614.133 205.591 593.211 188.496 569.149ZM631.81 638.252C597.027 658.782 559.061 671.35 516.252 670.687C501.276 670.453 486.278 668.677 471.401 666.911C459.686 665.528 448.004 664.725 436.333 664.566C418.217 664.323 400.156 665.612 382.095 668.621C371.665 670.359 361.026 672.098 350.464 672.182C325.189 672.406 299.838 675.723 274.596 671.649C273.795 671.518 272.993 671.369 272.17 670.556C278.494 670.135 284.84 669.827 291.153 669.257C295.841 668.836 300.606 668.397 305.119 667.313C307.392 666.771 309.17 664.781 311.18 663.445C308.885 662.641 306.623 661.202 304.307 661.127C291.142 660.716 277.923 661.108 264.803 660.249C256.338 659.697 248.015 657.464 239.803 655.324C255.536 655.324 271.27 655.455 287.003 655.231C290.418 655.184 293.81 653.885 297.104 652.184C267.053 651.063 237.552 647.634 207.984 643.784C215.89 638.214 224.695 636.616 234.478 637.747C253.79 639.962 273.191 641.223 292.591 638.906C300.969 637.906 309.983 637.971 316.889 632.626C318.646 631.262 320.194 629.701 321.83 628.225C321.577 627.917 321.314 627.599 321.05 627.281C314.056 628.505 307.095 630.589 300.068 630.729C292.745 630.87 285.257 629.552 278.033 628.132C271.281 626.814 263.024 628.86 257.655 622.516C258.643 622.123 259.071 621.805 259.489 621.805C282.282 622.048 304.021 616.937 325.65 611.853C338.397 608.854 350.672 610.078 363.068 612.386C366.153 612.956 369.568 613.788 371.917 615.442C380.931 621.796 391.603 622.768 402.495 622.59C419.03 622.319 435.642 622.216 452.067 620.777C461.674 619.946 470.852 615.844 480.47 614.657C498.323 612.451 516.318 610.76 534.324 609.938C542.943 609.545 551.693 611.704 560.411 612.517C561.948 612.657 563.606 611.863 565.209 611.498C564.276 610.424 563.606 608.816 562.354 608.368C557.864 606.742 553.055 605.733 548.63 604.013C546.862 603.331 545.029 601.603 544.48 600.033C542.174 593.426 540.637 586.633 538.299 580.035C526.551 546.844 514.715 513.68 502.715 480.554C500.442 474.246 497.488 468.107 494.447 462.033C493.755 460.64 491.428 459.855 489.847 458.79C489.539 460.491 488.727 462.248 489.012 463.864C489.715 467.957 490.901 471.985 491.9 476.04C491.527 476.162 491.153 476.283 490.78 476.405C488.551 473.723 486.443 470.957 484.028 468.406C483.226 467.555 481.601 467.256 480.361 466.705C479.921 467.957 478.648 469.695 479.197 470.387C482.633 474.713 486.07 479.152 490.341 482.871C492.943 485.142 494.897 487.17 495.6 490.337C496.687 495.225 498.279 500.037 499.179 505.064C490.78 499.598 484.39 492.879 480.58 484.562C474.706 471.714 471.434 458.444 471.204 444.577C471.039 434.952 471.171 425.346 471.753 415.777C472.477 403.77 473.905 391.827 476.342 379.951C476.935 377.016 477.594 374.091 478.318 371.176C478.714 369.597 479.954 367.448 481.447 366.915C491.592 363.345 501.869 360.028 512.201 356.851C523.323 353.431 533.72 354.898 543.613 360.411C548.411 363.084 551.463 366.56 553.264 371.092C554.438 374.045 555.624 376.998 556.821 379.951C568.525 408.956 580.789 437.812 591.329 467.125C602.89 499.289 612.826 531.902 622.499 564.523C625.903 576.017 626.199 588.156 628.274 599.948C630.163 610.611 632.37 621.235 634.785 631.823C635.477 634.832 634.774 636.504 631.81 638.252Z" fill="black"/>
</svg>
