<svg width="145" height="181" viewBox="0 0 145 181" fill="none" xmlns="http://www.w3.org/2000/svg">
<path d="M102.813 97.775C103.884 97.7216 104.894 97.6713 105.992 97.6163C105.6 99.4125 105.134 101.123 104.864 102.863C103.902 109.066 103.415 115.308 104.008 121.574C104.331 124.99 105.256 128.287 106.976 131.302C108.278 133.584 110.117 135.261 112.582 136.26C112.987 136.424 113.393 136.925 113.527 137.355C113.968 138.765 114.362 140.2 114.617 141.653C114.764 142.487 114.75 143.405 114.563 144.23C113.636 148.335 112.615 152.419 111.657 156.517C111.451 157.399 111.371 158.31 111.229 159.234C107.117 159.813 103.017 160.39 98.6641 161.003C99.0241 160.584 99.2565 160.363 99.4309 160.103C101.139 157.559 102.839 155.01 104.535 152.458C104.638 152.303 104.724 152.113 104.742 151.932C104.797 151.382 104.815 150.828 104.848 150.276C104.305 150.269 103.756 150.203 103.223 150.27C102.549 150.356 101.889 150.554 101.221 150.699C100.138 150.935 99.1953 151.29 98.2855 149.993C97.5204 148.903 96.0766 149.312 94.8097 149.668C94.6974 149.202 94.6067 148.769 94.4882 148.344C93.8364 146.008 91.8107 144.963 89.5229 145.736C88.8911 145.949 88.2137 146.024 87.5641 146.19C87.2383 146.274 86.8968 146.37 86.6173 146.547C85.4187 147.307 84.2041 148.051 83.0703 148.901C82.5198 149.313 82.1373 149.331 81.5659 148.994C81.054 148.692 80.4449 148.556 79.8071 148.321C79.784 147.801 79.8002 147.238 79.7278 146.686C79.3712 143.974 77.3705 142.43 74.6744 142.862C73.8811 142.989 73.4809 142.909 73.1376 142.081C72.0442 139.442 68.5741 137.642 64.9709 140.986C63.1476 139.393 60.9265 139.038 58.6136 139.385C56.1999 139.747 54.0269 140.772 52.2733 142.495C51.6183 143.139 51.1893 144.014 50.6615 144.786C50.489 145.039 50.33 145.3 50.1649 145.558C50.0816 145.241 49.8884 144.908 49.9313 144.609C50.7435 138.938 52.385 133.521 54.8864 128.359C57.6585 122.638 59.8297 116.686 61.2728 110.499C61.8366 108.082 61.9884 105.568 62.3499 102.936C63.3329 102.991 64.3972 103.05 65.4107 103.107C64.0554 108.246 62.9206 113.284 61.3819 118.196C59.5182 124.144 61.7932 128.665 66.0246 132.391C69.8461 135.756 74.4043 137.871 79.5669 138.348C84.4121 138.795 88.5831 136.924 92.3748 134.183C93.4275 133.422 94.2218 132.145 94.8262 130.948C99.8765 120.953 102.951 110.452 102.706 99.1373C102.7 98.8339 102.7 98.5298 102.71 98.2267C102.715 98.1181 102.758 98.0104 102.813 97.775Z" fill="#FFF8F8"/>
<path d="M92.8556 34.3914C92.5673 33.4599 92.0671 32.866 91.2613 32.3165C89.4451 31.0819 87.6364 29.8399 85.8301 28.5881C85.8251 28.5856 85.8177 28.5807 85.8103 28.5758C84.9133 27.9572 84.0189 27.3362 83.1243 26.7128C82.2224 26.0869 81.3205 25.4585 80.421 24.8301C79.5166 24.1968 78.6147 23.5635 77.7104 22.9302C77.3974 22.7084 77.0844 22.4891 76.7715 22.2697C76.1308 21.8213 75.5788 21.2101 75.0933 20.5891C74.9257 20.3772 74.9529 20.0174 74.9381 19.6872C74.9356 19.6182 74.9332 19.5492 74.9233 19.4827C75.2683 19.5468 75.6749 19.5122 75.946 19.6872C76.3304 19.9386 76.7148 20.1899 77.0968 20.4437C80.4654 22.6566 83.8266 24.8818 87.1928 27.0947C88.1933 27.7552 89.1962 28.4131 90.1992 29.0735C90.5664 29.315 91.042 29.3939 91.4707 29.5442C90.4703 27.5703 89.6053 25.5127 88.4323 23.6473C86.939 21.2767 85.1844 19.0687 83.558 16.7794C83.2722 16.3802 83.0528 15.9317 82.8015 15.5054C82.9222 15.3772 83.0405 15.2491 83.1588 15.121C83.7354 15.5152 84.4082 15.8183 84.8715 16.3161C88.4816 20.1825 91.7714 24.2855 93.9843 29.2189C94.625 28.7606 95.3273 28.317 95.9458 27.7823C96.1257 27.6246 96.1922 27.1613 96.1109 26.9025C93.7773 19.5024 90.2312 12.9105 83.5506 8.48227C81.8109 7.33147 80.0267 6.23981 78.2081 5.21961C73.1219 2.36354 67.772 1.78444 62.3162 3.89877C60.5247 4.59122 58.9944 5.95395 57.3236 6.97662C57.1142 7.10476 56.885 7.19593 56.6484 7.27972C56.7199 7.32161 56.7864 7.3709 56.848 7.42511C56.402 7.60253 56.1506 7.78489 55.8894 7.79475C52.644 7.93274 48.6519 10.3132 46.4489 12.4916C42.4642 16.4319 40.2316 21.353 38.9329 26.7029C37.1562 34.0316 36.895 41.4194 38.5312 48.8196C38.7407 49.7658 39.1227 50.7244 39.655 51.5253C39.9137 51.9147 40.7047 51.9492 41.136 52.102C40.9881 49.2237 40.722 46.4046 40.7318 43.588C40.7417 40.8009 40.6653 37.9473 41.9541 35.3648C42.1019 35.3697 42.2523 35.3746 42.4001 35.3796C42.4371 35.9414 42.5012 36.5033 42.5061 37.0676C42.5258 40.2908 42.479 43.5165 42.5628 46.7373C42.6022 48.238 42.8856 49.7289 43.0605 51.2271C43.2035 51.2666 43.3464 51.306 43.4893 51.3454C44.0783 50.0394 44.8274 48.7851 45.2266 47.4248C46.9516 41.5254 48.5386 35.5866 50.2537 29.6847C51.0841 26.8237 52.0846 24.0095 53.0407 21.0746C54.0585 21.4565 54.0955 22.1096 54.093 22.733C54.0757 25.8823 54.0363 29.0316 54.0067 32.181C54.0043 32.2894 54.0363 32.3978 54.061 32.5481C54.953 32.6763 54.9234 31.9715 54.9801 31.4786C55.3226 28.5782 55.611 25.6729 55.9486 22.7725C56.2394 20.291 56.5696 17.8119 56.9072 15.3353C56.9367 15.1111 57.1462 14.909 57.2719 14.6971C57.4715 14.8795 57.7647 15.0249 57.8534 15.2516C58.435 16.735 58.9476 18.2456 59.5291 19.7291C61.3453 24.3668 63.8292 28.6152 67.225 32.2721C68.0998 33.2135 69.2481 33.9035 70.2806 34.7019C69.1717 33.2061 67.8435 31.8212 67.0278 30.18C65.33 26.7621 63.6444 23.3023 63.0579 19.4531C62.9618 18.8321 62.6464 18.2506 62.4838 17.637C62.4148 17.3782 62.3852 16.9001 62.5035 16.8385C62.7598 16.7079 63.2206 16.6439 63.4202 16.7917C64.2038 17.3782 64.948 18.0263 65.6553 18.7064C67.5133 20.4955 69.3935 22.2624 71.1678 24.1327C72.496 25.5324 73.9327 25.5472 75.4482 24.8966C74.359 23.0238 73.2575 21.1436 72.1831 19.2486C72.1313 19.1525 72.3063 18.9282 72.4492 18.5882C72.8878 18.975 73.2772 19.2486 73.5803 19.596C73.7528 19.7956 73.9253 19.9952 74.0953 20.1973C74.1027 20.2047 74.1076 20.2121 74.1125 20.2195C74.3294 20.4733 74.5413 20.7271 74.7533 20.9834C74.7557 20.9834 74.7557 20.9859 74.7557 20.9859C74.837 21.0844 74.9208 21.183 75.0021 21.284C75.0021 21.284 75.0046 21.284 75.0046 21.2865C75.3077 21.6512 75.6133 22.0135 75.9213 22.3732C76.0765 22.5556 76.2367 22.7404 76.3944 22.9203C76.5152 23.0583 76.6384 23.1963 76.7616 23.3318C76.8405 23.4206 76.9218 23.5093 77.0031 23.5955C77.1239 23.7286 77.2471 23.8617 77.3727 23.9923C78.0208 24.6699 78.9129 25.1258 79.7237 25.631C80.1056 25.8675 80.596 25.9316 80.9705 26.1756C81.3254 26.4072 81.594 26.7695 81.902 27.0726C81.594 27.3436 81.2885 27.6147 80.7463 28.0928C83.006 29.6797 85.2855 31.2815 87.5673 32.8833C87.5501 32.9572 87.5353 33.0287 87.5205 33.1026H85.5614C85.4136 33.6423 85.2436 34.246 85.0809 34.8497C84.9109 35.4781 84.5437 35.9907 83.871 35.658C81.2022 34.3298 79.7705 36.2815 78.2944 37.4495C79.46 39.3297 80.5714 41.0572 81.6063 42.8314C81.9218 43.3711 82.109 44.0241 82.2051 44.6476C82.3604 45.6456 82.1164 46.5623 81.1431 47.0823C80.1278 47.6244 79.1224 47.3533 78.4373 46.582C77.6463 45.69 77.045 44.6205 76.4314 43.588C76.1308 43.0779 75.9903 42.4741 75.7735 41.9024C75.6626 41.964 75.5936 41.9837 75.5492 42.0281C75.1845 42.3903 74.8247 42.7551 74.465 43.1198C74.2949 42.5801 73.9056 42.001 73.9918 41.5032C74.428 38.97 75.3003 36.5821 77.0056 34.6033C78.6197 32.7329 80.729 32.4422 83.0331 32.9054C83.3338 32.9646 83.6566 32.9128 83.9424 32.7058C81.976 32.1908 79.975 31.7768 78.0554 31.1238C76.4856 30.5915 74.9578 29.867 73.5138 29.0464C72.6513 28.556 71.9637 28.4254 71.116 28.9331C70.5418 29.2781 69.9135 29.5294 69.1249 29.9089C70.2806 31.7054 71.3871 33.3737 72.4319 35.0814C72.8262 35.7245 73.1047 36.4441 73.3585 37.1563C73.3905 37.245 72.9026 37.6861 72.7227 37.6491C72.1362 37.5235 71.5645 37.2893 71.0199 37.0281C65.776 34.485 62.0402 30.5028 59.7682 25.148C59.1373 23.662 58.5779 22.1465 57.9668 20.5965C57.6021 24.5393 57.2448 28.4033 56.885 32.3116C57.2201 32.4668 57.6661 32.6048 58.0235 32.8636C58.228 33.0139 58.4301 33.3909 58.3783 33.6078C58.3315 33.8172 57.9323 34.1179 57.7302 34.0858C56.3502 33.8764 56.1235 34.83 55.6553 35.7985C54.7559 37.6565 53.6371 39.4061 52.607 41.2001C56.1901 40.3253 58.5286 42.5973 60.9214 44.6008C61.6681 45.2267 61.6582 46.0941 60.6109 46.5254C61.2196 47.7723 61.8554 48.8984 62.3261 50.0887C62.9372 51.6436 62.6612 52.9127 61.7396 53.5066C60.7834 54.1251 59.3123 53.8664 58.2526 52.6909C56.2911 50.515 55.0861 48.0704 56.0151 45.0024C54.2433 44.0759 52.4641 44.554 51.4119 46.2814C51.2542 46.5401 51.0915 46.7964 50.9338 47.0552C50.3079 48.1 49.7436 48.2553 48.7012 47.7131C48.2133 47.4593 47.6933 47.2696 46.9713 46.9541C46.3331 50.165 44.8496 52.9817 46.131 56.3405C48.7529 63.2108 52.0526 69.6523 56.9441 75.187C61.4019 80.2338 66.4315 84.5068 73.1466 86.2515C80.5639 88.1761 85.2559 86.3452 90.7635 79.3319C94.1075 75.0737 95.103 69.8889 95.756 64.6401C97.035 54.3395 95.9138 44.278 92.8556 34.3914Z" fill="#FFF8F8"/>
<path d="M110.495 125.898C109.995 125.19 109.524 124.461 108.981 123.788C108.799 123.564 108.437 123.486 108.157 123.34C108.06 123.671 107.772 124.129 107.895 124.311C108.667 125.453 109.44 126.624 110.397 127.604C110.98 128.202 111.421 128.737 111.579 129.572C111.822 130.862 112.18 132.13 112.382 133.457C110.495 132.014 109.061 130.243 108.206 128.049C106.888 124.661 106.155 121.161 106.102 117.505C106.009 110.997 106.352 104.531 107.7 98.1478C107.787 97.7324 108.065 97.1641 108.402 97.0249C110.679 96.0835 112.985 95.209 115.303 94.3709C117.8 93.4678 120.133 93.8561 122.353 95.3098C123.43 96.015 124.115 96.9315 124.521 98.1259C127.381 106.564 130.457 114.936 133.063 123.452C135.658 131.934 137.889 140.533 140.059 149.137C140.823 152.166 140.89 155.367 141.357 158.478C141.779 161.29 142.274 164.092 142.818 166.883C142.972 167.677 142.815 168.119 142.149 168.58C134.342 173.992 125.822 177.307 116.212 177.133C112.851 177.072 109.485 176.602 106.146 176.138C99.4307 175.205 92.765 175.282 86.1009 176.588C83.7603 177.046 81.3732 177.504 79.0031 177.528C73.3289 177.586 67.6402 178.462 61.9754 177.387C61.7943 177.353 61.6141 177.313 61.4295 177.097C62.8499 176.987 64.2733 176.906 65.6895 176.756C66.7434 176.644 67.8122 176.529 68.826 176.244C69.3344 176.102 69.7353 175.577 70.1848 175.224C69.671 175.011 69.1633 174.632 68.6424 174.613C65.6878 174.504 62.7203 174.608 59.777 174.381C57.8751 174.235 56.0075 173.646 54.1642 173.082C57.6962 173.082 61.229 173.115 64.76 173.057C65.5266 173.044 66.2878 172.702 67.0256 172.254C60.2807 171.958 53.6595 171.055 47.025 170.038C48.7983 168.57 50.7754 168.149 52.969 168.445C57.3036 169.032 61.6597 169.364 66.0126 168.752C67.8933 168.488 69.9164 168.506 71.4659 167.095C71.8607 166.736 72.2077 166.324 72.5766 165.936C72.5179 165.853 72.4593 165.77 72.4004 165.687C70.8314 166.011 69.2678 166.559 67.692 166.596C66.0471 166.634 64.3664 166.286 62.7462 165.912C61.2312 165.563 59.3768 166.103 58.1723 164.429C58.3948 164.326 58.4899 164.242 58.5841 164.243C63.6994 164.306 68.5776 162.96 73.4339 161.617C76.2944 160.826 79.0479 161.15 81.8301 161.758C82.523 161.91 83.2894 162.128 83.8163 162.565C85.8407 164.24 88.2354 164.496 90.6804 164.449C94.3926 164.379 98.1195 164.35 101.807 163.973C103.963 163.752 106.023 162.671 108.181 162.358C112.188 161.775 116.228 161.33 120.269 161.113C122.202 161.009 124.168 161.579 126.125 161.793C126.47 161.831 126.842 161.62 127.202 161.524C126.991 161.24 126.84 160.817 126.56 160.698C125.552 160.27 124.474 160.003 123.479 159.551C123.084 159.371 122.672 158.915 122.549 158.501C122.032 156.76 121.685 154.967 121.161 153.228C118.523 144.475 115.867 135.729 113.175 126.993C112.663 125.331 112.002 123.71 111.32 122.108C111.165 121.743 110.64 121.535 110.286 121.255C110.216 121.702 110.036 122.165 110.099 122.593C110.256 123.672 110.524 124.734 110.747 125.803C110.663 125.834 110.579 125.866 110.495 125.898Z" fill="#FFF8F8"/>
<path d="M66.5068 103.265C68.0914 102.934 69.8178 102.559 71.5499 102.214C73.7606 101.773 75.7692 99.6455 76.2601 97.1662C76.6519 95.1866 76.4341 93.2394 75.8934 91.3158C75.7613 90.8461 75.6224 90.3782 75.4284 89.7086C84.7674 91.0433 90.313 85.7188 95.1658 78.6072C95.1084 79.448 95.0074 80.0601 95.0352 80.6663C95.1742 83.6885 95.2398 86.7197 95.5355 89.7278C95.9002 93.4402 98.1466 95.9074 101.296 97.6637C100.482 103.856 99.9189 110.1 97.9763 116.08C96.6547 120.148 95.0904 124.138 93.7886 128.212C92.1972 133.193 88.2911 134.713 83.6851 135.248C79.5339 135.73 75.6155 134.768 71.8479 133.099C70.6012 132.547 69.4026 131.885 68.1885 131.261C65.0259 129.634 62.794 125.827 63.2292 122.28C63.6023 119.24 64.3339 116.245 64.8602 113.222C65.4309 109.946 65.9479 106.659 66.5068 103.265Z" fill="#FFF8F8"/>
<path d="M126.366 96.4975C124.675 93.3802 121.972 91.7021 118.601 90.9677C118.044 90.847 117.578 90.847 117.3 90.1447C113.941 81.7366 111.385 73.0822 109.503 64.238C108.406 59.0853 107.593 53.8709 106.671 48.6812C106.615 48.3633 106.676 48.0035 106.77 47.6881C108.685 41.2194 107.142 35.3102 103.828 29.7089C102.825 28.0135 101.294 27.0328 99.2786 26.8603C98.9459 26.8332 98.5023 26.6656 98.3348 26.4142C96.9967 24.396 95.6832 22.3876 94.9119 20.0318C94.2663 18.0703 93.4137 16.1112 92.2974 14.3788C88.2437 8.0753 82.4009 3.891 75.437 1.45632C69.816 -0.510152 64.1901 -0.138051 59.0867 3.3119C58.0098 4.03885 57.1276 5.08616 56.2675 6.08172C56.0753 6.3035 56.0606 6.67806 56.0409 7.05016C54.7841 6.78649 52.9679 7.40748 52.1227 7.57259C48.4731 8.28722 45.7625 10.4927 43.3697 13.1788C40.3091 16.6139 38.175 20.5912 36.9552 24.9899C35.1243 31.5916 34.2668 38.3313 35.4668 45.145C35.871 47.4491 36.9207 49.6398 37.6896 51.9241C35.4348 53.2672 34.4762 54.8049 34.0942 57.6486C33.0124 65.7264 39.2125 74.0408 46.3095 75.5169C47.1351 75.6894 47.3839 76.059 47.5367 76.8402C47.6969 77.6731 48.0099 78.543 48.4879 79.2379C49.7989 81.1304 52.687 81.8672 53.892 78.9644C53.9068 78.9249 54.0152 78.9249 54.2074 78.8732C54.0842 82.5474 54.1705 86.2068 53.7836 89.8144C53.4016 93.3999 52.5441 96.9337 51.9724 100.068C51.7728 100.201 51.5756 100.334 51.381 100.462H128.342C127.731 99.1244 127.073 97.8011 126.366 96.4975ZM52.6944 77.3897C52.4135 77.9244 51.8935 78.8214 51.615 78.7721L49.3627 76.0615C49.6437 75.9949 49.7841 75.9358 49.927 75.9333C50.8955 75.9259 51.8664 75.9284 53.0295 75.9284C52.9162 76.4607 52.9063 76.9782 52.6944 77.3897ZM73.1452 86.2511C66.4301 84.5065 61.4006 80.2334 56.9428 75.1867C52.0512 69.652 48.7516 63.2104 46.1296 56.3401C44.8482 52.9813 46.3317 50.1647 46.9699 46.9538C47.692 47.2692 48.2119 47.4589 48.6998 47.7127C49.7422 48.2549 50.3066 48.0996 50.9325 47.0548C51.0902 46.796 51.2528 46.5398 51.4105 46.281C52.4628 44.5536 54.242 44.0755 56.0138 45.0021C55.0847 48.0701 56.2897 50.5146 58.2513 52.6905C59.3109 53.866 60.7821 54.1247 61.7382 53.5062C62.6598 52.9123 62.9358 51.6432 62.3247 50.0883C61.854 48.898 61.2182 47.7719 60.6096 46.525C61.6569 46.0937 61.6667 45.2263 60.9201 44.6004C58.5273 42.597 56.1887 40.3249 52.6057 41.1997C53.6357 39.4058 54.7545 37.6561 55.654 35.7981C56.1222 34.8296 56.3489 33.876 57.7289 34.0854C57.9309 34.1175 58.3301 33.8168 58.377 33.6074C58.4287 33.3905 58.2266 33.0135 58.0221 32.8632C57.6648 32.6044 57.2187 32.4664 56.8836 32.3112C57.2434 28.4029 57.6007 24.5389 57.9654 20.5961C58.5766 22.1462 59.136 23.6617 59.7668 25.1476C62.0388 30.5024 65.7746 34.4846 71.0185 37.0278C71.5631 37.289 72.1349 37.5231 72.7213 37.6488C72.9012 37.6857 73.3892 37.2446 73.3571 37.1559C73.1033 36.4437 72.8249 35.7242 72.4306 35.081C71.3857 33.3733 70.2793 31.705 69.1236 29.9085C69.9121 29.529 70.5405 29.2777 71.1147 28.9327C71.9624 28.4251 72.6499 28.5557 73.5124 29.0461C74.9564 29.8667 76.4843 30.5911 78.054 31.1234C79.9736 31.7764 81.9746 32.1904 83.9411 32.7055C83.6552 32.9125 83.3324 32.9642 83.0318 32.9051C80.7277 32.4418 78.6183 32.7326 77.0042 34.6029C75.299 36.5817 74.4266 38.9696 73.9904 41.5028C73.9042 42.0006 74.2936 42.5797 74.4636 43.1194C74.8234 42.7547 75.1831 42.39 75.5478 42.0277C75.5922 41.9834 75.6612 41.9636 75.7721 41.902C75.9889 42.4737 76.1294 43.0775 76.4301 43.5876C77.0437 44.6201 77.6449 45.6896 78.436 46.5817C79.121 47.353 80.1264 47.624 81.1417 47.0819C82.1151 46.5619 82.359 45.6452 82.2038 44.6472C82.1077 44.0238 81.9204 43.3707 81.605 42.8311C80.57 41.0568 79.4586 39.3294 78.293 37.4492C79.7691 36.2811 81.2008 34.3294 83.8696 35.6576C84.5424 35.9903 84.9095 35.4777 85.0796 34.8494C85.2422 34.2456 85.4122 33.6419 85.5601 33.1022H87.5192C87.534 33.0283 87.5487 32.9568 87.566 32.8829C85.2841 31.2811 83.0047 29.6794 80.745 28.0924C81.2871 27.6143 81.5926 27.3433 81.9007 27.0722C81.5926 26.7691 81.324 26.4068 80.9692 26.1752C80.5946 25.9312 80.1042 25.8672 79.7223 25.6306C78.9116 25.1254 78.0195 24.6695 77.3714 23.9919C77.2457 23.8613 77.1225 23.7282 77.0017 23.5951C76.9204 23.5089 76.8391 23.4202 76.7603 23.3315C76.637 23.1959 76.5138 23.0579 76.3931 22.9199C76.2354 22.74 76.0752 22.5552 75.9199 22.3729C75.6119 22.0131 75.3063 21.6508 75.0032 21.2861C75.0032 21.2837 75.0008 21.2837 75.0008 21.2837C74.9195 21.1826 74.8357 21.0841 74.7544 20.9855C74.7544 20.9855 74.7544 20.983 74.7519 20.983C74.54 20.7267 74.328 20.4729 74.1112 20.2191C74.1063 20.2117 74.1013 20.2043 74.094 20.1969C73.9239 19.9949 73.7514 19.7953 73.5789 19.5957C73.2758 19.2482 72.8865 18.9747 72.4478 18.5878C72.3049 18.9278 72.1299 19.1521 72.1817 19.2482C73.2561 21.1432 74.3576 23.0234 75.4468 24.8963C73.9313 25.5468 72.4947 25.532 71.1664 24.1323C69.3922 22.262 67.5119 20.4951 65.6539 18.7061C64.9467 18.0259 64.2024 17.3778 63.4188 16.7913C63.2192 16.6435 62.7584 16.7076 62.5021 16.8382C62.3838 16.8998 62.4134 17.3778 62.4824 17.6366C62.645 18.2502 62.9605 18.8317 63.0566 19.4527C63.6431 23.3019 65.3286 26.7617 67.0265 30.1796C67.8421 31.8208 69.1704 33.2057 70.2793 34.7015C69.2467 33.9031 68.0984 33.2131 67.2236 32.2718C63.8279 28.6148 61.3439 24.3664 59.5278 19.7287C58.9462 18.2453 58.4336 16.7347 57.8521 15.2512C57.7634 15.0245 57.4701 14.8791 57.2705 14.6967C57.1448 14.9087 56.9354 15.1107 56.9058 15.335C56.5682 17.8115 56.238 20.2906 55.9472 22.7721C55.6096 25.6725 55.3213 28.5778 54.9788 31.4783C54.9221 31.9711 54.9516 32.6759 54.0596 32.5478C54.0349 32.3974 54.0029 32.289 54.0054 32.1806C54.035 29.0313 54.0744 25.882 54.0916 22.7327C54.0941 22.1092 54.0571 21.4562 53.0394 21.0742C52.0833 24.0091 51.0828 26.8233 50.2523 29.6843C48.5372 35.5862 46.9502 41.525 45.2253 47.4244C44.8261 48.7847 44.0769 50.039 43.488 51.345C43.345 51.3056 43.2021 51.2662 43.0592 51.2268C42.8842 49.7285 42.6008 48.2376 42.5614 46.7369C42.4776 43.5161 42.5244 40.2904 42.5047 37.0672C42.4998 36.5029 42.4357 35.941 42.3988 35.3792C42.2509 35.3743 42.1006 35.3693 41.9527 35.3644C40.6639 37.9469 40.7403 40.8005 40.7305 43.5876C40.7206 46.4042 40.9868 49.2233 41.1346 52.1016C40.7034 51.9488 39.9123 51.9143 39.6536 51.5249C39.1213 50.7241 38.7393 49.7655 38.5299 48.8192C36.8936 41.419 37.1548 34.0312 38.9316 26.7026C40.2302 21.3527 42.4628 16.4316 46.4475 12.4912C48.6506 10.3128 52.6427 7.93237 55.8881 7.79437C56.1493 7.78451 56.4006 7.60216 56.8467 7.42473C56.7851 7.37052 56.7185 7.32123 56.6471 7.27934C56.8836 7.19556 57.1128 7.10438 57.3223 6.97624C58.993 5.95358 60.5233 4.59084 62.3148 3.89839C67.7707 1.78406 73.1206 2.36316 78.2068 5.21923C80.0254 6.23943 81.8095 7.33109 83.5493 8.48189C90.2299 12.9101 93.7759 19.502 96.1095 26.9022C96.1909 27.1609 96.1243 27.6242 95.9444 27.7819C95.3259 28.3166 94.6236 28.7602 93.9829 29.2186C91.77 24.2851 88.4802 20.1821 84.8701 16.3157C84.4068 15.818 83.7341 15.5149 83.1574 15.1206C83.0392 15.2487 82.9209 15.3769 82.8001 15.505C83.0515 15.9313 83.2708 16.3798 83.5566 16.779C85.1831 19.0683 86.9376 21.2763 88.4309 23.6469C89.6039 25.5123 90.4689 27.57 91.4694 29.5438C91.0406 29.3935 90.565 29.3147 90.1978 29.0732C89.1949 28.4127 88.1919 27.7548 87.1914 27.0944C83.8252 24.8815 80.464 22.6563 77.0954 20.4434C76.7134 20.1895 76.329 19.9382 75.9446 19.6868C75.6735 19.5119 75.2669 19.5464 74.9219 19.4823C74.9318 19.5488 74.9342 19.6178 74.9367 19.6868C74.9515 20.017 74.9244 20.3768 75.092 20.5888C75.5774 21.2097 76.1294 21.8209 76.7701 22.2694C77.0831 22.4887 77.396 22.708 77.709 22.9298C78.6134 23.5631 79.5153 24.1964 80.4197 24.8297C81.3191 25.4581 82.2211 26.0865 83.123 26.7124C84.0175 27.3359 84.912 27.9544 85.809 28.5754C85.8164 28.5803 85.8238 28.5852 85.8287 28.5877C87.635 29.8395 89.4437 31.0815 91.2599 32.3161C92.0657 32.8656 92.566 33.4595 92.8543 34.391C95.9124 44.2776 97.0336 54.3391 95.7547 64.6397C95.1017 69.8885 94.1061 75.0733 90.7621 79.3315C85.2545 86.3448 80.5626 88.1757 73.1452 86.2511Z" fill="#FFF8F8"/>
<path d="M144.643 168.621C144.444 169.592 144.256 170.647 142.8 170.381C142.613 170.346 142.352 170.615 142.149 170.775C132.327 178.569 121.194 181.388 108.828 179.629C104.227 178.973 99.6584 178.101 94.9838 178.062C95.9941 177.054 97.0981 176.218 98.276 175.519C108.468 169.476 124.308 173.643 133.934 165.775C135.299 164.659 136.509 163.296 137.174 161.662C138.534 158.313 137.423 154.521 136.211 151.115C133.042 142.214 129.234 133.557 125.383 124.93C123.002 119.6 120.319 113.947 115.299 110.968C112.643 109.39 109.156 109.05 106.226 109.91C105.408 110.152 104.634 110.485 103.934 110.913C102.751 111.63 101.778 112.614 101.162 113.858C100.974 114.23 100.822 114.625 100.703 115.043C100.233 113.792 99.7521 112.545 99.2568 111.303C96.657 104.768 93.7172 98.3678 90.4496 92.1382C89.4663 90.2629 87.8399 88.1412 85.9375 87.9515C85.5432 87.9096 85.1366 87.9539 84.7226 88.0993C85.7823 86.3399 86.8 84.5459 87.7487 82.7174C90.5259 77.3798 92.7241 71.754 93.6432 65.8299C95.1464 56.1281 93.1109 46.1184 89.2273 37.1017C88.6457 35.7488 88.0223 34.4156 87.3618 33.1022C87.2682 32.9125 87.1721 32.7252 87.076 32.5379C86.211 30.8425 85.287 29.1791 84.3185 27.5404C83.6458 26.3994 82.9484 25.2733 82.2337 24.1594C82.1056 23.9598 81.975 23.7627 81.8395 23.5631C79.5452 20.1797 76.2924 16.848 74.6981 13.164C73.3871 10.1329 72.9904 6.61398 73.5103 3.2626C73.6286 2.49868 73.7961 1.74462 74.0105 1.00781C74.4861 1.14088 74.9617 1.28874 75.4373 1.4563C82.4013 3.89098 88.2441 8.07528 92.2977 14.3788C93.4141 16.1112 94.2667 18.0703 94.9123 20.0318C95.6836 22.3876 96.9971 24.396 98.3352 26.4142C98.5027 26.6656 98.9463 26.8332 99.279 26.8603C101.295 27.0328 102.825 28.0135 103.828 29.7089C107.142 35.3102 108.685 41.2194 106.77 47.6881C106.677 48.0035 106.615 48.3633 106.672 48.6812C107.593 53.8709 108.407 59.0853 109.503 64.238C111.386 73.0822 113.941 81.7366 117.3 90.1447C117.578 90.847 118.044 90.847 118.601 90.9677C121.972 91.702 124.676 93.3802 126.366 96.4975C127.073 97.8011 127.731 99.1244 128.342 100.462C131.81 108.038 133.892 116.098 136.181 124.097C138.621 132.616 139.983 141.357 141.869 149.991C142.652 153.584 143.665 157.128 144.491 160.711C145.094 163.323 145.183 165.979 144.643 168.621Z" fill="#FE4A23"/>
<path d="M95.9458 27.7823C95.3273 28.317 94.625 28.7606 93.9843 29.2189C91.7714 24.2855 88.4816 20.1825 84.8715 16.3161C84.4082 15.8183 83.7354 15.5152 83.1588 15.121C83.0405 15.2491 82.9222 15.3772 82.8015 15.5054C83.0528 15.9317 83.2722 16.3802 83.558 16.7794C85.1844 19.0687 86.939 21.2767 88.4323 23.6473C89.6053 25.5127 90.4702 27.5703 91.4707 29.5442C91.042 29.3939 90.5663 29.315 90.1992 29.0735C89.1962 28.4131 88.1933 27.7552 87.1928 27.0947C85.3372 25.87 83.4816 24.6477 81.626 23.423C79.874 22.2673 78.1465 20.9317 76.2712 20.0026C75.9238 19.8326 75.5541 19.6847 75.1673 19.6724C74.7804 19.6601 74.3713 19.8055 74.1446 20.1185C74.1273 20.1431 74.1101 20.1702 74.0953 20.1973C73.9253 19.9952 73.7528 19.7956 73.5803 19.596C73.2772 19.2486 72.8878 18.975 72.4492 18.5882C72.3063 18.9282 72.1313 19.1525 72.183 19.2486C73.2575 21.1436 74.359 23.0238 75.4482 24.8966C73.9327 25.5472 72.496 25.5324 71.1678 24.1327C69.3935 22.2624 67.5133 20.4955 65.6553 18.7064C64.948 18.0263 64.2038 17.3782 63.4202 16.7917C63.2206 16.6439 62.7598 16.7079 62.5035 16.8385C62.3852 16.9001 62.4148 17.3782 62.4838 17.637C62.6464 18.2506 62.9618 18.8321 63.0579 19.4531C63.6444 23.3023 65.33 26.7621 67.0278 30.18C67.8435 31.8212 69.1717 33.2061 70.2806 34.7019C69.2481 33.9035 68.0998 33.2135 67.225 32.2721C63.8292 28.6152 61.3453 24.3668 59.5291 19.7291C58.9476 18.2456 58.435 16.735 57.8534 15.2516C57.7647 15.0249 57.4715 14.8795 57.2719 14.6971C57.1462 14.909 56.9367 15.1111 56.9072 15.3353C56.5696 17.8119 56.2394 20.291 55.9486 22.7725C55.611 25.6729 55.3226 28.5782 54.9801 31.4786C54.9234 31.9715 54.953 32.6763 54.0609 32.5481C54.0363 32.3978 54.0043 32.2894 54.0067 32.181C54.0363 29.0316 54.0757 25.8823 54.093 22.733C54.0954 22.1096 54.0585 21.4565 53.0407 21.0746C52.0846 24.0095 51.0841 26.8237 50.2537 29.6847C48.5386 35.5866 46.9516 41.5254 45.2266 47.4248C44.8274 48.7851 44.0783 50.0394 43.4893 51.3454C43.3464 51.306 43.2035 51.2666 43.0605 51.2271C42.8856 49.7289 42.6022 48.238 42.5628 46.7373C42.479 43.5165 42.5258 40.2908 42.5061 37.0676C42.5012 36.5033 42.4371 35.9414 42.4001 35.3796C42.2523 35.3746 42.1019 35.3697 41.9541 35.3648C40.6653 37.9473 40.7417 40.8009 40.7318 43.588C40.722 46.4046 40.9881 49.2237 41.136 52.102C40.7047 51.9492 39.9137 51.9147 39.655 51.5253C39.1227 50.7244 38.7407 49.7658 38.5312 48.8196C36.895 41.4194 37.1562 34.0316 38.9329 26.7029C40.2316 21.353 42.4642 16.4319 46.4489 12.4916C48.6519 10.3132 52.644 7.93274 55.8894 7.79475C56.1506 7.78489 56.402 7.60253 56.848 7.42511C56.7864 7.3709 56.7199 7.32161 56.6484 7.27972C56.885 7.19593 57.1142 7.10476 57.3236 6.97662C58.9944 5.95395 60.5247 4.59122 62.3162 3.89877C67.772 1.78444 73.1219 2.36354 78.2081 5.21961C80.0267 6.23981 81.8109 7.33147 83.5506 8.48227C90.2312 12.9105 93.7773 19.5024 96.1109 26.9025C96.1922 27.1613 96.1257 27.6246 95.9458 27.7823Z" fill="black"/>
<path d="M82.6016 64.0326C81.1132 67.4456 78.7859 69.5422 75.9111 71.1079C74.4109 71.9248 72.7884 72.3556 71.0896 71.9761C70.511 71.8467 69.6795 71.434 69.5551 70.9865C69.3126 70.1134 70.2298 69.984 70.8821 69.8085C74.9853 68.7051 78.1199 66.2763 80.5087 62.8111C80.9323 62.1967 80.9244 61.6593 80.7036 60.9212C80.1664 59.1241 79.7832 57.2761 79.4444 55.4289C79.3771 55.0625 79.7852 54.6091 79.9739 54.1956C80.1933 54.5423 80.4404 54.8747 80.6275 55.2382C81.8527 57.6209 82.949 60.0794 84.3211 62.3734C85.2824 63.9804 86.8383 64.8663 88.8637 64.5262C89.0744 64.4907 89.4731 64.6287 89.5197 64.7721C89.5983 65.0139 89.5599 65.485 89.4034 65.5779C88.8036 65.934 88.157 66.3554 87.4919 66.4288C85.8817 66.6063 84.4076 66.139 83.2339 64.9606C82.9742 64.7002 82.8098 64.3443 82.6016 64.0326Z" fill="black"/>
<path d="M66.6743 52.2637C66.2463 49.5996 65.8463 47.1009 65.4412 44.6031C65.3868 44.2677 65.2401 43.9333 65.2564 43.6043C65.2695 43.3394 65.4023 42.9513 65.5955 42.8611C65.7889 42.7709 66.2364 42.8956 66.3754 43.077C66.8786 43.7339 67.4047 44.4082 67.7327 45.1585C69.4882 49.1735 69.8621 53.3332 68.883 57.6106C68.6802 58.4965 68.4666 59.3814 68.3116 60.276C68.106 61.4622 68.469 61.9684 69.6689 61.8913C70.4671 61.84 71.2531 61.4842 72.0262 61.2119C72.4128 61.0756 72.7381 60.7612 73.126 60.6323C73.8502 60.3918 74.2176 60.7831 74.0257 61.53C73.5653 63.3213 70.2337 65.0766 68.0955 64.6547C65.9466 64.2306 64.8572 62.4475 65.2835 59.9825C65.7332 57.3792 66.2189 54.7819 66.6743 52.2637Z" fill="black"/>
<path d="M53.1914 55.8693C53.5411 55.2451 53.8915 54.4863 54.379 53.8291C54.5312 53.6238 55.1249 53.5474 55.3856 53.6763C55.647 53.8057 55.9201 54.2872 55.8836 54.576C55.7427 55.6916 55.5381 56.8079 55.2409 57.8922C55.0615 58.5472 54.2084 58.5895 53.8348 57.9338C53.5325 57.4035 53.4521 56.7468 53.1914 55.8693Z" fill="black"/>
<path d="M87.9138 46.6194C86.7655 46.4196 85.9616 46.3568 85.2152 46.1162C84.8547 46.0002 84.3618 45.5512 84.3601 45.2506C84.3581 44.8651 84.7014 44.3262 85.0526 44.1197C85.9904 43.5689 88.2142 44.6039 88.402 45.6825C88.4572 45.9999 88.0365 46.3999 87.9138 46.6194Z" fill="black"/>
<path d="M50.0575 54.9832C50.6812 54.1028 51.1844 53.1752 51.8985 52.4581C52.4052 51.9495 53.2171 51.999 53.694 52.6582C54.2093 53.3706 53.5584 53.6885 53.0939 54.0858C52.557 54.5449 52.1107 55.1087 51.5878 55.5858C51.3682 55.7861 50.9623 56.0631 50.8004 55.983C50.5296 55.8489 50.3865 55.4566 50.0575 54.9832Z" fill="black"/>
<path d="M56.3743 56.2487C56.4869 55.7672 56.4775 55.4153 56.6431 55.195C56.8649 54.9 57.222 54.7065 57.5211 54.4697C57.6813 54.7768 57.9305 55.0693 57.9829 55.3938C58.0975 56.0993 58.136 56.8206 58.1527 57.5365C58.1579 57.7602 58.0167 58.1634 57.9021 58.1784C57.6449 58.2122 57.2175 58.1368 57.117 57.9596C56.7897 57.383 56.5783 56.7405 56.3743 56.2487Z" fill="black"/>
<path d="M80.5364 71.158C80.1463 72.5111 78.4245 74.0086 77.5036 74.0074C77.2813 74.0071 76.9452 73.8563 76.8696 73.6836C76.7954 73.5143 76.9151 73.105 77.0726 73.0143C78.1261 72.4073 79.2123 71.8576 80.5364 71.158Z" fill="black"/>
<path d="M88.1911 41.9581C87.4259 42.1188 86.665 42.3058 85.8932 42.4229C85.6825 42.4549 85.3752 42.3339 85.2342 42.175C85.1351 42.0631 85.1788 41.6173 85.268 41.5796C85.8579 41.3305 86.4713 41.0235 87.089 40.9941C87.5112 40.9742 87.953 41.3739 88.3862 41.5858C88.3214 41.7102 88.2564 41.8342 88.1911 41.9581Z" fill="black"/>
<path d="M87.3888 38.3031C87.5966 38.449 87.9342 38.686 88.2718 38.9231C87.997 39.1629 87.7338 39.4179 87.4428 39.6363C87.2969 39.7457 87.1015 39.8465 86.9273 39.8487C86.4701 39.8548 85.6947 39.9436 85.6109 39.7521C85.2937 39.0278 85.9014 38.6979 86.4926 38.4736C86.6998 38.395 86.9337 38.3864 87.3888 38.3031Z" fill="black"/>
<path d="M28.5437 88.6878C28.5124 88.9515 28.4729 89.2147 28.4513 89.4791C28.2733 91.654 27.0042 92.3975 25.1381 91.2807C23.9764 90.5855 22.9128 89.7006 21.8907 88.8036C19.7675 86.9404 17.5534 85.2253 14.8979 84.1896C14.1635 83.9032 13.3686 83.7127 12.5859 83.6363C12.2217 83.6009 11.8208 83.9427 11.4364 84.1137C11.6754 84.451 11.8407 84.9224 12.1668 85.1026C13.5253 85.8529 15.0206 86.3845 16.2986 87.2447C17.8308 88.2765 19.1697 89.5907 20.6349 90.7277C21.9752 91.7681 23.3498 92.7691 24.7593 93.7124C25.14 93.9672 25.7009 93.9606 26.1831 94.0532C26.643 94.1415 27.3985 94.0614 27.5161 94.3026C27.8694 95.0283 28.0979 95.8684 28.1405 96.6762C28.1777 97.3802 27.5663 97.793 26.883 97.653C25.7401 97.4189 24.5316 97.2294 23.5156 96.7028C20.4525 95.1151 17.4705 93.3716 14.4533 91.6949C13.5918 91.2161 12.7348 90.7233 11.84 90.3145C11.6079 90.2085 11.2422 90.3953 10.9376 90.4475C10.996 90.7257 10.9736 91.0666 11.1303 91.2681C11.4048 91.621 11.7735 91.9086 12.13 92.1888C15.6059 94.9192 19.2914 97.3065 23.3779 99.0352C23.4732 99.0756 23.5489 99.1624 23.7307 99.3018C22.1652 99.8171 20.6807 99.6589 19.2066 99.3831C17.7527 99.1111 16.3158 98.7464 14.8602 98.4857C14.5051 98.4221 14.1054 98.6062 13.7264 98.6764C13.8696 99.0704 13.8959 99.6101 14.1754 99.8346C15.8538 101.183 17.8873 101.723 19.9565 102.031C20.9481 102.178 21.3246 102.5 21.6538 103.511C24.0493 110.865 26.4017 118.241 29.1122 125.481C30.9512 130.393 33.3418 135.1 35.5091 139.888C35.7127 140.338 36.0843 140.711 36.378 141.12C36.5394 141.08 36.7008 141.04 36.862 140.999C36.8176 140.344 36.9056 139.645 36.7048 139.042C36.0576 137.099 35.3159 135.187 34.5884 133.272C33.7935 131.179 32.9451 129.106 32.1913 126.998C32.0545 126.616 32.0951 125.98 32.3319 125.681C36.3667 120.599 40.3755 115.493 44.5485 110.526C46.2449 108.506 48.2323 106.703 50.2424 104.982C53.1931 102.456 56.7719 102.497 60.6491 102.822C59.9912 105.629 59.42 108.326 58.7226 110.991C56.899 117.958 53.975 124.506 51.0674 131.066C50.1029 133.241 49.4405 135.551 48.6302 137.795C48.5304 138.072 48.4003 138.348 48.2337 138.589C46.1857 141.551 44.0889 144.48 42.0961 147.479C41.461 148.434 40.3494 149.238 40.6702 150.661C40.6971 150.78 40.4756 150.972 40.3454 151.107C37.7158 153.84 35.0897 156.577 32.4382 159.289C32.2275 159.505 31.8445 159.621 31.5281 159.654C27.3322 160.09 23.9496 158.654 21.7406 155.019C20.6647 153.249 19.7924 151.318 19.0849 149.368C16.6046 142.528 15.1263 135.444 14.0714 128.255C12.926 120.45 11.7013 112.656 10.4366 104.87C10.0808 102.679 9.15446 100.602 9.17639 98.3151C9.18378 97.5532 8.92182 96.6961 8.52384 96.0399C7.20695 93.8679 7.3649 91.535 7.57683 89.1831C7.75401 87.2189 7.6722 85.1625 8.25278 83.3192C9.17835 80.3806 8.96716 77.3436 9.53664 74.3976C10.1956 70.9893 11.6779 70.1692 14.7734 71.7086C18.6485 73.6354 22.0045 76.3535 24.8867 79.5521C26.1997 81.0092 27.0715 82.8838 28.0304 84.6309C28.4737 85.4387 28.9337 86.591 27.9759 87.1804C27.6001 87.4116 26.4286 86.6947 25.8382 86.1657C24.2576 84.7492 22.8342 83.1583 21.2758 81.7155C19.4072 79.9853 17.2167 78.7786 14.7239 78.2066C14.1152 78.0669 13.4474 78.1859 12.8067 78.1859C12.7774 78.3037 12.7481 78.4215 12.7187 78.5395C12.9314 78.7 13.1214 78.9452 13.3597 79.0087C17.8799 80.2128 21.056 83.2761 24.0252 86.645C24.5479 87.2381 25.1317 87.8034 25.7746 88.2583C26.5999 88.8423 27.5355 89.1585 28.5602 88.7093L28.5437 88.6878Z" fill="#FFF8F8"/>
<path d="M99.4891 57.7249C101.722 61.5538 103.483 62.1228 105.812 59.8175C107.511 70.7073 109.962 81.3417 115.348 91.1418C110.878 92.5905 106.892 95.0331 102.255 95.6361C101.515 95.7322 100.961 95.6864 100.652 94.9917C100.013 93.5536 99.1685 92.1472 98.8548 90.6351C97.736 85.2402 97.8913 79.7626 98.2237 74.2996C98.5509 68.9231 98.9731 63.5523 99.357 58.1795C99.3644 58.0743 99.4154 57.9723 99.4891 57.7249Z" fill="black"/>
<path d="M101.955 152.68C100.225 155.004 98.4846 157.321 96.77 159.657C95.9154 160.821 94.8925 161.502 93.3582 161.535C91.9272 161.565 90.5071 161.946 89.0731 162.067C88.548 162.112 87.9137 161.987 87.4709 161.712C82.8231 158.822 77.8039 158.456 72.577 159.433C68.1802 160.256 63.7872 161.098 59.3927 161.933C59.2439 161.961 59.0973 162.003 58.9494 162.037C56.6877 162.561 56.2688 163.304 56.9847 165.531C57.0401 165.703 57.1052 165.872 57.0551 166.128C50.88 162.218 46.4875 156.702 42.6514 150.357C44.8768 150.885 46.8369 151.445 48.8327 151.808C61.44 154.098 74.1218 155.697 86.9672 155.121C90.3555 154.969 93.7274 154.28 97.0861 153.714C98.6596 153.449 100.183 152.89 101.73 152.464C101.805 152.536 101.88 152.608 101.955 152.68Z" fill="#FFF8F8"/>
<path d="M55.187 99.6321C57.375 93.091 57.1988 86.214 56.7629 79.0908C57.4465 79.7264 58.0019 80.2155 58.5268 80.7352C62.39 84.5612 66.8259 87.4392 72.0742 89.0003C72.3665 89.0873 72.7564 89.4173 72.799 89.6827C73.2162 92.2856 73.348 94.8941 72.4693 97.4411C71.6881 99.7055 69.0459 101.269 66.6502 100.977C62.858 100.515 59.0618 100.085 55.187 99.6321Z" fill="black"/>
<path d="M46.8767 64.697C47.8457 66.4365 48.8144 68.176 49.6123 69.6085C48.7589 70.7083 48.0103 71.6738 47.155 72.776C44.7775 72.2169 42.4736 71.0003 40.6747 69.04C38.2785 66.4284 36.3581 63.4907 36.2931 59.784C36.2677 58.3355 36.4806 56.8353 36.8746 55.4403C37.2921 53.9627 38.3036 53.4541 39.8443 53.5004C41.7841 53.5586 43.0148 54.4699 43.6439 56.2836C44.0537 57.4649 44.4916 58.6367 44.9132 59.8138C44.9219 59.8382 44.8864 59.8784 44.8497 59.9592C43.7844 59.2695 42.7489 58.5388 41.6526 57.9149C41.108 57.6049 40.4606 57.3819 39.8421 57.3309C39.4934 57.302 38.9108 57.6305 38.8014 57.9316C38.7068 58.1919 39.0412 58.7643 39.3426 58.9856C40.9 60.1295 42.4975 61.2199 44.1032 62.2961C44.6855 62.6862 44.7173 63.1285 44.7222 63.8091C44.7306 64.9824 44.9734 66.1829 45.3258 67.3071C45.4307 67.6418 46.2299 67.7591 46.7109 67.9759C46.7422 67.5351 46.8137 67.0927 46.7954 66.6541C46.7688 66.0198 46.6766 65.3882 46.6126 64.7554C46.7003 64.7359 46.7885 64.7165 46.8767 64.697Z" fill="#FFF8F8"/>
<path d="M100.242 53.6672C100.293 53.0277 100.343 52.388 100.396 51.7488C100.429 51.3555 100.467 50.9624 100.502 50.5694C100.086 50.5694 99.6694 50.5694 99.159 50.5694C98.831 48.3116 98.4909 45.9713 98.1509 43.631C98.2366 43.5859 98.3222 43.5409 98.4079 43.4958C98.8985 44.3536 99.3376 45.2473 99.9017 46.0536C100.183 46.4553 100.693 46.6966 101.1 47.0103C101.245 46.5374 101.581 46.0297 101.503 45.5975C101.146 43.6357 100.696 41.688 98.4776 40.8856C98.3135 40.8262 98.1221 40.4458 98.1657 40.2696C98.691 38.1461 99.212 36.019 99.8495 33.9278C99.9973 33.4424 100.603 33.1077 100.951 32.6671C101.118 32.4559 101.334 32.0685 101.249 31.9222C101.108 31.6782 100.704 31.3825 100.48 31.4308C99.9463 31.5454 99.2618 31.711 98.9806 32.1021C98.2219 33.1575 97.5932 34.3174 97.0136 35.486C96.7568 36.0035 96.7438 36.6417 96.6198 37.2252C96.5045 37.2437 96.3892 37.2622 96.2736 37.2804C96.0602 36.0732 95.8825 34.8581 95.6137 33.6632C95.522 33.2561 95.2771 32.8157 94.969 32.5385C94.1871 31.8344 94.2541 31.2884 95.1156 30.7551C95.47 30.5358 95.7965 30.2701 96.1563 30.0607C98.6316 28.6198 100.572 29.0624 101.789 31.6617C102.891 34.0163 103.911 36.4694 104.509 38.9877C105.742 44.1862 104.329 48.8944 101.17 53.1265C100.991 53.3656 100.857 53.6381 100.703 53.8951C100.549 53.8187 100.395 53.7428 100.242 53.6672Z" fill="#FE4A23"/>
<path d="M28.5597 88.7084C28.843 88.5255 29.1265 88.3429 29.2982 88.2321C33.9921 91.4368 38.6513 94.597 43.2828 97.7968C44.2409 98.4587 45.0972 99.2679 45.9102 99.9353C44.3134 102.565 42.9085 103.249 40.1424 102.508C38.5756 102.089 36.9012 101.415 35.7183 100.36C33.4726 98.3554 31.5481 95.9922 29.4847 93.7835C29.0195 93.2855 28.9995 92.8101 29.2455 92.151C29.8566 90.5137 29.6058 89.5329 28.5461 88.6902C28.5446 88.6877 28.5597 88.7084 28.5597 88.7084ZM42.4349 101.762C42.6453 101.745 42.8792 101.796 43.0125 101.702C43.3841 101.442 43.7143 101.122 44.0605 100.825C43.7266 100.61 43.4129 100.35 43.0549 100.189C41.8853 99.6644 40.5818 99.348 39.5428 98.6396C36.9539 96.8737 34.4923 94.9218 31.9517 93.0834C31.6136 92.8387 31.1114 92.8205 30.6851 92.6975C30.7344 93.1145 30.6646 93.5972 30.8521 93.9378C31.9909 96.0043 33.6922 97.5565 35.5889 98.9116C37.6577 100.389 39.9539 101.318 42.4349 101.762Z" fill="#FFF8F8"/>
<path d="M61.8053 151.252C59.8753 150.984 57.9177 151.101 56.334 150.388C54.6166 149.614 53.3665 147.96 52.7108 146.066C52.6263 145.823 52.8283 145.387 53.0287 145.152C54.2248 143.748 55.6193 142.61 57.4643 142.07C57.4969 142.795 57.3645 143.545 57.6092 144.14C57.8074 144.623 58.4589 144.919 58.9094 145.297C59.225 144.84 59.7585 144.403 59.8041 143.921C59.8697 143.225 59.5809 142.496 59.4182 141.652C59.9098 141.699 60.5796 141.682 61.2063 141.839C62.8209 142.242 63.226 142.805 62.982 144.431C62.6503 146.639 62.227 148.834 61.8053 151.252ZM59.899 148.762C59.9155 147.649 59.5178 147.008 58.7945 147.01C57.9177 147.013 57.6243 147.605 57.6122 148.368C57.5974 149.308 58.2852 150.271 58.9505 150.221C59.92 150.149 59.8455 149.368 59.899 148.762ZM54.2889 145.679C54.9126 146.313 55.3337 146.741 55.7546 147.168C56.0484 146.801 56.5318 146.462 56.5934 146.059C56.6965 145.385 56.4954 144.597 55.6038 144.627C55.2438 144.64 54.9015 145.167 54.2889 145.679ZM59.6629 145.85C60.3426 146.522 60.7457 146.921 61.1491 147.32C61.4727 146.974 62.0779 146.606 62.054 146.286C62.0178 145.804 61.6287 145.217 61.213 144.953C61.0284 144.835 60.4121 145.398 59.6629 145.85Z" fill="#FFF8F8"/>
<path d="M2.22217 60.3178C2.76578 59.8933 3.31432 59.5386 3.77267 59.0916C4.87666 58.0148 5.02671 57.9475 5.99269 59.099C8.57005 62.171 11.0925 65.2895 13.6311 68.3828C12.5424 68.5763 11.5331 68.7759 10.5158 68.92C10.3012 68.9506 9.98307 68.8471 9.83842 68.6896C7.38033 66.0115 4.94221 63.3154 2.22217 60.3178Z" fill="#FFF8F8"/>
<path d="M71.0815 151.994C68.601 151.828 66.4377 151.684 64.3132 151.542C64.7174 149.907 65.1067 148.456 65.4241 146.989C65.5621 146.351 65.9069 146.204 66.4732 146.276C68.0747 146.48 69.4009 147.124 70.0313 148.704C70.4187 149.676 70.6742 150.7 71.0815 151.994ZM68.4359 149.706C67.8322 149.114 67.4776 148.474 67.0052 148.37C66.2898 148.213 65.9741 148.879 65.9938 149.541C66.0158 150.273 66.1791 151.131 67.0732 151.083C67.4827 151.062 67.8544 150.324 68.4359 149.706Z" fill="#FFF8F8"/>
<path d="M71.5055 146.254C72.6893 145.627 74.1339 145.123 75.7255 145.363C76.8679 145.535 77.0868 146.521 77.3327 147.456C77.5501 148.282 77.228 148.687 76.52 149.161C75.5703 149.797 74.8167 150.724 73.9663 151.513C73.7435 151.719 73.4734 151.875 73.2251 152.054C73.0944 151.788 72.9185 151.535 72.8411 151.255C72.405 149.675 71.9924 148.088 71.5055 146.254ZM75.6718 147.489C75.1174 147.069 74.7795 146.813 74.4417 146.557C74.1558 146.982 73.6977 147.386 73.643 147.838C73.6048 148.154 74.1194 148.537 74.387 148.89C74.7549 148.489 75.1228 148.088 75.6718 147.489Z" fill="#FFF8F8"/>
<path d="M52.5734 41.2073C50.6762 42.1987 49.4138 43.6612 49.2385 45.9057C48.6121 45.9057 48.0951 45.9057 47.3911 45.9057C47.5533 45.3808 47.6779 44.9303 47.8312 44.4895C48.4539 42.6982 49.1193 40.921 49.7013 39.1169C50.0912 37.9082 50.9712 37.213 52.173 36.4067C51.9613 37.6258 51.7703 38.6093 51.6252 39.5997C51.5106 40.3803 51.6387 41.058 52.5907 41.2271C52.5914 41.2276 52.5734 41.2073 52.5734 41.2073Z" fill="#FFF8F8"/>
<path d="M90.4275 152.069C89.4978 152.365 88.894 151.926 88.8598 150.688C88.8536 150.469 88.7614 150.243 88.672 150.036C88.3681 149.332 87.7809 148.655 88.9655 148.112C90.4667 147.425 91.7195 147.407 92.2133 148.447C92.6313 149.328 92.6917 150.387 92.8366 151.378C92.8575 151.522 92.4901 151.83 92.2617 151.881C91.7481 151.996 91.2094 151.998 90.4275 152.069Z" fill="#FFF8F8"/>
<path d="M71.8166 143.778C71.5064 144.067 71.2565 144.286 71.0229 144.521C70.7851 144.76 70.5633 145.015 70.4709 145.115C68.911 144.77 67.4684 144.451 65.8657 144.096C65.8428 143.777 65.7686 143.225 65.7809 142.675C65.7856 142.457 65.9271 142.166 66.1013 142.042C67.2353 141.232 69.1355 141.352 70.203 142.283C70.7395 142.751 71.2491 143.251 71.8166 143.778Z" fill="#FFF8F8"/>
<path d="M48.1349 141.897C48.1606 142.189 48.1559 142.34 48.1891 142.482C48.6199 144.324 48.4987 145.914 46.4883 146.847C46.0583 147.047 45.7845 147.621 45.4849 148.054C45.0246 148.72 45.0413 148.732 44.1249 148.396C45.4324 146.277 46.736 144.165 48.1349 141.897Z" fill="#FFF8F8"/>
<path d="M53.1802 150.065C50.9749 149.685 49.0575 149.355 47.1403 149.025C47.108 148.902 47.0755 148.779 47.0432 148.656C47.8944 148.239 48.7142 147.727 49.6058 147.43C50.4402 147.152 51.2041 147.333 51.6967 148.261C52.006 148.843 52.542 149.306 53.1802 150.065Z" fill="#FFF8F8"/>
<path d="M83.4575 150.436C85.869 149.452 87.1406 150 87.4681 152.004C85.2002 152.803 84.3055 152.453 83.4575 150.436Z" fill="#FFF8F8"/>
<path d="M65.8123 22.4545C67.0991 23.8342 68.3857 25.2139 69.7698 26.6982C69.3332 27.0072 68.8329 27.3613 68.0525 27.9135C67.2822 26.0185 66.5592 24.2401 65.8362 22.4616L65.8123 22.4545Z" fill="#FFF8F8"/>
<path d="M49.0804 73.3738C49.4203 72.3087 49.6967 71.4425 50.0385 70.3716C50.35 70.7816 50.4934 70.9514 50.6159 71.135C51.1997 72.0091 51.7778 72.8871 52.5048 73.9852C51.2943 73.769 50.3195 73.5948 49.0804 73.3738Z" fill="#FFF8F8"/>
<path d="M81.6933 152.191C79.7396 152.191 77.9102 152.191 75.9698 152.191C77.5773 150.616 79.833 150.632 81.6933 152.191Z" fill="#FFF8F8"/>
<path d="M51.5093 33.65C51.7964 32.6919 52.0805 31.7328 52.3725 30.7764C52.4339 30.5756 52.5241 30.3836 52.6973 30.22C52.4472 31.4186 53.2436 32.9109 51.5093 33.65Z" fill="#FFF8F8"/>
<path d="M94.8186 151.352C95.5044 151.24 96.1905 151.128 96.8763 151.016C96.896 151.144 96.9157 151.273 96.9357 151.401C96.2402 151.487 95.5446 151.572 94.8492 151.658C94.8388 151.556 94.8287 151.454 94.8186 151.352Z" fill="#FFF8F8"/>
<path d="M105.333 51.6812C105.333 52.2048 105.333 52.6708 105.331 53.1373C104.548 52.5254 104.548 52.5252 105.333 51.6812Z" fill="#FFF8F8"/>
<path d="M53.9244 35.5587C53.8917 35.6142 53.8576 35.6689 53.8239 35.7234C53.7916 35.6516 53.7396 35.5814 53.7352 35.508C53.7327 35.47 53.8145 35.4266 53.8581 35.3857C53.8801 35.4434 53.9018 35.5008 53.9244 35.5587Z" fill="#FFF8F8"/>
<path d="M70.3364 34.7762L70.3372 34.841C70.3372 34.841 70.3561 34.7614 70.3576 34.7604C70.3593 34.7594 70.3364 34.7762 70.3364 34.7762Z" fill="#FFF8F8"/>
<path d="M65.8342 22.4612L65.7633 22.4722C65.7633 22.4722 65.808 22.4568 65.8095 22.4556C65.8109 22.4542 65.8342 22.4612 65.8342 22.4612Z" fill="#FFF8F8"/>
<path d="M91.4871 29.5772L91.5178 29.5862L91.5081 29.5562L91.4871 29.5772Z" fill="#FFF8F8"/>
<path d="M79.6779 29.3031L79.6765 29.3498C79.6765 29.3498 79.6947 29.2873 79.6961 29.2858C79.6976 29.2846 79.6779 29.3031 79.6779 29.3031Z" fill="#FFF8F8"/>
<path d="M42.4341 101.763C39.9528 101.319 37.6566 100.39 35.5886 98.9121C33.6919 97.557 31.9904 96.0048 30.8519 93.9382C30.6641 93.5974 30.7339 93.1149 30.6848 92.698C31.1109 92.821 31.6131 92.8392 31.9514 93.0839C34.4923 94.9222 36.9536 96.8742 39.5425 98.64C40.5815 99.3488 41.8851 99.6652 43.0546 100.19C43.4127 100.35 43.7264 100.611 44.0603 100.825C43.7138 101.122 43.3838 101.442 43.0122 101.703C42.8786 101.796 42.6445 101.746 42.4341 101.763Z" fill="black"/>
<path d="M59.9008 148.762C59.8476 149.368 59.922 150.15 58.9526 150.222C58.2872 150.271 57.5995 149.308 57.6142 148.368C57.6261 147.605 57.9198 147.013 58.7966 147.011C59.5196 147.009 59.9173 147.649 59.9008 148.762Z" fill="black"/>
<path d="M54.2916 145.679C54.9042 145.167 55.2465 144.64 55.6065 144.628C56.4981 144.597 56.6992 145.385 56.5962 146.059C56.5346 146.462 56.0511 146.801 55.7574 147.168C55.3362 146.74 54.9153 146.313 54.2916 145.679Z" fill="black"/>
<path d="M59.6641 145.85C60.4132 145.398 61.0295 144.836 61.2141 144.953C61.6298 145.218 62.0189 145.804 62.0551 146.287C62.0793 146.607 61.4738 146.974 61.1503 147.321C60.7469 146.922 60.3437 146.523 59.6641 145.85Z" fill="black"/>
<path d="M68.4346 149.706C67.8531 150.324 67.4815 151.061 67.0719 151.083C66.1781 151.131 66.0145 150.273 65.9926 149.541C65.9729 148.879 66.2885 148.213 67.0039 148.37C67.4763 148.474 67.8309 149.114 68.4346 149.706Z" fill="black"/>
<path d="M75.6714 147.488C75.1222 148.087 74.7545 148.488 74.3866 148.89C74.119 148.537 73.6047 148.154 73.6426 147.838C73.6973 147.385 74.1554 146.981 74.4413 146.556C74.7791 146.812 75.1172 147.068 75.6714 147.488Z" fill="black"/>
<path d="M11.8399 90.3146C11.6083 90.2087 11.2411 90.3959 10.938 90.4477C10.9972 90.7262 10.9725 91.0662 11.1302 91.2683C11.4062 91.6207 11.7734 91.909 12.1307 92.1899C12.6408 92.5916 13.1558 92.9859 13.6783 93.3703V91.2634C13.0745 90.9282 12.4659 90.6005 11.8399 90.3146ZM12.5866 83.6365C12.2219 83.602 11.8202 83.9421 11.4358 84.1146C11.6748 84.4522 11.8399 84.9228 12.1677 85.1027C12.6581 85.3763 13.1682 85.6178 13.6783 85.8568V83.8164C13.316 83.7326 12.9488 83.671 12.5866 83.6365ZM144.49 160.711C143.665 157.128 142.652 153.584 141.869 149.991C139.983 141.357 138.621 132.616 136.181 124.097C133.892 116.098 131.809 108.038 128.342 100.462C127.731 99.1243 127.073 97.801 126.366 96.4974C124.675 93.3801 121.972 91.702 118.601 90.9676C118.044 90.8469 117.578 90.8469 117.3 90.1446C113.941 81.7366 111.386 73.0821 109.503 64.2379C108.406 59.0852 107.593 53.8708 106.672 48.6811C106.615 48.3633 106.677 48.0035 106.77 47.688C108.685 41.2194 107.142 35.3101 103.828 29.7089C102.825 28.0135 101.295 27.0327 99.2789 26.8602C98.9462 26.8331 98.5027 26.6655 98.3351 26.4142C96.997 24.396 95.6836 22.3876 94.9123 20.0318C94.2666 18.0702 93.414 16.1112 92.2977 14.3788C88.244 8.07524 82.4012 3.89094 75.4373 1.45626C74.9617 1.28869 74.4861 1.14084 74.0105 1.00777C68.8676 -0.426421 63.7592 0.152676 59.087 3.31184C58.0101 4.0388 57.1279 5.0861 56.2679 6.08166C56.0757 6.30344 56.0609 6.67801 56.0412 7.05011C54.7844 6.78643 52.9683 7.40743 52.123 7.57253C48.4735 8.28716 45.7628 10.4927 43.37 13.1787C40.3094 16.6139 38.1754 20.5912 36.9556 24.9898C35.1246 31.5916 34.2671 38.3313 35.4672 45.1449C35.8713 47.449 36.921 49.6397 37.6899 51.9241C35.4351 53.2671 34.4765 54.8048 34.0946 57.6485C33.0128 65.7263 39.2128 74.0407 46.3099 75.5168C47.1354 75.6893 47.3843 76.059 47.5371 76.8401C47.6972 77.673 48.0102 78.5429 48.4883 79.2378C49.7992 81.1304 52.6873 81.8672 53.8923 78.9643C53.9071 78.9249 54.0156 78.9249 54.2078 78.8731C54.0846 82.5473 54.1708 86.2067 53.7839 89.8144C53.402 93.3999 52.5444 96.9336 51.9727 100.068C51.7731 100.201 51.576 100.334 51.3813 100.462C49.5158 101.682 47.7933 102.688 46.2828 103.947C44.5455 105.398 42.8648 107.003 41.4996 108.799C38.1236 113.237 34.9447 117.821 31.6845 122.345C31.4578 122.663 31.2262 122.976 30.859 123.483C29.5727 119.669 28.412 116.103 27.1651 112.569C25.9206 109.04 24.5899 105.544 23.3455 102.165C24.2622 101.621 25.2257 101.049 26.2139 100.462C27.4362 99.7379 28.7003 98.9888 29.9768 98.2298C30.206 98.5994 30.514 99.1194 30.8467 99.6246C31.034 99.9104 31.2262 100.189 31.4283 100.462C32.6111 102.074 34.0404 103.444 35.8713 104.304C39.1931 105.864 42.4163 106.396 45.5928 103.627C46.8323 102.547 47.5543 101.527 47.6923 100.462C47.8303 99.4102 47.3991 98.3111 46.332 97.0593C45.6026 96.1993 44.7746 95.3614 43.8407 94.7453C41.4972 93.2052 39.0847 91.7661 36.6697 90.3393C34.7106 89.1811 32.6801 88.1412 30.7407 86.9534C30.3045 86.6873 30.0261 86.0638 29.8166 85.5488C29.3016 84.2895 29.0281 82.912 28.375 81.739C26.6082 78.57 24.1809 75.9062 21.5737 73.4025C20.657 72.5203 19.8684 71.5518 19.0873 70.5292C17.3426 68.2497 15.5264 66.027 13.6783 63.8264C12.4042 62.306 11.1154 60.8003 9.82417 59.2947C9.02328 58.3582 7.99322 57.5722 6.95331 56.8945C5.38358 55.8718 4.27467 56.0517 3.01051 57.4218C2.26877 58.2252 1.69214 59.1838 0.952866 59.9896C0.233305 60.7757 0.356532 61.5174 0.90606 62.2444C1.49994 63.028 2.14556 63.7796 2.83309 64.4844C4.7897 66.4878 6.78081 68.4567 8.77439 70.4577C7.4782 72.6681 7.33035 75.0289 7.33528 77.4512C7.34021 78.9914 7.20467 80.5513 6.93361 82.0643C6.55165 84.191 5.94544 86.2757 5.51173 88.3925C4.86117 91.5689 4.66404 94.6345 6.57137 97.6137C7.48068 99.0307 7.98337 100.835 8.22487 102.53C9.47178 111.276 10.5905 120.041 11.7241 128.804C12.6482 135.938 14.1588 142.936 16.5269 149.73C17.2711 151.872 18.1558 153.993 19.2327 155.984C21.5515 160.272 26.3716 162.404 31.1375 161.307C32.2414 161.053 33.3947 160.536 34.2646 159.821C36.7979 157.739 39.198 155.496 41.6376 153.328C41.6352 153.326 41.6327 153.321 41.6327 153.318C41.6475 153.328 41.7091 153.419 41.7485 153.515C43.3355 157.401 45.9723 160.381 49.4468 162.714C50.8096 163.631 51.9579 164.863 53.2566 166.002C52.1994 166.002 51.3024 165.945 50.4153 166.011C48.37 166.164 46.6647 166.936 45.679 168.865C45.2231 169.755 45.2379 170.652 46.1521 171.159C47.3917 171.847 48.2369 172.951 49.3015 173.786C50.5558 174.772 52.1452 175.331 53.5917 176.073C53.9244 176.245 54.3482 176.322 54.5848 176.578C56.5932 178.752 59.1979 179.902 61.9973 180.225C64.6784 180.536 67.4359 180.302 70.1539 180.186C73.3353 180.05 76.524 179.895 79.6881 179.548C84.4614 179.02 89.1878 178.143 94.0177 178.064C94.3405 178.059 94.6633 178.057 94.9837 178.062C99.6584 178.101 104.227 178.973 108.828 179.629C121.193 181.388 132.327 178.569 142.149 170.775C142.352 170.615 142.613 170.346 142.8 170.381C144.256 170.647 144.444 169.592 144.643 168.621C145.183 165.979 145.094 163.323 144.49 160.711ZM115.348 91.1426C110.878 92.5916 106.893 95.0337 102.256 95.6349C101.516 95.731 100.962 95.6867 100.654 94.9918C100.013 93.5526 99.168 92.148 98.855 90.635C97.7363 85.2407 97.8915 79.7627 98.2242 74.2995C98.5519 68.9225 98.9733 63.5529 99.3577 58.1784C99.3651 58.0749 99.4169 57.9714 99.4908 57.7249C101.723 61.5544 103.485 62.1236 105.812 59.8171C107.512 70.7066 109.961 81.3423 115.348 91.1426ZM105.338 100.462C105.156 101.263 104.989 102.059 104.865 102.863C104.449 105.539 104.121 108.222 103.934 110.913C103.683 114.457 103.67 118.01 104.008 121.574C104.331 124.992 105.257 128.286 106.977 131.303C108.278 133.584 110.117 135.263 112.581 136.261C112.988 136.423 113.394 136.926 113.527 137.355C113.968 138.767 114.363 140.201 114.619 141.655C114.764 142.488 114.749 143.404 114.565 144.23C113.636 148.335 112.615 152.419 111.657 156.517C111.452 157.399 111.371 158.311 111.228 159.235C107.118 159.814 103.017 160.39 98.6653 161.004C99.0251 160.585 99.2567 160.363 99.4317 160.102C101.139 157.559 102.84 155.011 104.535 152.458C104.639 152.303 104.725 152.113 104.742 151.933C104.796 151.381 104.816 150.829 104.848 150.277C104.306 150.27 103.756 150.203 103.224 150.27C102.549 150.356 101.889 150.556 101.221 150.699C100.139 150.935 99.1951 151.29 98.2858 149.994C97.5219 148.902 96.0778 149.311 94.8112 149.669C94.6979 149.203 94.6067 148.769 94.4884 148.345C93.8379 146.009 91.8122 144.962 89.5229 145.736C88.8921 145.95 88.2144 146.024 87.5638 146.191C87.2386 146.275 86.896 146.369 86.6176 146.546C85.42 147.308 84.2051 148.052 83.0715 148.9C82.5195 149.314 82.1376 149.331 81.5659 148.993C81.0558 148.693 80.4446 148.557 79.8089 148.321C79.7842 147.801 79.8015 147.239 79.7275 146.687C79.3727 143.974 77.3717 142.431 74.6758 142.862C73.8823 142.988 73.4807 142.909 73.1381 142.081C72.044 139.442 68.5743 137.643 64.9716 140.987C63.1481 139.393 60.9278 139.038 58.6138 139.385C56.2013 139.747 54.0279 140.773 52.2733 142.495C51.6178 143.141 51.1891 144.013 50.6617 144.787C50.4892 145.038 50.3315 145.299 50.1664 145.558C50.0826 145.24 49.8904 144.908 49.9323 144.609C50.7455 138.939 52.3867 133.52 54.8879 128.358C57.6602 122.638 59.8312 116.687 61.2728 110.499C61.8371 108.082 61.9899 105.568 62.3521 102.937C63.3329 102.991 64.3974 103.05 65.4127 103.107C64.0574 108.247 62.9214 113.284 61.3837 118.195C59.5182 124.144 61.7952 128.666 66.0263 132.392C69.8484 135.755 74.4048 137.872 79.5674 138.348C84.4121 138.796 88.584 136.923 92.3765 134.183C93.4288 133.422 94.2223 132.145 94.8285 130.948C97.618 125.423 99.8062 119.745 101.162 113.858C102.167 109.514 102.717 105.056 102.721 100.462C102.721 100.021 102.717 99.5802 102.707 99.1366C102.702 98.8335 102.702 98.5304 102.712 98.2273C102.714 98.1189 102.758 98.0105 102.813 97.7739C103.885 97.7222 104.895 97.6704 105.992 97.6162C105.78 98.5847 105.548 99.526 105.338 100.462ZM115.959 147.377C117.532 151.386 119.015 155.164 120.538 159.052H113.402M96.9354 151.401C96.2405 151.487 95.5456 151.573 94.8506 151.657C94.8408 151.556 94.8285 151.455 94.8186 151.352C95.5061 151.241 96.1912 151.127 96.8763 151.016C96.896 151.145 96.9157 151.273 96.9354 151.401ZM92.8349 151.379C92.8571 151.522 92.4899 151.83 92.2607 151.881C91.7482 151.997 91.2085 151.997 90.4273 152.069C89.4983 152.364 88.8945 151.926 88.86 150.689C88.8526 150.469 88.7615 150.243 88.6703 150.036C88.3672 149.331 87.7807 148.656 88.9635 148.111C90.4667 147.426 91.7186 147.406 92.2114 148.446C92.6303 149.328 92.6919 150.388 92.8349 151.379ZM87.4677 152.005C85.2006 152.803 84.3061 152.453 83.4584 150.435C85.8685 149.452 87.1425 149.999 87.4677 152.005ZM71.0238 144.521C70.7848 144.76 70.563 145.014 70.4718 145.115C68.9119 144.77 67.4679 144.449 65.8661 144.097C65.844 143.777 65.7676 143.225 65.7799 142.675C65.7848 142.458 65.9277 142.165 66.1002 142.042C67.2363 141.231 69.1362 141.352 70.2032 142.283C70.7404 142.751 71.2481 143.252 71.8173 143.779C71.5068 144.067 71.2554 144.287 71.0238 144.521ZM71.0805 151.995C68.6014 151.827 66.4378 151.684 64.3137 151.541C64.7178 149.905 65.1071 148.456 65.425 146.987C65.563 146.349 65.908 146.204 66.4723 146.275C68.0741 146.48 69.3999 147.123 70.0307 148.705C70.4176 149.676 70.6739 150.699 71.0805 151.995ZM75.7256 145.364C76.869 145.534 77.0859 146.522 77.3323 147.456C77.5491 148.281 77.2288 148.685 76.5191 149.161C75.5704 149.797 74.8163 150.723 73.9661 151.512C73.7443 151.719 73.4733 151.874 73.2244 152.054C73.0938 151.788 72.9188 151.534 72.84 151.256C72.4038 149.673 71.9923 148.089 71.5043 146.253C72.6897 145.627 74.1337 145.122 75.7256 145.364ZM81.6915 152.192H75.9671C77.5762 150.615 79.831 150.632 81.6915 152.192ZM49.6046 147.429C50.4399 147.153 51.2039 147.332 51.6967 148.261C52.0047 148.843 52.5395 149.306 53.1802 150.063C50.9747 149.683 49.0575 149.356 47.1403 149.025C47.1058 148.902 47.0738 148.779 47.0417 148.656C47.8944 148.237 48.7125 147.727 49.6046 147.429ZM46.4897 146.847C46.0585 147.047 45.785 147.621 45.4843 148.054C45.026 148.72 45.0408 148.732 44.1241 148.395C45.4326 146.275 46.7362 144.163 48.1358 141.896C48.1605 142.19 48.1556 142.34 48.1901 142.48C48.6213 144.324 48.4981 145.913 46.4897 146.847ZM52.712 146.066C52.6257 145.822 52.8278 145.388 53.0298 145.152C54.225 143.747 55.6198 142.611 57.4655 142.069C57.4975 142.796 57.3645 143.545 57.6084 144.141C57.808 144.622 58.4586 144.92 58.9096 145.297C59.225 144.841 59.7597 144.402 59.8041 143.922C59.8706 143.225 59.5798 142.498 59.4172 141.652C59.91 141.699 60.5803 141.682 61.2062 141.84C62.8203 142.241 63.2269 142.806 62.983 144.43C62.6503 146.64 62.2265 148.833 61.8051 151.251C59.8756 150.984 57.9189 151.1 56.3344 150.388C54.6168 149.614 53.3675 147.961 52.712 146.066ZM56.7632 79.0924C57.4458 79.7258 58.0002 80.2161 58.5251 80.7361C62.3891 84.5606 66.8247 87.4389 72.0736 89.0012C72.3668 89.0874 72.7562 89.4176 72.7981 89.6838C73.2145 92.286 73.3476 94.8957 72.4678 97.4412C72.4383 97.525 72.4087 97.6063 72.3742 97.6852C72.3422 97.7616 72.3102 97.838 72.2732 97.9119C72.2707 97.9193 72.2682 97.9267 72.2633 97.9341C72.2264 98.0105 72.1869 98.0844 72.145 98.1583C72.1056 98.2298 72.0637 98.3013 72.0218 98.3703C72.0194 98.3752 72.0169 98.3801 72.012 98.385C71.9676 98.454 71.9233 98.5255 71.874 98.592C71.7729 98.7399 71.6596 98.8828 71.5388 99.0208C71.4871 99.08 71.4353 99.1366 71.3836 99.1933C71.3097 99.2697 71.2333 99.3461 71.1544 99.4176C71.0928 99.4767 71.0312 99.5309 70.9696 99.5851C70.8316 99.7034 70.6911 99.8143 70.5433 99.9178C70.4595 99.9794 70.3757 100.036 70.2895 100.088C70.1465 100.179 70.0011 100.263 69.8508 100.342C69.772 100.384 69.6906 100.423 69.6093 100.462C69.5231 100.502 69.4368 100.541 69.3506 100.576C69.3309 100.586 69.3087 100.595 69.289 100.603C69.2052 100.635 69.1214 100.667 69.0352 100.697C68.9391 100.731 68.8405 100.763 68.7444 100.79C68.7444 100.79 68.7444 100.79 68.7419 100.79C68.6409 100.82 68.5423 100.847 68.4413 100.869C68.3526 100.891 68.2639 100.908 68.1751 100.923C68.1554 100.928 68.1332 100.933 68.1135 100.936C68.0273 100.95 67.9435 100.963 67.8572 100.973C67.8449 100.975 67.8326 100.977 67.8178 100.977C67.7291 100.987 67.6379 100.997 67.5467 101C67.5344 101.002 67.5246 101.005 67.5147 101.002C67.4211 101.009 67.325 101.012 67.2313 101.012C67.0366 101.012 66.842 101 66.6498 100.977C65.2057 100.802 63.7617 100.63 62.3152 100.462C59.9569 100.184 57.5862 99.9129 55.1861 99.632C57.3743 93.0918 57.1994 86.2141 56.7632 79.0924ZM75.8932 91.3151C75.7626 90.8469 75.6221 90.3787 75.4299 89.7084C79.5945 90.3048 83.0074 89.5753 85.9374 87.9514C89.5771 85.9381 92.4776 82.5449 95.1661 78.607C95.1094 79.4473 95.0084 80.0609 95.0355 80.6671C95.1759 83.6883 95.24 86.7193 95.5357 89.7281C95.9004 93.4393 98.1478 95.9085 101.295 97.663C101.171 98.5945 101.056 99.5285 100.94 100.462C100.486 104.097 100.033 107.732 99.2567 111.303C98.9043 112.909 98.4903 114.504 97.9778 116.078C96.6545 120.147 95.0897 124.139 93.7885 128.212C92.1966 133.193 88.2908 134.713 83.6851 135.248C79.5353 135.731 75.6147 134.767 71.8493 133.099C70.6024 132.547 69.4023 131.884 68.1899 131.261C65.0258 129.634 62.7932 125.827 63.2294 122.281C63.6015 119.24 64.3334 116.246 64.8607 113.222C65.4324 109.945 65.9474 106.66 66.5068 103.264C68.0913 102.934 69.8188 102.559 71.5512 102.214C72.6551 101.995 73.7074 101.354 74.5428 100.462C75.388 99.563 76.0139 98.4072 76.2603 97.1652C76.6521 95.1864 76.4353 93.2397 75.8932 91.3151ZM102.179 55.5022C102.657 55.0808 103.062 54.5805 103.643 53.962C104.232 55.5145 104.451 56.8624 104.067 58.2745C103.821 59.1764 103.35 59.2602 102.689 58.6835C102.408 58.4371 102.13 58.171 101.911 57.8679C101.043 56.6752 101.093 56.4632 102.179 55.5022ZM101.79 31.6606C102.891 34.0164 103.912 36.4683 104.508 38.9868C105.743 44.1863 104.328 48.8931 101.169 53.1266C100.992 53.3657 100.858 53.6367 100.703 53.8955C100.548 53.8191 100.395 53.7427 100.242 53.6663C100.292 53.0281 100.343 52.3874 100.395 51.7491C100.43 51.3549 100.467 50.963 100.501 50.5688H99.1581C98.8304 48.3115 98.4903 45.9705 98.1503 43.6319C98.2365 43.5851 98.3228 43.5407 98.4065 43.4964C98.8994 44.3539 99.338 45.246 99.9024 46.0542C100.183 46.4559 100.693 46.695 101.1 47.0104C101.245 46.5372 101.581 46.0296 101.502 45.5959C101.147 43.6344 100.696 41.6876 98.478 40.8843C98.3129 40.8251 98.1207 40.4456 98.165 40.2682C98.6899 38.1465 99.2124 36.0174 99.8482 33.9277C99.996 33.4422 100.602 33.1071 100.95 32.666C101.117 32.4565 101.334 32.0672 101.25 31.9218C101.107 31.6778 100.703 31.3821 100.479 31.4314C99.9467 31.5447 99.2617 31.7099 98.9807 32.1017C98.2217 33.1564 97.5934 34.317 97.0143 35.4851C96.758 36.0026 96.7432 36.6408 96.62 37.2248C96.5041 37.2421 96.3883 37.2618 96.2725 37.2791C96.0606 36.0716 95.8832 34.8567 95.6146 33.6615C95.5209 33.2549 95.277 32.8163 94.9689 32.5378C94.1878 31.8331 94.2543 31.2885 95.1168 30.7537C95.4692 30.5344 95.7969 30.2683 96.1567 30.0613C98.6308 28.6197 100.573 29.0608 101.79 31.6606ZM38.9319 26.7025C40.2305 21.3526 42.4632 16.4315 46.4478 12.4912C48.6509 10.3128 52.643 7.93231 55.8884 7.79431C56.1496 7.78446 56.401 7.6021 56.847 7.42468C56.7854 7.37046 56.7188 7.32118 56.6474 7.27929C56.8839 7.1955 57.1131 7.10433 57.3226 6.97618C58.9933 5.95352 60.5236 4.59079 62.3152 3.89834C66.115 2.42471 69.8656 2.25961 73.5102 3.26256C75.0972 3.69627 76.6645 4.35422 78.2071 5.21917C80.0257 6.23937 81.8098 7.33103 83.5496 8.48184C90.2302 12.9101 93.7762 19.502 96.1099 26.9021C96.1912 27.1608 96.1246 27.6241 95.9448 27.7818C95.3262 28.3166 94.6239 28.7602 93.9832 29.2185C91.7703 24.2851 88.4806 20.1821 84.8704 16.3157C84.4072 15.8179 83.7344 15.5148 83.1578 15.1205C83.0395 15.2487 82.9212 15.3768 82.8005 15.5049C83.0518 15.9313 83.2711 16.3798 83.557 16.779C85.1834 19.0683 86.9379 21.2762 88.4313 23.6468C89.6042 25.5123 90.4692 27.5699 91.4697 29.5438C91.0409 29.3935 90.5653 29.3146 90.1981 29.0731C89.1952 28.4127 88.1922 27.7547 87.1917 27.0943C85.4076 25.9164 83.6235 24.741 81.8394 23.563C81.7679 23.5162 81.6965 23.4694 81.625 23.4226C80.1341 22.4393 78.6605 21.3255 77.0957 20.4433C76.8246 20.2881 76.5487 20.1402 76.2702 20.0022C75.9227 19.8322 75.5531 19.6843 75.1662 19.672C75.0898 19.6695 75.0134 19.6745 74.937 19.6868C74.6241 19.7237 74.3259 19.8667 74.1435 20.118C74.1263 20.1427 74.1091 20.1698 74.0943 20.1969C74.1017 20.2043 74.1066 20.2117 74.1115 20.2191C74.1928 20.2141 74.5206 20.0416 74.5452 20.1279C74.8015 19.7459 74.4688 20.5493 74.5452 20.6207C74.6635 20.7292 74.7029 20.8598 74.7522 20.983C74.5403 20.7267 74.3284 20.4729 74.1115 20.2191C74.0918 20.2191 74.0844 20.2141 74.0943 20.1969C73.9242 19.9948 73.7517 19.7952 73.5792 19.5956C73.2761 19.2481 72.8868 18.9746 72.4481 18.5877C72.3052 18.9278 72.1303 19.152 72.182 19.2481C73.2564 21.1432 74.3579 23.0234 75.4471 24.8962C73.9316 25.5468 72.495 25.532 71.1667 24.1323C69.3925 22.2619 67.5123 20.4951 65.6542 18.706C64.947 18.0259 64.2028 17.3778 63.4191 16.7913C63.2195 16.6434 62.7587 16.7075 62.5024 16.8381C62.3842 16.8997 62.4137 17.3778 62.4827 17.6365C62.6454 18.2501 62.9608 18.8317 63.0569 19.4527C63.6434 23.3018 65.3289 26.7616 67.0268 30.1796C67.8425 31.8207 69.1707 33.2057 70.2796 34.7015C69.2471 33.903 68.0988 33.213 67.2239 32.2717C63.8282 28.6148 61.3443 24.3664 59.5281 19.7287C58.9465 18.2452 58.434 16.7346 57.8524 15.2511C57.7637 15.0244 57.4704 14.879 57.2708 14.6967C57.1452 14.9086 56.9357 15.1107 56.9061 15.3349C56.5685 17.8115 56.2383 20.2905 55.9475 22.772C55.6099 25.6724 55.3216 28.5778 54.9791 31.4782C54.9224 31.9711 54.952 32.6758 54.0599 32.5477C54.0353 32.3974 54.0032 32.289 54.0057 32.1805C54.0353 29.0312 54.0747 25.8819 54.092 22.7326C54.0944 22.1091 54.0574 21.4561 53.0397 21.0742C52.0836 24.0091 51.0831 26.8232 50.2527 29.6842C48.5375 35.5861 46.9506 41.525 45.2256 47.4244C44.8264 48.7846 44.0772 50.0389 43.4883 51.345C43.3454 51.3056 43.2024 51.2661 43.0595 51.2267C42.8845 49.7284 42.6011 48.2376 42.5617 46.7368C42.4779 43.5161 42.5248 40.2904 42.505 37.0671C42.5001 36.5028 42.4361 35.941 42.3991 35.3791C42.2512 35.3742 42.1009 35.3693 41.9531 35.3643C40.6643 37.9469 40.7407 40.8005 40.7308 43.5875C40.7209 46.4042 40.9871 49.2233 41.1349 52.1015C40.7037 51.9487 39.9127 51.9142 39.6539 51.5249C39.1216 50.724 38.7397 49.7654 38.5302 48.8191C36.8939 41.419 37.1552 34.0312 38.9319 26.7025ZM75.0011 21.2836C74.9937 21.2787 74.9888 21.2762 74.9814 21.2713C74.8533 21.1998 74.799 21.0939 74.7547 20.9854C74.836 21.084 74.9198 21.1826 75.0011 21.2836ZM69.7695 26.6976C69.3333 27.0081 68.8331 27.3605 68.0519 27.9124C67.288 26.0322 66.5709 24.2678 65.8538 22.5034C65.8415 22.4911 65.8292 22.4763 65.8168 22.464L65.7626 22.4714L65.8095 22.4566C65.8119 22.4591 65.8144 22.4615 65.8168 22.464L65.8366 22.4615C65.8415 22.4763 65.8489 22.4886 65.8538 22.5034C67.1278 23.8662 68.4018 25.2313 69.7695 26.6976ZM53.9244 35.559C53.8923 35.6132 53.8579 35.6674 53.8234 35.7241C53.7913 35.6527 53.7396 35.5812 53.7346 35.5073C53.7322 35.4703 53.8135 35.4259 53.8579 35.3865C53.88 35.4432 53.9022 35.4999 53.9244 35.559ZM51.5094 33.6492C51.7977 32.6906 52.0811 31.732 52.3744 30.7759C52.4335 30.5763 52.5247 30.3841 52.6972 30.219C52.4483 31.4191 53.2443 32.9099 51.5094 33.6492ZM52.5493 41.2194C50.6666 42.21 49.4124 43.6713 49.2374 45.9064H47.3917C47.5518 45.3815 47.6775 44.9305 47.8303 44.4894C48.4537 42.6979 49.1191 40.9212 49.7007 39.1174C50.09 37.9074 50.9697 37.2125 52.1723 36.4067C51.9604 37.6265 51.7706 38.6097 51.6252 39.6004C51.5119 40.3668 51.6351 41.037 52.5493 41.2194ZM47.1576 72.7766C44.7795 72.2172 42.4755 70.9998 40.6766 69.0408C38.2813 66.4286 36.3592 63.4913 36.2951 59.7826C36.2705 58.3361 36.4824 56.8353 36.8767 55.4406C37.2932 53.962 38.306 53.4544 39.8461 53.5012C41.7855 53.5579 43.0176 54.4697 43.646 56.2833C44.0551 57.4637 44.4937 58.6367 44.9151 59.8146C44.9249 59.8368 44.888 59.8787 44.851 59.96C43.7865 59.27 42.7515 58.5381 41.6549 57.9147C41.1103 57.6042 40.4622 57.3824 39.8437 57.3307C39.4962 57.3011 38.9122 57.6313 38.8037 57.9319C38.7076 58.1907 39.0428 58.7648 39.3434 58.9866C40.9008 60.13 42.5001 61.2192 44.1043 62.2961C44.6884 62.6855 44.7179 63.129 44.7253 63.8092C44.7327 64.9821 44.9742 66.1822 45.3266 67.3059C45.4326 67.6411 46.231 67.7594 46.7115 67.9762C46.7436 67.5351 46.815 67.0915 46.7978 66.6529C46.7707 66.0196 46.6795 65.3887 46.6154 64.7554C46.7017 64.7357 46.7904 64.716 46.8791 64.6963C47.8475 66.4361 48.816 68.1758 49.6144 69.6075C48.7618 70.7091 48.0126 71.6726 47.1576 72.7766ZM50.0383 70.3715C50.3488 70.7805 50.4917 70.9505 50.6149 71.1354C51.1989 72.0102 51.778 72.8875 52.505 73.984C51.2926 73.7697 50.3192 73.5947 49.0797 73.3729C49.4197 72.3084 49.6957 71.4434 50.0383 70.3715ZM52.6947 77.3896C52.4138 77.9244 51.8938 78.8214 51.6154 78.7721L49.3631 76.0614C49.644 75.9949 49.7844 75.9357 49.9274 75.9333C50.8958 75.9259 51.8667 75.9283 53.0298 75.9283C52.9165 76.4606 52.9066 76.9781 52.6947 77.3896ZM46.1299 56.34C44.8485 52.9813 46.332 50.1646 46.9703 46.9537C47.6923 47.2691 48.2122 47.4589 48.7002 47.7127C49.7425 48.2548 50.3069 48.0996 50.9328 47.0547C51.0905 46.796 51.2531 46.5397 51.4108 46.281C52.4631 44.5535 54.2423 44.0755 56.0141 45.002C55.0851 48.07 56.2901 50.5145 58.2516 52.6905C59.3112 53.8659 60.7824 54.1247 61.7385 53.5061C62.6602 52.9123 62.9362 51.6432 62.325 50.0882C61.8543 48.898 61.2186 47.7718 60.6099 46.5249C61.6572 46.0937 61.667 45.2263 60.9204 44.6003C58.5276 42.5969 56.189 40.3249 52.606 41.1997C53.6361 39.4057 54.7548 37.6561 55.6543 35.798C56.1225 34.8296 56.3492 33.8759 57.7292 34.0854C57.9313 34.1174 58.3305 33.8168 58.3773 33.6073C58.429 33.3905 58.227 33.0134 58.0224 32.8631C57.6651 32.6044 57.2191 32.4664 56.8839 32.3111C57.2437 28.4028 57.601 24.5389 57.9657 20.5961C58.5769 22.1461 59.1363 23.6616 59.7671 25.1476C62.0392 30.5024 65.7749 34.4846 71.0189 37.0277C71.5635 37.2889 72.1352 37.523 72.7217 37.6487C72.9016 37.6857 73.3895 37.2446 73.3575 37.1558C73.1037 36.4437 72.8252 35.7241 72.4309 35.0809C71.3861 33.3732 70.2796 31.7049 69.1239 29.9085C69.9124 29.529 70.5408 29.2776 71.115 28.9326C71.9627 28.425 72.6502 28.5556 73.5127 29.046C74.9568 29.8666 76.4846 30.5911 78.0543 31.1234C79.974 31.7764 81.9749 32.1904 83.9414 32.7054C83.6556 32.9124 83.3327 32.9642 83.0321 32.905C80.728 32.4417 78.6186 32.7325 77.0045 34.6029C75.2993 36.5817 74.4269 38.9695 73.9908 41.5028C73.9045 42.0006 74.2939 42.5797 74.4639 43.1193C74.8237 42.7546 75.1834 42.3899 75.5482 42.0277C75.5925 41.9833 75.6615 41.9636 75.7724 41.902C75.9893 42.4737 76.1297 43.0774 76.4304 43.5875C77.044 44.6201 77.6453 45.6895 78.4363 46.5816C79.1213 47.3529 80.1267 47.624 81.142 47.0818C82.1154 46.5619 82.3594 45.6452 82.2041 44.6472C82.108 44.0237 81.9207 43.3707 81.6053 42.831C80.5703 41.0568 79.4589 39.3293 78.2933 37.4491C79.7694 36.281 81.2011 34.3293 83.8699 35.6576C84.5427 35.9902 84.9099 35.4777 85.0799 34.8493C85.2425 34.2456 85.4125 33.6418 85.5604 33.1022H87.5195C87.5343 33.0282 87.5491 32.9568 87.5663 32.8828C87.4037 32.767 87.2386 32.6537 87.0759 32.5378C84.9567 31.0519 82.8424 29.566 80.7453 28.0923C81.2874 27.6143 81.593 27.3432 81.901 27.0721C81.593 26.769 81.3244 26.4068 80.9695 26.1752C80.5949 25.9312 80.1046 25.8671 79.7226 25.6305C78.9119 25.1254 78.0198 24.6695 77.3717 23.9918C77.246 23.8612 77.1228 23.7282 77.0021 23.5951C76.9207 23.5088 76.8394 23.4201 76.7606 23.3314C76.6374 23.1959 76.5142 23.0579 76.3934 22.9199C76.2357 22.74 76.078 22.5576 75.9203 22.3728C75.6122 22.013 75.3067 21.6508 75.0036 21.2861C75.9351 21.806 76.8394 22.3186 77.7093 22.9297C78.6137 23.563 79.5156 24.1964 80.42 24.8297C81.3194 25.458 82.2214 26.0864 83.1233 26.7124C83.5225 26.9908 83.9192 27.2668 84.3184 27.5403C84.8138 27.8878 85.3115 28.2303 85.8093 28.5753C85.8167 28.5803 85.8241 28.5852 85.829 28.5876C87.6353 29.837 89.4465 31.079 91.2602 32.3161C92.066 32.8656 92.5663 33.4595 92.8546 34.391C95.9127 44.2775 97.034 54.3391 95.755 64.6396C95.102 69.8885 94.1065 75.0732 90.7625 79.3315C89.7373 80.6375 88.7393 81.7637 87.7487 82.7173C83.414 86.8967 79.1829 87.8183 73.1455 86.2511C66.4304 84.5064 61.4009 80.2334 56.9431 75.1866C52.0515 69.6519 48.7519 63.2104 46.1299 56.34ZM2.22196 60.3173C2.76656 59.8935 3.3161 59.5386 3.77445 59.0901C4.87843 58.0132 5.02873 57.9467 5.99471 59.0975C8.57232 62.1704 11.0933 65.2902 13.6314 68.3828C12.5423 68.575 11.5344 68.7746 10.5166 68.92C10.3022 68.9496 9.98436 68.8461 9.83897 68.6884C7.38211 66.0122 4.94249 63.3163 2.22196 60.3173ZM40.6692 150.662C40.6963 150.78 40.4745 150.972 40.3464 151.108C37.7145 153.841 35.0901 156.578 32.4386 159.289C32.2267 159.506 31.8447 159.622 31.5268 159.654C27.3327 160.09 23.9492 158.653 21.7413 155.018C20.6644 153.249 19.792 151.32 19.0848 149.368C16.6033 142.53 15.1248 135.445 14.0701 128.254C12.9267 120.45 11.7019 112.656 10.4353 104.871C10.0804 102.68 9.15389 100.603 9.17607 98.316C9.18346 97.5546 8.92224 96.697 8.52303 96.0391C7.20712 93.8681 7.36485 91.5344 7.57677 89.1835C7.7542 87.2195 7.67287 85.1619 8.25197 83.3186C9.17853 80.3812 8.9666 77.3428 9.53584 74.398C10.11 71.4188 11.3175 70.4183 13.6783 71.2413C14.0183 71.3596 14.383 71.5149 14.7724 71.7095C18.6486 73.6366 22.005 76.3547 24.8857 79.5533C26.1991 81.0096 27.0715 82.8849 28.03 84.6321C28.4736 85.4379 28.932 86.5911 27.9758 87.1801C27.5988 87.4117 26.4283 86.6946 25.8369 86.1648C24.2573 84.7479 22.8329 83.1584 21.2755 81.7144C19.4052 79.9845 17.2169 78.7795 14.7231 78.2053C14.388 78.1289 14.0356 78.1314 13.6783 78.1486C13.3875 78.1609 13.0942 78.1856 12.8059 78.1856C12.7763 78.3039 12.7468 78.4222 12.7172 78.538C12.9316 78.7006 13.1213 78.9446 13.3579 79.0087C13.4663 79.0382 13.5723 79.0678 13.6783 79.0974C18.0301 80.3566 21.1277 83.3556 24.0232 86.6454C24.5481 87.2368 25.1321 87.8036 25.7728 88.257C26.5934 88.8385 27.5249 89.1564 28.5451 88.7153C28.5451 88.7079 28.5475 88.7005 28.5475 88.6931C28.5525 88.6981 28.5574 88.7005 28.5623 88.7055C28.8457 88.5256 29.1266 88.3432 29.2967 88.2323C33.9911 91.4383 38.651 94.5975 43.2813 97.7961C44.2399 98.459 45.0975 99.2672 45.9107 99.9351C45.7973 100.12 45.6864 100.295 45.5755 100.462C44.1093 102.656 42.7145 103.198 40.1418 102.508C38.6288 102.104 37.0147 101.46 35.8417 100.462C35.7998 100.43 35.7579 100.396 35.7185 100.359C33.4736 98.3555 31.549 95.9923 29.484 93.7843C29.0182 93.2865 28.9985 92.8109 29.2449 92.1505C29.8536 90.5216 29.6072 89.5433 28.5623 88.7055C28.5623 88.7079 28.5599 88.7079 28.5599 88.7079C28.5549 88.7104 28.55 88.7129 28.5451 88.7153C28.5106 88.9667 28.4736 89.223 28.4514 89.4792C28.274 91.6552 27.0049 92.3969 25.1395 91.2806C23.9764 90.5857 22.9143 89.701 21.8916 88.804C19.7674 86.9411 17.5545 85.226 14.898 84.1885C14.5062 84.0357 14.0947 83.91 13.6783 83.8164C13.316 83.7326 12.9488 83.671 12.5866 83.6365C12.2219 83.602 11.8202 83.9421 11.4358 84.1146C11.6748 84.4522 11.8399 84.9228 12.1677 85.1027C12.6581 85.3763 13.1682 85.6178 13.6783 85.8568C14.5777 86.2806 15.4821 86.6946 16.2978 87.2442C17.8305 88.2767 19.1711 89.5901 20.6348 90.7286C21.9754 91.7685 23.3504 92.769 24.76 93.7128C25.1395 93.9666 25.7013 93.9617 26.1843 94.0529C26.6427 94.1416 27.3992 94.0628 27.515 94.3018C27.8699 95.0287 28.099 95.869 28.1409 96.6773C28.1779 97.3796 27.5668 97.7936 26.8842 97.6532C25.7408 97.4191 24.5308 97.2293 23.5156 96.702C20.4525 95.115 17.4707 93.3728 14.4545 91.6946C14.1958 91.5517 13.937 91.4063 13.6783 91.2634C13.0745 90.9282 12.4659 90.6005 11.8399 90.3146C11.6083 90.2087 11.2411 90.3959 10.938 90.4477C10.9972 90.7262 10.9725 91.0662 11.1302 91.2683C11.4062 91.6207 11.7734 91.909 12.1307 92.1899C12.6408 92.5916 13.1558 92.9859 13.6783 93.3703C16.697 95.6078 19.8931 97.5595 23.3775 99.0356C23.4736 99.075 23.5501 99.1637 23.7299 99.3017C22.1651 99.8168 20.6816 99.6591 19.208 99.3831C17.7541 99.112 16.315 98.7473 14.8611 98.4861C14.5063 98.422 14.1046 98.6068 13.7275 98.6758C13.8705 99.0701 13.8951 99.6098 14.176 99.834C14.4668 100.068 14.7675 100.275 15.078 100.462C16.559 101.362 18.2445 101.776 19.9572 102.03C20.9478 102.178 21.3248 102.5 21.655 103.511C24.0503 110.864 26.4012 118.242 29.1119 125.482C30.9502 130.393 33.343 135.1 35.509 139.888C35.7136 140.339 36.0832 140.711 36.3789 141.12C36.5391 141.081 36.7017 141.039 36.8619 140.999C36.8176 140.344 36.9063 139.644 36.7042 139.043C36.0586 137.098 35.3168 135.189 34.5874 133.271C33.7939 131.179 32.9462 129.107 32.1922 126.997C32.0542 126.615 32.096 125.98 32.3326 125.682C36.3666 120.6 40.3759 115.494 44.5479 110.526C46.2458 108.506 48.232 106.704 50.2428 104.982C53.1925 102.456 56.7731 102.498 60.6493 102.823C59.9914 105.63 59.4197 108.326 58.7223 110.99C56.8987 117.959 53.9761 124.506 51.0683 131.066C50.1023 133.242 49.4394 135.551 48.6312 137.796C48.5301 138.072 48.3995 138.348 48.2344 138.589C46.1866 141.551 44.0896 144.481 42.096 147.48C41.4602 148.434 40.3488 149.237 40.6692 150.662ZM42.6504 150.356C44.8756 150.886 46.8372 151.445 48.8333 151.808C61.4404 154.097 74.1214 155.696 86.9675 155.119C90.3559 154.969 93.7269 154.279 97.0857 153.715C98.6604 153.449 100.183 152.889 101.731 152.463C101.805 152.537 101.879 152.608 101.955 152.68C100.225 155.004 98.4829 157.32 96.7703 159.656C95.9152 160.822 94.8925 161.502 93.3573 161.534C91.928 161.566 90.5062 161.945 89.072 162.066C88.5471 162.111 87.9138 161.987 87.4702 161.711C82.8226 158.821 77.803 158.456 72.5763 159.432C68.1801 160.255 63.7863 161.098 59.3926 161.933C59.2447 161.96 59.0968 162.002 58.949 162.037C56.6868 162.561 56.2679 163.303 56.985 165.531C57.0392 165.703 57.1057 165.871 57.054 166.127C50.881 162.219 46.4873 156.702 42.6504 150.356ZM142.149 168.579C134.343 173.993 125.821 177.308 116.213 177.133C112.852 177.071 109.486 176.603 106.147 176.137C103.517 175.772 100.895 175.56 98.276 175.519C94.2099 175.454 90.1562 175.795 86.1026 176.588C83.7615 177.046 81.3736 177.505 79.003 177.527C73.3303 177.586 67.6404 178.461 61.9751 177.386C61.7952 177.352 61.6153 177.312 61.4305 177.098C62.8499 176.987 64.2742 176.906 65.6912 176.756C66.7434 176.645 67.8129 176.529 68.8257 176.243C69.3358 176.1 69.735 175.575 70.186 175.223C69.6709 175.011 69.1633 174.631 68.6434 174.612C65.6887 174.503 62.7217 174.607 59.777 174.38C57.877 174.235 56.0091 173.646 54.1659 173.081C57.6972 173.081 61.2284 173.116 64.7597 173.057C65.5261 173.044 66.2875 172.702 67.0268 172.253C60.2821 171.958 53.6607 171.053 47.0245 170.038C48.7987 168.569 50.7751 168.148 52.9707 168.446C57.3053 169.03 61.6597 169.363 66.014 168.752C67.8942 168.488 69.9174 168.505 71.4674 167.096C71.8617 166.736 72.2091 166.324 72.5763 165.935C72.5196 165.854 72.4605 165.77 72.4013 165.686C70.8316 166.009 69.2692 166.559 67.6921 166.595C66.0485 166.632 64.3679 166.285 62.7464 165.91C61.2309 165.563 59.3778 166.103 58.1728 164.429C58.3945 164.326 58.4906 164.242 58.5843 164.242C63.7001 164.306 68.5793 162.958 73.4338 161.618C76.2948 160.827 79.0499 161.149 81.832 161.758C82.5244 161.908 83.2908 162.128 83.8182 162.564C85.8413 164.24 88.2366 164.496 90.6811 164.449C94.3923 164.378 98.1207 164.351 101.807 163.971C103.963 163.752 106.024 162.67 108.182 162.357C112.189 161.775 116.228 161.329 120.269 161.113C122.204 161.009 124.168 161.578 126.124 161.793C126.469 161.83 126.842 161.62 127.201 161.524C126.992 161.241 126.842 160.817 126.561 160.699C125.553 160.27 124.473 160.004 123.48 159.55C123.084 159.37 122.672 158.914 122.549 158.5C122.031 156.758 121.686 154.967 121.161 153.227C118.525 144.474 115.868 135.728 113.175 126.993C112.665 125.329 112.002 123.71 111.319 122.108C111.164 121.741 110.642 121.534 110.287 121.253C110.218 121.702 110.035 122.165 110.099 122.591C110.257 123.671 110.523 124.733 110.748 125.802C110.664 125.834 110.58 125.866 110.496 125.898C109.996 125.191 109.523 124.462 108.981 123.789C108.801 123.565 108.436 123.486 108.158 123.34C108.059 123.671 107.773 124.129 107.896 124.311C108.668 125.452 109.439 126.623 110.398 127.604C110.982 128.202 111.42 128.737 111.578 129.573C111.822 130.861 112.179 132.13 112.381 133.456C110.496 132.015 109.062 130.243 108.207 128.05C106.888 124.661 106.154 121.162 106.102 117.505C106.065 114.967 106.095 112.434 106.226 109.91C106.388 106.744 106.709 103.594 107.256 100.462C107.389 99.6886 107.537 98.9173 107.699 98.1485C107.788 97.732 108.066 97.1652 108.402 97.0248C110.679 96.0834 112.985 95.2086 115.304 94.3708C117.8 93.4689 120.134 93.8558 122.354 95.3097C123.431 96.0144 124.116 96.9311 124.52 98.1263C124.784 98.905 125.05 99.6837 125.319 100.462C127.946 108.111 130.698 115.721 133.064 123.451C135.659 131.933 137.889 140.534 140.06 149.136C140.824 152.167 140.89 155.368 141.356 158.478C141.78 161.29 142.275 164.092 142.817 166.884C142.973 167.677 142.815 168.118 142.149 168.579Z" fill="black"/>
</svg>
