<svg width="18" height="19" viewBox="0 0 18 19" fill="none" xmlns="http://www.w3.org/2000/svg">
<path fill-rule="evenodd" clip-rule="evenodd" d="M0 3.98877C0 3.19312 0.316071 2.43006 0.87868 1.86745C1.44129 1.30484 2.20435 0.98877 3 0.98877H15C15.7956 0.98877 16.5587 1.30484 17.1213 1.86745C17.6839 2.43006 18 3.19312 18 3.98877V15.9888C18 16.7844 17.6839 17.5475 17.1213 18.1101C16.5587 18.6727 15.7956 18.9888 15 18.9888H3C2.20435 18.9888 1.44129 18.6727 0.87868 18.1101C0.316071 17.5475 0 16.7844 0 15.9888V3.98877ZM10 5.98877C10 5.72355 9.89464 5.4692 9.70711 5.28166C9.51957 5.09413 9.26522 4.98877 9 4.98877C8.73478 4.98877 8.48043 5.09413 8.29289 5.28166C8.10536 5.4692 8 5.72355 8 5.98877V13.9888C8 14.254 8.10536 14.5083 8.29289 14.6959C8.48043 14.8834 8.73478 14.9888 9 14.9888C9.26522 14.9888 9.51957 14.8834 9.70711 14.6959C9.89464 14.5083 10 14.254 10 13.9888V5.98877ZM6 8.98877C6 8.72355 5.89464 8.4692 5.70711 8.28166C5.51957 8.09413 5.26522 7.98877 5 7.98877C4.73478 7.98877 4.48043 8.09413 4.29289 8.28166C4.10536 8.4692 4 8.72355 4 8.98877V13.9888C4 14.254 4.10536 14.5083 4.29289 14.6959C4.48043 14.8834 4.73478 14.9888 5 14.9888C5.26522 14.9888 5.51957 14.8834 5.70711 14.6959C5.89464 14.5083 6 14.254 6 13.9888V8.98877ZM14 11.9888C14 11.7236 13.8946 11.4692 13.7071 11.2817C13.5196 11.0941 13.2652 10.9888 13 10.9888C12.7348 10.9888 12.4804 11.0941 12.2929 11.2817C12.1054 11.4692 12 11.7236 12 11.9888V13.9888C12 14.254 12.1054 14.5083 12.2929 14.6959C12.4804 14.8834 12.7348 14.9888 13 14.9888C13.2652 14.9888 13.5196 14.8834 13.7071 14.6959C13.8946 14.5083 14 14.254 14 13.9888V11.9888Z" fill="#FE4A23"/>
</svg>
