<svg width="18" height="17" viewBox="0 0 18 17" fill="none" xmlns="http://www.w3.org/2000/svg">
<path d="M8.92172 13.775L4.77172 16.275C4.58838 16.3917 4.39672 16.4417 4.19672 16.425C3.99672 16.4083 3.82172 16.3417 3.67172 16.225C3.52172 16.1083 3.40505 15.9627 3.32172 15.788C3.23838 15.6133 3.22172 15.4173 3.27172 15.2L4.37172 10.475L0.696716 7.30001C0.530049 7.15001 0.426049 6.97901 0.384716 6.78701C0.343382 6.59501 0.355716 6.40768 0.421716 6.22501C0.487716 6.04235 0.587716 5.89235 0.721716 5.77501C0.855716 5.65768 1.03905 5.58268 1.27172 5.55001L6.12172 5.12501L7.99672 0.675012C8.08005 0.475012 8.20938 0.325012 8.38472 0.225012C8.56005 0.125012 8.73905 0.0750122 8.92172 0.0750122C9.10438 0.0750122 9.28338 0.125012 9.45872 0.225012C9.63405 0.325012 9.76338 0.475012 9.84672 0.675012L11.7217 5.12501L16.5717 5.55001C16.805 5.58335 16.9884 5.65835 17.1217 5.77501C17.255 5.89168 17.355 6.04168 17.4217 6.22501C17.4884 6.40835 17.501 6.59601 17.4597 6.78801C17.4184 6.98001 17.314 7.15068 17.1467 7.30001L13.4717 10.475L14.5717 15.2C14.6217 15.4167 14.605 15.6127 14.5217 15.788C14.4384 15.9633 14.3217 16.109 14.1717 16.225C14.0217 16.341 13.8467 16.4077 13.6467 16.425C13.4467 16.4423 13.255 16.3923 13.0717 16.275L8.92172 13.775Z" fill="#FFC116"/>
</svg>
