<svg width="19" height="19" viewBox="0 0 19 19" fill="none" xmlns="http://www.w3.org/2000/svg">
<path d="M11.2896 6.15399C11.0062 6.15399 10.7689 6.05799 10.5776 5.86599C10.3862 5.67399 10.2902 5.43666 10.2896 5.15399V1.15399C10.2896 0.870658 10.3856 0.633325 10.5776 0.441992C10.7696 0.250658 11.0069 0.154658 11.2896 0.153992H17.2896C17.5729 0.153992 17.8106 0.249992 18.0026 0.441992C18.1945 0.633992 18.2902 0.871325 18.2896 1.15399V5.15399C18.2896 5.43733 18.1936 5.67499 18.0016 5.86699C17.8096 6.05899 17.5722 6.15466 17.2896 6.15399H11.2896ZM1.28955 10.154C1.00622 10.154 0.768884 10.058 0.577551 9.86599C0.386218 9.67399 0.290217 9.43666 0.289551 9.15399V1.15399C0.289551 0.870658 0.385551 0.633325 0.577551 0.441992C0.769551 0.250658 1.00688 0.154658 1.28955 0.153992H7.28955C7.57288 0.153992 7.81055 0.249992 8.00255 0.441992C8.19455 0.633992 8.29022 0.871325 8.28955 1.15399V9.15399C8.28955 9.43733 8.19355 9.67499 8.00155 9.86699C7.80955 10.059 7.57222 10.1547 7.28955 10.154H1.28955ZM11.2896 18.154C11.0062 18.154 10.7689 18.058 10.5776 17.866C10.3862 17.674 10.2902 17.4367 10.2896 17.154V9.15399C10.2896 8.87066 10.3856 8.63333 10.5776 8.44199C10.7696 8.25066 11.0069 8.15466 11.2896 8.15399H17.2896C17.5729 8.15399 17.8106 8.24999 18.0026 8.44199C18.1945 8.63399 18.2902 8.87133 18.2896 9.15399V17.154C18.2896 17.4373 18.1936 17.675 18.0016 17.867C17.8096 18.059 17.5722 18.1547 17.2896 18.154H11.2896ZM1.28955 18.154C1.00622 18.154 0.768884 18.058 0.577551 17.866C0.386218 17.674 0.290217 17.4367 0.289551 17.154V13.154C0.289551 12.8707 0.385551 12.6333 0.577551 12.442C0.769551 12.2507 1.00688 12.1547 1.28955 12.154H7.28955C7.57288 12.154 7.81055 12.25 8.00255 12.442C8.19455 12.634 8.29022 12.8713 8.28955 13.154V17.154C8.28955 17.4373 8.19355 17.675 8.00155 17.867C7.80955 18.059 7.57222 18.1547 7.28955 18.154H1.28955Z" fill="white"/>
</svg>
