<svg width="24" height="21" viewBox="0 0 24 21" fill="none" xmlns="http://www.w3.org/2000/svg">
<path d="M6.75 10.5C6.75 10.2679 6.84219 10.0454 7.00628 9.88128C7.17038 9.71719 7.39294 9.625 7.625 9.625H15.5V3.9375C15.5 2.1875 13.6521 0.875 12 0.875H3.6875C2.87554 0.875869 2.09709 1.1988 1.52294 1.77294C0.948803 2.34709 0.625869 3.12554 0.625 3.9375V17.0625C0.625869 17.8745 0.948803 18.6529 1.52294 19.2271C2.09709 19.8012 2.87554 20.1241 3.6875 20.125H12.4375C13.2495 20.1241 14.0279 19.8012 14.6021 19.2271C15.1762 18.6529 15.4991 17.8745 15.5 17.0625V11.375H7.625C7.39294 11.375 7.17038 11.2828 7.00628 11.1187C6.84219 10.9546 6.75 10.7321 6.75 10.5ZM23.1185 9.88148L18.7435 5.50648C18.5781 5.34932 18.3578 5.26299 18.1296 5.26591C17.9015 5.26883 17.6835 5.36077 17.5221 5.52212C17.3608 5.68347 17.2688 5.90147 17.2659 6.12964C17.263 6.35781 17.3493 6.57809 17.5065 6.74352L20.3874 9.625H15.5V11.375H20.3874L17.5065 14.2565C17.4218 14.3369 17.3541 14.4335 17.3073 14.5405C17.2606 14.6476 17.2357 14.7629 17.2342 14.8796C17.2327 14.9964 17.2546 15.1123 17.2986 15.2205C17.3426 15.3287 17.4079 15.427 17.4904 15.5096C17.573 15.5921 17.6713 15.6574 17.7795 15.7014C17.8877 15.7454 18.0036 15.7673 18.1204 15.7658C18.2371 15.7643 18.3524 15.7394 18.4595 15.6927C18.5665 15.6459 18.6631 15.5782 18.7435 15.4935L23.1185 11.1185C23.2825 10.9544 23.3746 10.732 23.3746 10.5C23.3746 10.268 23.2825 10.0456 23.1185 9.88148Z" fill="white"/>
</svg>
