<svg width="18" height="17" viewBox="0 0 18 17" fill="none" xmlns="http://www.w3.org/2000/svg">
<path d="M14.7022 6.25246L14.513 6.68785C14.4834 6.75874 14.4335 6.81931 14.3696 6.8619C14.3057 6.9045 14.2306 6.92723 14.1538 6.92723C14.077 6.92723 14.0019 6.9045 13.9379 6.8619C13.874 6.81931 13.8241 6.75874 13.7945 6.68785L13.6053 6.25246C13.2726 5.48225 12.6633 4.86471 11.8976 4.52169L11.3138 4.26092C11.2429 4.22834 11.1829 4.17613 11.1409 4.11048C11.0988 4.04484 11.0765 3.96851 11.0765 3.89054C11.0765 3.81257 11.0988 3.73624 11.1409 3.67059C11.1829 3.60495 11.2429 3.55274 11.3138 3.52016L11.8653 3.27477C12.6502 2.92199 13.27 2.2816 13.5969 1.48554L13.7915 1.01554C13.8201 0.942735 13.8699 0.880231 13.9345 0.836175C13.9992 0.792119 14.0756 0.768555 14.1538 0.768555C14.232 0.768555 14.3084 0.792119 14.373 0.836175C14.4376 0.880231 14.4875 0.942735 14.5161 1.01554L14.7107 1.48477C15.0372 2.28098 15.6567 2.92164 16.4415 3.27477L16.9938 3.52092C17.0644 3.5536 17.1242 3.6058 17.1661 3.67137C17.208 3.73693 17.2303 3.81311 17.2303 3.89092C17.2303 3.96873 17.208 4.04492 17.1661 4.11048C17.1242 4.17605 17.0644 4.22825 16.9938 4.26092L16.4092 4.52092C15.6436 4.86428 15.0346 5.4821 14.7022 6.25246ZM14.1538 8.46169C14.6692 8.46169 15.1638 8.37708 15.6269 8.22169C15.6704 8.55246 15.6922 8.88887 15.6922 9.23092C15.6922 13.4794 12.2484 16.9232 7.99993 16.9232C6.73637 16.925 5.49199 16.6142 4.37762 16.0186L0.307625 16.9232L1.21224 12.8532C0.616615 11.7389 0.30585 10.4945 0.307625 9.23092C0.307625 4.98246 3.75147 1.53862 7.99993 1.53862C8.69686 1.53862 9.37147 1.63092 10.013 1.80477C9.6659 2.50854 9.50397 3.2892 9.54251 4.07297C9.58104 4.85674 9.81878 5.61774 10.2333 6.28407C10.6477 6.95039 11.2252 7.50004 11.9112 7.88108C12.5972 8.26211 13.3691 8.46194 14.1538 8.46169ZM4.15378 9.23092C4.15378 10.251 4.559 11.2293 5.28029 11.9506C6.00159 12.6719 6.97987 13.0771 7.99993 13.0771C9.02 13.0771 9.99828 12.6719 10.7196 11.9506C11.4409 11.2293 11.8461 10.251 11.8461 9.23092H10.3076C10.3076 9.84296 10.0645 10.4299 9.63172 10.8627C9.19894 11.2955 8.61197 11.5386 7.99993 11.5386C7.38789 11.5386 6.80092 11.2955 6.36815 10.8627C5.93537 10.4299 5.69224 9.84296 5.69224 9.23092H4.15378Z" fill="white"/>
</svg>
