<svg width="13" height="16" viewBox="0 0 13 16" fill="none" xmlns="http://www.w3.org/2000/svg">
<path d="M10.4835 8.06032C10.9742 8.06032 11.4447 8.25524 11.7917 8.60219C12.1386 8.94913 12.3335 9.4197 12.3335 9.91036V10.527C12.3335 12.958 10.0395 15.4605 6.16677 15.4605C2.29404 15.4605 0 12.958 0 10.527V9.91036C0 9.4197 0.194914 8.94913 0.541862 8.60219C0.88881 8.25524 1.35937 8.06032 1.85003 8.06032H10.4835ZM6.16677 0.0435181C7.06632 0.0435181 7.92901 0.40086 8.56509 1.03693C9.20116 1.673 9.5585 2.5357 9.5585 3.43524C9.5585 4.33479 9.20116 5.19748 8.56509 5.83356C7.92901 6.46963 7.06632 6.82697 6.16677 6.82697C5.26723 6.82697 4.40453 6.46963 3.76846 5.83356C3.13239 5.19748 2.77505 4.33479 2.77505 3.43524C2.77505 2.5357 3.13239 1.673 3.76846 1.03693C4.40453 0.40086 5.26723 0.0435181 6.16677 0.0435181Z" fill="#FE4A23"/>
</svg>
