<svg width="17" height="21" viewBox="0 0 17 21" fill="none" xmlns="http://www.w3.org/2000/svg">
<path d="M14.45 10.92C15.1263 10.92 15.7749 11.1855 16.2531 11.6581C16.7313 12.1307 17 12.7717 17 13.44V14.28C17 17.5913 13.838 21 8.5 21C3.162 21 0 17.5913 0 14.28V13.44C0 12.7717 0.26866 12.1307 0.746878 11.6581C1.2251 11.1855 1.8737 10.92 2.55 10.92H14.45ZM8.5 0C9.73989 0 10.929 0.486749 11.8057 1.35317C12.6825 2.21958 13.175 3.3947 13.175 4.62C13.175 5.8453 12.6825 7.02042 11.8057 7.88683C10.929 8.75325 9.73989 9.24 8.5 9.24C7.26011 9.24 6.07101 8.75325 5.19428 7.88683C4.31754 7.02042 3.825 5.8453 3.825 4.62C3.825 3.3947 4.31754 2.21958 5.19428 1.35317C6.07101 0.486749 7.26011 0 8.5 0Z" fill="white"/>
</svg>
