<svg width="13" height="16" viewBox="0 0 13 16" fill="none" xmlns="http://www.w3.org/2000/svg">
<path d="M10.4835 8.06026C10.9742 8.06026 11.4447 8.25518 11.7917 8.60213C12.1386 8.94907 12.3335 9.41964 12.3335 9.9103V10.527C12.3335 12.9579 10.0395 15.4604 6.16677 15.4604C2.29404 15.4604 0 12.9579 0 10.527V9.9103C0 9.41964 0.194914 8.94907 0.541862 8.60213C0.88881 8.25518 1.35937 8.06026 1.85003 8.06026H10.4835ZM6.16677 0.043457C7.06632 0.043457 7.92901 0.400799 8.56509 1.03687C9.20116 1.67294 9.5585 2.53564 9.5585 3.43518C9.5585 4.33472 9.20116 5.19742 8.56509 5.8335C7.92901 6.46957 7.06632 6.82691 6.16677 6.82691C5.26723 6.82691 4.40453 6.46957 3.76846 5.8335C3.13239 5.19742 2.77505 4.33472 2.77505 3.43518C2.77505 2.53564 3.13239 1.67294 3.76846 1.03687C4.40453 0.400799 5.26723 0.043457 6.16677 0.043457Z" fill="white"/>
</svg>
