<svg width="18" height="18" viewBox="0 0 18 18" fill="none" xmlns="http://www.w3.org/2000/svg">
<path fill-rule="evenodd" clip-rule="evenodd" d="M13.1403 1.31832C12.9678 1.04272 12.7137 0.827749 12.4133 0.703337C12.1129 0.578925 11.7812 0.55126 11.4644 0.624194L9.21564 1.14072C8.98518 1.19369 8.74571 1.19369 8.51526 1.14072L6.26653 0.624194C5.94969 0.55126 5.61799 0.578925 5.31761 0.703337C5.01723 0.827749 4.76311 1.04272 4.59062 1.31832L3.36495 3.27439C3.23989 3.47449 3.07104 3.64334 2.87094 3.76965L0.914872 4.99532C0.639745 5.16765 0.425091 5.42136 0.300705 5.72123C0.17632 6.0211 0.148373 6.35226 0.220744 6.66873L0.737275 8.91996C0.790052 9.15001 0.790052 9.38903 0.737275 9.61909L0.220744 11.8691C0.148092 12.1857 0.175898 12.5171 0.300297 12.8173C0.424695 13.1174 0.639507 13.3713 0.914872 13.5437L2.87094 14.7694C3.07104 14.8945 3.23989 15.0633 3.36621 15.2634L4.59187 17.2195C4.94456 17.7835 5.61743 18.0624 6.26653 17.9136L8.51526 17.3971C8.74571 17.3441 8.98518 17.3441 9.21564 17.3971L11.4656 17.9136C11.7823 17.9862 12.1137 17.9584 12.4138 17.834C12.7139 17.7096 12.9679 17.4948 13.1403 17.2195L14.3659 15.2634C14.491 15.0633 14.6598 14.8945 14.86 14.7694L16.8173 13.5437C17.0926 13.3711 17.3074 13.1169 17.4315 12.8165C17.5557 12.5161 17.5832 12.1845 17.5101 11.8678L16.9949 9.61909C16.9419 9.38863 16.9419 9.14916 16.9949 8.9187L17.5114 6.66873C17.5842 6.3522 17.5566 6.02087 17.4324 5.72076C17.3082 5.42064 17.0937 5.16665 16.8185 4.99407L14.8612 3.7684C14.6614 3.64311 14.4925 3.47422 14.3672 3.27439L13.1403 1.31832ZM12.5112 6.47988C12.5885 6.33763 12.6077 6.17093 12.5646 6.01484C12.5216 5.85875 12.4197 5.72545 12.2803 5.64298C12.141 5.56051 11.9751 5.5353 11.8175 5.57266C11.66 5.61002 11.5231 5.70703 11.4356 5.84328L8.16506 11.3788L6.19024 9.48776C6.13165 9.42761 6.06155 9.37987 5.98412 9.34739C5.90668 9.31491 5.8235 9.29836 5.73953 9.29873C5.65556 9.2991 5.57252 9.31637 5.49537 9.34952C5.41822 9.38267 5.34854 9.43102 5.29048 9.49169C5.23242 9.55235 5.18717 9.62409 5.15744 9.70262C5.1277 9.78115 5.11409 9.86486 5.1174 9.94877C5.12072 10.0327 5.1409 10.115 5.17674 10.191C5.21258 10.2669 5.26335 10.3349 5.32602 10.3908L7.8699 12.8283C7.93799 12.8934 8.0199 12.9423 8.10953 12.9713C8.19915 13.0003 8.29417 13.0087 8.38749 12.9958C8.48081 12.983 8.57001 12.9492 8.64845 12.897C8.72688 12.8448 8.79251 12.7756 8.84043 12.6945L12.5112 6.47988Z" fill="#FE4A23"/>
</svg>
