<svg width="18" height="18" viewBox="0 0 18 18" fill="none" xmlns="http://www.w3.org/2000/svg">
<path fill-rule="evenodd" clip-rule="evenodd" d="M13.1403 1.31796C12.9678 1.04235 12.7137 0.827383 12.4133 0.702971C12.1129 0.578558 11.7812 0.550893 11.4644 0.623828L9.21564 1.14036C8.98518 1.19333 8.74571 1.19333 8.51526 1.14036L6.26653 0.623828C5.94969 0.550893 5.61799 0.578558 5.31761 0.702971C5.01723 0.827383 4.76311 1.04235 4.59062 1.31796L3.36495 3.27402C3.23989 3.47413 3.07104 3.64297 2.87094 3.76929L0.914872 4.99496C0.639745 5.16729 0.425091 5.421 0.300705 5.72087C0.17632 6.02074 0.148373 6.35189 0.220744 6.66836L0.737275 8.91959C0.790052 9.14964 0.790052 9.38866 0.737275 9.61872L0.220744 11.8687C0.148092 12.1854 0.175898 12.5168 0.300297 12.8169C0.424695 13.117 0.639507 13.3709 0.914872 13.5434L2.87094 14.769C3.07104 14.8941 3.23989 15.0629 3.36621 15.263L4.59187 17.2191C4.94456 17.7832 5.61743 18.0621 6.26653 17.9132L8.51526 17.3967C8.74571 17.3437 8.98518 17.3437 9.21564 17.3967L11.4656 17.9132C11.7823 17.9859 12.1137 17.9581 12.4138 17.8337C12.7139 17.7093 12.9679 17.4945 13.1403 17.2191L14.3659 15.263C14.491 15.0629 14.6598 14.8941 14.86 14.769L16.8173 13.5434C17.0926 13.3707 17.3074 13.1165 17.4315 12.8161C17.5557 12.5158 17.5832 12.1842 17.5101 11.8674L16.9949 9.61872C16.9419 9.38826 16.9419 9.1488 16.9949 8.91834L17.5114 6.66836C17.5842 6.35184 17.5566 6.0205 17.4324 5.72039C17.3082 5.42028 17.0937 5.16629 16.8185 4.9937L14.8612 3.76804C14.6614 3.64274 14.4925 3.47385 14.3672 3.27402L13.1403 1.31796ZM12.5112 6.47951C12.5885 6.33727 12.6077 6.17056 12.5646 6.01447C12.5216 5.85839 12.4197 5.72508 12.2803 5.64261C12.141 5.56014 11.9751 5.53493 11.8175 5.57229C11.66 5.60965 11.5231 5.70666 11.4356 5.84292L8.16506 11.3784L6.19024 9.4874C6.13165 9.42724 6.06155 9.3795 5.98412 9.34702C5.90668 9.31455 5.8235 9.298 5.73953 9.29836C5.65556 9.29873 5.57252 9.316 5.49537 9.34916C5.41822 9.38231 5.34854 9.43066 5.29048 9.49132C5.23242 9.55199 5.18717 9.62372 5.15744 9.70225C5.1277 9.78078 5.11409 9.8645 5.1174 9.9484C5.12072 10.0323 5.1409 10.1147 5.17674 10.1906C5.21258 10.2666 5.26335 10.3345 5.32602 10.3904L7.8699 12.828C7.93799 12.8931 8.0199 12.9419 8.10953 12.971C8.19915 13 8.29417 13.0083 8.38749 12.9955C8.48081 12.9826 8.57001 12.9488 8.64845 12.8966C8.72688 12.8445 8.79251 12.7752 8.84043 12.6941L12.5112 6.47951Z" fill="white"/>
</svg>
