<svg width="21" height="21" viewBox="0 0 21 21" fill="none" xmlns="http://www.w3.org/2000/svg">
<path d="M9.28923 15.657C10.7684 15.6567 12.2049 15.1474 13.3701 14.2102L17.0334 17.9782L18.2117 16.7662L14.5484 12.9982C15.4601 11.7996 15.9555 10.3217 15.9559 8.79989C15.9559 5.01903 12.9651 1.94275 9.28923 1.94275C5.61339 1.94275 2.62256 5.01903 2.62256 8.79989C2.62256 12.5807 5.61339 15.657 9.28923 15.657ZM9.28923 3.65703C12.0467 3.65703 14.2892 5.96361 14.2892 8.79989C14.2892 11.6362 12.0467 13.9427 9.28923 13.9427C6.53173 13.9427 4.28923 11.6362 4.28923 8.79989C4.28923 5.96361 6.53173 3.65703 9.28923 3.65703Z" fill="#828282"/>
</svg>
