<svg width="14" height="18" viewBox="0 0 14 18" fill="none" xmlns="http://www.w3.org/2000/svg">
<path d="M11.4968 9.47076C12.0283 9.47076 12.5381 9.68192 12.914 10.0578C13.2898 10.4336 13.501 10.9434 13.501 11.475V12.143C13.501 14.7766 11.0158 17.4876 6.82032 17.4876C2.62486 17.4876 0.139648 14.7766 0.139648 12.143V11.475C0.139648 10.9434 0.350805 10.4336 0.726665 10.0578C1.10253 9.68192 1.6123 9.47076 2.14385 9.47076H11.4968ZM6.82032 0.785889C7.79482 0.785889 8.72941 1.17301 9.41849 1.86209C10.1076 2.55116 10.4947 3.48575 10.4947 4.46026C10.4947 5.43476 10.1076 6.36935 9.41849 7.05843C8.72941 7.74751 7.79482 8.13463 6.82032 8.13463C5.84582 8.13463 4.91123 7.74751 4.22215 7.05843C3.53307 6.36935 3.14595 5.43476 3.14595 4.46026C3.14595 3.48575 3.53307 2.55116 4.22215 1.86209C4.91123 1.17301 5.84582 0.785889 6.82032 0.785889Z" fill="black"/>
<path d="M11.4968 9.47076C12.0283 9.47076 12.5381 9.68192 12.914 10.0578C13.2898 10.4336 13.501 10.9434 13.501 11.475V12.143C13.501 14.7766 11.0158 17.4876 6.82032 17.4876C2.62486 17.4876 0.139648 14.7766 0.139648 12.143V11.475C0.139648 10.9434 0.350805 10.4336 0.726665 10.0578C1.10253 9.68192 1.6123 9.47076 2.14385 9.47076H11.4968ZM6.82032 0.785889C7.79482 0.785889 8.72941 1.17301 9.41849 1.86209C10.1076 2.55116 10.4947 3.48575 10.4947 4.46026C10.4947 5.43476 10.1076 6.36935 9.41849 7.05843C8.72941 7.74751 7.79482 8.13463 6.82032 8.13463C5.84582 8.13463 4.91123 7.74751 4.22215 7.05843C3.53307 6.36935 3.14595 5.43476 3.14595 4.46026C3.14595 3.48575 3.53307 2.55116 4.22215 1.86209C4.91123 1.17301 5.84582 0.785889 6.82032 0.785889Z" fill="black" fill-opacity="0.2"/>
<path d="M11.4968 9.47076C12.0283 9.47076 12.5381 9.68192 12.914 10.0578C13.2898 10.4336 13.501 10.9434 13.501 11.475V12.143C13.501 14.7766 11.0158 17.4876 6.82032 17.4876C2.62486 17.4876 0.139648 14.7766 0.139648 12.143V11.475C0.139648 10.9434 0.350805 10.4336 0.726665 10.0578C1.10253 9.68192 1.6123 9.47076 2.14385 9.47076H11.4968ZM6.82032 0.785889C7.79482 0.785889 8.72941 1.17301 9.41849 1.86209C10.1076 2.55116 10.4947 3.48575 10.4947 4.46026C10.4947 5.43476 10.1076 6.36935 9.41849 7.05843C8.72941 7.74751 7.79482 8.13463 6.82032 8.13463C5.84582 8.13463 4.91123 7.74751 4.22215 7.05843C3.53307 6.36935 3.14595 5.43476 3.14595 4.46026C3.14595 3.48575 3.53307 2.55116 4.22215 1.86209C4.91123 1.17301 5.84582 0.785889 6.82032 0.785889Z" fill="black" fill-opacity="0.2"/>
<path d="M11.4968 9.47076C12.0283 9.47076 12.5381 9.68192 12.914 10.0578C13.2898 10.4336 13.501 10.9434 13.501 11.475V12.143C13.501 14.7766 11.0158 17.4876 6.82032 17.4876C2.62486 17.4876 0.139648 14.7766 0.139648 12.143V11.475C0.139648 10.9434 0.350805 10.4336 0.726665 10.0578C1.10253 9.68192 1.6123 9.47076 2.14385 9.47076H11.4968ZM6.82032 0.785889C7.79482 0.785889 8.72941 1.17301 9.41849 1.86209C10.1076 2.55116 10.4947 3.48575 10.4947 4.46026C10.4947 5.43476 10.1076 6.36935 9.41849 7.05843C8.72941 7.74751 7.79482 8.13463 6.82032 8.13463C5.84582 8.13463 4.91123 7.74751 4.22215 7.05843C3.53307 6.36935 3.14595 5.43476 3.14595 4.46026C3.14595 3.48575 3.53307 2.55116 4.22215 1.86209C4.91123 1.17301 5.84582 0.785889 6.82032 0.785889Z" fill="black" fill-opacity="0.2"/>
<path d="M11.4968 9.47076C12.0283 9.47076 12.5381 9.68192 12.914 10.0578C13.2898 10.4336 13.501 10.9434 13.501 11.475V12.143C13.501 14.7766 11.0158 17.4876 6.82032 17.4876C2.62486 17.4876 0.139648 14.7766 0.139648 12.143V11.475C0.139648 10.9434 0.350805 10.4336 0.726665 10.0578C1.10253 9.68192 1.6123 9.47076 2.14385 9.47076H11.4968ZM6.82032 0.785889C7.79482 0.785889 8.72941 1.17301 9.41849 1.86209C10.1076 2.55116 10.4947 3.48575 10.4947 4.46026C10.4947 5.43476 10.1076 6.36935 9.41849 7.05843C8.72941 7.74751 7.79482 8.13463 6.82032 8.13463C5.84582 8.13463 4.91123 7.74751 4.22215 7.05843C3.53307 6.36935 3.14595 5.43476 3.14595 4.46026C3.14595 3.48575 3.53307 2.55116 4.22215 1.86209C4.91123 1.17301 5.84582 0.785889 6.82032 0.785889Z" fill="black" fill-opacity="0.2"/>
<path d="M11.4968 9.47076C12.0283 9.47076 12.5381 9.68192 12.914 10.0578C13.2898 10.4336 13.501 10.9434 13.501 11.475V12.143C13.501 14.7766 11.0158 17.4876 6.82032 17.4876C2.62486 17.4876 0.139648 14.7766 0.139648 12.143V11.475C0.139648 10.9434 0.350805 10.4336 0.726665 10.0578C1.10253 9.68192 1.6123 9.47076 2.14385 9.47076H11.4968ZM6.82032 0.785889C7.79482 0.785889 8.72941 1.17301 9.41849 1.86209C10.1076 2.55116 10.4947 3.48575 10.4947 4.46026C10.4947 5.43476 10.1076 6.36935 9.41849 7.05843C8.72941 7.74751 7.79482 8.13463 6.82032 8.13463C5.84582 8.13463 4.91123 7.74751 4.22215 7.05843C3.53307 6.36935 3.14595 5.43476 3.14595 4.46026C3.14595 3.48575 3.53307 2.55116 4.22215 1.86209C4.91123 1.17301 5.84582 0.785889 6.82032 0.785889Z" fill="black" fill-opacity="0.2"/>
<path d="M11.4968 9.47076C12.0283 9.47076 12.5381 9.68192 12.914 10.0578C13.2898 10.4336 13.501 10.9434 13.501 11.475V12.143C13.501 14.7766 11.0158 17.4876 6.82032 17.4876C2.62486 17.4876 0.139648 14.7766 0.139648 12.143V11.475C0.139648 10.9434 0.350805 10.4336 0.726665 10.0578C1.10253 9.68192 1.6123 9.47076 2.14385 9.47076H11.4968ZM6.82032 0.785889C7.79482 0.785889 8.72941 1.17301 9.41849 1.86209C10.1076 2.55116 10.4947 3.48575 10.4947 4.46026C10.4947 5.43476 10.1076 6.36935 9.41849 7.05843C8.72941 7.74751 7.79482 8.13463 6.82032 8.13463C5.84582 8.13463 4.91123 7.74751 4.22215 7.05843C3.53307 6.36935 3.14595 5.43476 3.14595 4.46026C3.14595 3.48575 3.53307 2.55116 4.22215 1.86209C4.91123 1.17301 5.84582 0.785889 6.82032 0.785889Z" fill="black" fill-opacity="0.2"/>
<path d="M11.4968 9.47076C12.0283 9.47076 12.5381 9.68192 12.914 10.0578C13.2898 10.4336 13.501 10.9434 13.501 11.475V12.143C13.501 14.7766 11.0158 17.4876 6.82032 17.4876C2.62486 17.4876 0.139648 14.7766 0.139648 12.143V11.475C0.139648 10.9434 0.350805 10.4336 0.726665 10.0578C1.10253 9.68192 1.6123 9.47076 2.14385 9.47076H11.4968ZM6.82032 0.785889C7.79482 0.785889 8.72941 1.17301 9.41849 1.86209C10.1076 2.55116 10.4947 3.48575 10.4947 4.46026C10.4947 5.43476 10.1076 6.36935 9.41849 7.05843C8.72941 7.74751 7.79482 8.13463 6.82032 8.13463C5.84582 8.13463 4.91123 7.74751 4.22215 7.05843C3.53307 6.36935 3.14595 5.43476 3.14595 4.46026C3.14595 3.48575 3.53307 2.55116 4.22215 1.86209C4.91123 1.17301 5.84582 0.785889 6.82032 0.785889Z" fill="black" fill-opacity="0.2"/>
<path d="M11.4968 9.47076C12.0283 9.47076 12.5381 9.68192 12.914 10.0578C13.2898 10.4336 13.501 10.9434 13.501 11.475V12.143C13.501 14.7766 11.0158 17.4876 6.82032 17.4876C2.62486 17.4876 0.139648 14.7766 0.139648 12.143V11.475C0.139648 10.9434 0.350805 10.4336 0.726665 10.0578C1.10253 9.68192 1.6123 9.47076 2.14385 9.47076H11.4968ZM6.82032 0.785889C7.79482 0.785889 8.72941 1.17301 9.41849 1.86209C10.1076 2.55116 10.4947 3.48575 10.4947 4.46026C10.4947 5.43476 10.1076 6.36935 9.41849 7.05843C8.72941 7.74751 7.79482 8.13463 6.82032 8.13463C5.84582 8.13463 4.91123 7.74751 4.22215 7.05843C3.53307 6.36935 3.14595 5.43476 3.14595 4.46026C3.14595 3.48575 3.53307 2.55116 4.22215 1.86209C4.91123 1.17301 5.84582 0.785889 6.82032 0.785889Z" fill="black" fill-opacity="0.2"/>
<path d="M11.4968 9.47076C12.0283 9.47076 12.5381 9.68192 12.914 10.0578C13.2898 10.4336 13.501 10.9434 13.501 11.475V12.143C13.501 14.7766 11.0158 17.4876 6.82032 17.4876C2.62486 17.4876 0.139648 14.7766 0.139648 12.143V11.475C0.139648 10.9434 0.350805 10.4336 0.726665 10.0578C1.10253 9.68192 1.6123 9.47076 2.14385 9.47076H11.4968ZM6.82032 0.785889C7.79482 0.785889 8.72941 1.17301 9.41849 1.86209C10.1076 2.55116 10.4947 3.48575 10.4947 4.46026C10.4947 5.43476 10.1076 6.36935 9.41849 7.05843C8.72941 7.74751 7.79482 8.13463 6.82032 8.13463C5.84582 8.13463 4.91123 7.74751 4.22215 7.05843C3.53307 6.36935 3.14595 5.43476 3.14595 4.46026C3.14595 3.48575 3.53307 2.55116 4.22215 1.86209C4.91123 1.17301 5.84582 0.785889 6.82032 0.785889Z" fill="black" fill-opacity="0.2"/>
</svg>
