<svg width="19" height="20" viewBox="0 0 19 20" fill="none" xmlns="http://www.w3.org/2000/svg">
<path d="M17.291 4.09866H18.001C18.2662 4.09866 18.5206 4.20402 18.7081 4.39155C18.8956 4.57909 19.001 4.83344 19.001 5.09866V12.0987C19.001 12.3639 18.8956 12.6182 18.7081 12.8058C18.5206 12.9933 18.2662 13.0987 18.001 13.0987H16.001L11.831 7.26266C11.5885 6.9233 11.2459 6.66827 10.8512 6.53325C10.4566 6.39823 10.0296 6.38998 9.63 6.50966L7.144 7.25566C6.79817 7.35919 6.43078 7.36718 6.08078 7.2788C5.73077 7.19042 5.41122 7.00896 5.156 6.75366L4.863 6.46066C4.75839 6.35607 4.67829 6.22958 4.62846 6.09029C4.57864 5.95101 4.56034 5.80241 4.57488 5.6552C4.58942 5.50799 4.63644 5.36584 4.71254 5.23899C4.78865 5.11215 4.89195 5.00377 5.015 4.92166L10.416 1.32166C10.7384 1.10657 11.1164 0.989794 11.5039 0.985534C11.8915 0.981273 12.2719 1.08971 12.599 1.29766L16.755 3.94266C16.9149 4.0443 17.1015 4.09841 17.291 4.09866ZM3.027 12.3937L1.411 13.8077C1.30055 13.9045 1.21279 14.0244 1.15395 14.159C1.09511 14.2936 1.06663 14.4395 1.07055 14.5863C1.07446 14.7331 1.11067 14.8773 1.1766 15.0085C1.24252 15.1398 1.33655 15.2549 1.452 15.3457L6.592 19.3857C6.70499 19.4746 6.83584 19.5381 6.97562 19.5719C7.11539 19.6057 7.26081 19.6089 7.40195 19.5814C7.5431 19.5539 7.67664 19.4962 7.79348 19.4124C7.91032 19.3286 8.00771 19.2205 8.079 19.0957L8.783 17.8637C8.99264 17.4968 9.08069 17.0729 9.03452 16.6529C8.98835 16.2329 8.81033 15.8382 8.526 15.5257L5.824 12.5537C5.47164 12.166 4.98123 11.932 4.4582 11.9021C3.93516 11.8722 3.42127 12.0487 3.027 12.3937ZM5.046 3.09866H1C0.734784 3.09866 0.48043 3.20402 0.292893 3.39155C0.105357 3.57909 0 3.83344 0 4.09866V11.6147C5.35399e-05 12.018 0.122058 12.4119 0.35 12.7447L0.424 12.6787L2.039 11.2647C2.72899 10.6609 3.62835 10.352 4.54372 10.4043C5.45909 10.4567 6.31736 10.8661 6.934 11.5447L9.636 14.5167C10.1333 15.0635 10.4447 15.7538 10.5255 16.4885C10.6063 17.2233 10.4525 17.9647 10.086 18.6067L9.431 19.7527C9.71358 19.8598 10.0168 19.9015 10.3178 19.8747C10.6188 19.8478 10.9098 19.7531 11.169 19.5977L15.579 16.9517C15.6972 16.8806 15.7995 16.7859 15.8794 16.6734C15.9592 16.5609 16.0149 16.4331 16.043 16.2981C16.0711 16.163 16.0709 16.0236 16.0425 15.8886C16.0141 15.7536 15.9581 15.626 15.878 15.5137L10.611 8.13466C10.5503 8.04992 10.4647 7.98624 10.3661 7.95253C10.2675 7.91883 10.1608 7.91677 10.061 7.94666L7.575 8.69166C6.9698 8.87321 6.32673 8.88754 5.71404 8.73314C5.10135 8.57873 4.54188 8.26135 4.095 7.81466L3.802 7.52166C3.54038 7.26019 3.34005 6.94392 3.21544 6.59566C3.09083 6.2474 3.04505 5.87583 3.0814 5.50774C3.11775 5.13965 3.23532 4.78421 3.42564 4.46705C3.61597 4.14989 3.87429 3.87891 4.182 3.67366L5.046 3.09866Z" fill="#FE4A23"/>
</svg>
