<svg width="19" height="19" viewBox="0 0 19 19" fill="none" xmlns="http://www.w3.org/2000/svg">
<path d="M17.1111 3.21007H17.8035C18.0622 3.21007 18.3103 3.31283 18.4932 3.49573C18.6761 3.67864 18.7788 3.92671 18.7788 4.18538V11.0125C18.7788 11.2712 18.6761 11.5192 18.4932 11.7022C18.3103 11.8851 18.0622 11.9878 17.8035 11.9878H15.8529L11.7859 6.29594C11.5494 5.96496 11.2152 5.71622 10.8303 5.58454C10.4454 5.45285 10.029 5.44481 9.63926 5.56153L7.21465 6.28911C6.87736 6.39008 6.51904 6.39788 6.17768 6.31168C5.83632 6.22548 5.52466 6.0485 5.27574 5.79951L4.98998 5.51374C4.88795 5.41174 4.80983 5.28836 4.76123 5.15252C4.71264 5.01668 4.69479 4.87175 4.70897 4.72817C4.72315 4.5846 4.76901 4.44596 4.84324 4.32224C4.91746 4.19853 5.01821 4.09282 5.13822 4.01275L10.4058 0.501651C10.7203 0.291872 11.0889 0.17798 11.4669 0.173824C11.8449 0.169668 12.2159 0.275428 12.5349 0.478243L16.5883 3.05792C16.7443 3.15706 16.9262 3.20982 17.1111 3.21007ZM3.19932 11.3002L1.62323 12.6793C1.51551 12.7737 1.42991 12.8907 1.37252 13.022C1.31514 13.1532 1.28736 13.2955 1.29118 13.4387C1.295 13.5819 1.33031 13.7225 1.39461 13.8505C1.45891 13.9785 1.55062 14.0908 1.66321 14.1793L6.67628 18.1196C6.78648 18.2063 6.9141 18.2683 7.05042 18.3012C7.18675 18.3342 7.32858 18.3373 7.46623 18.3105C7.60389 18.2836 7.73414 18.2274 7.84809 18.1457C7.96205 18.0639 8.05703 17.9585 8.12656 17.8367L8.81317 16.6351C9.01764 16.2773 9.10351 15.8639 9.05848 15.4543C9.01345 15.0446 8.83983 14.6597 8.56252 14.3549L5.92725 11.4563C5.58358 11.0782 5.10529 10.85 4.59517 10.8208C4.08505 10.7916 3.58385 10.9638 3.19932 11.3002ZM5.16846 2.23477H1.22238C0.963708 2.23477 0.715636 2.33752 0.53273 2.52043C0.349825 2.70333 0.24707 2.95141 0.24707 3.21007V10.5405C0.247123 10.9338 0.366114 11.318 0.588427 11.6426L0.6606 11.5782L2.23572 10.1991C2.90867 9.61024 3.78582 9.30895 4.67858 9.36002C5.57134 9.41108 6.40842 9.81043 7.00983 10.4722L9.64511 13.3708C10.1301 13.9042 10.4338 14.5774 10.5126 15.294C10.5915 16.0106 10.4414 16.7337 10.084 17.3598L9.44517 18.4775C9.72077 18.582 10.0165 18.6227 10.3101 18.5965C10.6037 18.5703 10.8875 18.478 11.1403 18.3263L15.4413 15.7457C15.5567 15.6764 15.6564 15.584 15.7343 15.4743C15.8122 15.3646 15.8665 15.2399 15.8939 15.1082C15.9213 14.9765 15.9211 14.8405 15.8934 14.7089C15.8657 14.5772 15.8111 14.4527 15.733 14.3432L10.596 7.1464C10.5369 7.06375 10.4534 7.00165 10.3572 6.96877C10.261 6.9359 10.157 6.93389 10.0596 6.96304L7.635 7.68965C7.04475 7.86671 6.41756 7.88069 5.82 7.7301C5.22244 7.57951 4.67679 7.26996 4.24094 6.8343L3.95518 6.54854C3.70002 6.29352 3.50464 5.98506 3.3831 5.6454C3.26157 5.30575 3.21692 4.94335 3.25237 4.58435C3.28782 4.22535 3.4025 3.87869 3.58812 3.56936C3.77374 3.26004 4.02569 2.99575 4.3258 2.79557L5.16846 2.23477Z" fill="white"/>
</svg>
