<svg width="37" height="25" viewBox="0 0 37 25" fill="none" xmlns="http://www.w3.org/2000/svg">
<path d="M29.6627 9.70844C28.6427 4.53344 24.0977 0.648438 18.6377 0.648438C14.3027 0.648438 10.5377 3.10844 8.66269 6.70844C4.1477 7.18844 0.637695 11.0134 0.637695 15.6484C0.637695 20.6134 4.6727 24.6484 9.6377 24.6484H29.1377C33.2777 24.6484 36.6377 21.2884 36.6377 17.1484C36.6377 13.1884 33.5627 9.97844 29.6627 9.70844ZM29.1377 21.6484H9.6377C6.3227 21.6484 3.6377 18.9634 3.6377 15.6484C3.6377 12.5734 5.9327 10.0084 8.9777 9.69344L10.5827 9.52844L11.3327 8.10344C12.7577 5.35844 15.5477 3.64844 18.6377 3.64844C22.5677 3.64844 25.9577 6.43844 26.7227 10.2934L27.1727 12.5434L29.4677 12.7084C31.8077 12.8584 33.6377 14.8234 33.6377 17.1484C33.6377 19.6234 31.6127 21.6484 29.1377 21.6484ZM12.6377 14.1484H16.4627V18.6484H20.8127V14.1484H24.6377L18.6377 8.14844L12.6377 14.1484Z" fill="#FE4A23"/>
</svg>
