<svg width="28" height="29" viewBox="0 0 28 29" fill="none" xmlns="http://www.w3.org/2000/svg">
<path d="M22.4556 16.1849C22.1058 16.1849 21.7704 16.3239 21.5231 16.5712C21.2758 16.8185 21.1368 17.1539 21.1368 17.5037V18.0048L19.1851 16.0531C18.496 15.3693 17.5646 14.9857 16.5938 14.9857C15.6231 14.9857 14.6916 15.3693 14.0025 16.0531L13.0794 16.9762L9.80892 13.7057C9.11015 13.0405 8.18235 12.6696 7.21761 12.6696C6.25287 12.6696 5.32507 13.0405 4.6263 13.7057L2.67458 15.6574V8.27252C2.67458 7.92277 2.81351 7.58735 3.06082 7.34004C3.30814 7.09273 3.64356 6.95379 3.99331 6.95379H13.2244C13.5742 6.95379 13.9096 6.81485 14.1569 6.56754C14.4042 6.32023 14.5432 5.98481 14.5432 5.63506C14.5432 5.28531 14.4042 4.94988 14.1569 4.70257C13.9096 4.45526 13.5742 4.31632 13.2244 4.31632H3.99331C2.94406 4.31632 1.93779 4.73314 1.19585 5.47507C0.453922 6.217 0.0371094 7.22327 0.0371094 8.27252V24.0973C0.0371094 25.1466 0.453922 26.1529 1.19585 26.8948C1.93779 27.6367 2.94406 28.0535 3.99331 28.0535H19.8181C20.8674 28.0535 21.8736 27.6367 22.6156 26.8948C23.3575 26.1529 23.7743 25.1466 23.7743 24.0973V17.5037C23.7743 17.1539 23.6354 16.8185 23.3881 16.5712C23.1408 16.3239 22.8053 16.1849 22.4556 16.1849ZM3.99331 25.4161C3.64356 25.4161 3.30814 25.2771 3.06082 25.0298C2.81351 24.7825 2.67458 24.4471 2.67458 24.0973V19.3894L6.4989 15.5651C6.69264 15.3805 6.95 15.2775 7.21761 15.2775C7.48523 15.2775 7.74259 15.3805 7.93632 15.5651L12.1167 19.7455L17.7873 25.4161H3.99331ZM21.1368 24.0973C21.134 24.3496 21.0509 24.5944 20.8995 24.7963L14.952 18.8224L15.8751 17.8993C15.9696 17.8028 16.0825 17.7261 16.207 17.6738C16.3316 17.6215 16.4653 17.5945 16.6004 17.5945C16.7355 17.5945 16.8692 17.6215 16.9938 17.6738C17.1183 17.7261 17.2312 17.8028 17.3257 17.8993L21.1368 21.7368V24.0973ZM27.3481 4.69876L23.3919 0.742556C23.2665 0.622498 23.1186 0.528386 22.9567 0.465622C22.6356 0.333725 22.2755 0.333725 21.9545 0.465622C21.7926 0.528386 21.6447 0.622498 21.5193 0.742556L17.5631 4.69876C17.3148 4.94708 17.1752 5.28388 17.1752 5.63506C17.1752 5.98624 17.3148 6.32304 17.5631 6.57136C17.8114 6.81968 18.1482 6.95919 18.4994 6.95919C18.8506 6.95919 19.1874 6.81968 19.4357 6.57136L21.1368 4.857V12.2287C21.1368 12.5785 21.2758 12.9139 21.5231 13.1612C21.7704 13.4085 22.1058 13.5475 22.4556 13.5475C22.8053 13.5475 23.1408 13.4085 23.3881 13.1612C23.6354 12.9139 23.7743 12.5785 23.7743 12.2287V4.857L25.4755 6.57136C25.5981 6.69496 25.7439 6.79307 25.9046 6.86002C26.0653 6.92697 26.2377 6.96144 26.4118 6.96144C26.5859 6.96144 26.7582 6.92697 26.9189 6.86002C27.0796 6.79307 27.2255 6.69496 27.3481 6.57136C27.4717 6.44876 27.5698 6.30291 27.6367 6.14221C27.7037 5.98151 27.7382 5.80915 27.7382 5.63506C27.7382 5.46097 27.7037 5.2886 27.6367 5.1279C27.5698 4.9672 27.4717 4.82135 27.3481 4.69876Z" fill="#FE4A23"/>
</svg>
