<svg width="28" height="28" viewBox="0 0 28 28" fill="none" xmlns="http://www.w3.org/2000/svg">
<path d="M0.294922 1.36152C0.294922 1.05533 0.416563 0.76168 0.633086 0.545172C0.849609 0.328664 1.14328 0.207031 1.44949 0.207031H2.30849C3.77094 0.207031 4.64841 1.19065 5.14872 2.105C5.48277 2.71457 5.72446 3.42112 5.91381 4.06147L6.06775 4.05532H25.3074C26.5852 4.05532 27.5088 5.27753 27.1578 6.50744L24.3438 16.3729C24.0915 17.2578 23.5577 18.0364 22.8232 18.5908C22.0888 19.1452 21.1937 19.4452 20.2735 19.4454H11.1171C10.1895 19.4454 9.28769 19.1409 8.55011 18.5785C7.81253 18.0162 7.28005 17.2272 7.03451 16.3329L5.86455 12.0659L3.92488 5.5269L3.92334 5.51458C3.68319 4.64179 3.45843 3.82442 3.12284 3.21485C2.8011 2.62221 2.54248 2.516 2.31002 2.516H1.44949C1.14328 2.516 0.849609 2.39437 0.633086 2.17786C0.416563 1.96135 0.294922 1.66771 0.294922 1.36152ZM10.3012 27.145C11.1177 27.145 11.9008 26.8207 12.4782 26.2433C13.0556 25.666 13.38 24.8829 13.38 24.0664C13.38 23.2499 13.0556 22.4668 12.4782 21.8895C11.9008 21.3121 11.1177 20.9878 10.3012 20.9878C9.4846 20.9878 8.70148 21.3121 8.12409 21.8895C7.54669 22.4668 7.22232 23.2499 7.22232 24.0664C7.22232 24.8829 7.54669 25.666 8.12409 26.2433C8.70148 26.8207 9.4846 27.145 10.3012 27.145ZM21.0771 27.145C21.8937 27.145 22.6768 26.8207 23.2542 26.2433C23.8316 25.666 24.156 24.8829 24.156 24.0664C24.156 23.2499 23.8316 22.4668 23.2542 21.8895C22.6768 21.3121 21.8937 20.9878 21.0771 20.9878C20.2605 20.9878 19.4774 21.3121 18.9 21.8895C18.3226 22.4668 17.9983 23.2499 17.9983 24.0664C17.9983 24.8829 18.3226 25.666 18.9 26.2433C19.4774 26.8207 20.2605 27.145 21.0771 27.145Z" fill="black"/>
</svg>
